%TF.GenerationSoftware,KiCad,Pcbnew,8.0.8*%
%TF.CreationDate,2025-02-04T02:58:58-07:00*%
%TF.ProjectId,iugplknlk,69756770-6c6b-46e6-9c6b-2e6b69636164,rev?*%
%TF.SameCoordinates,Original*%
%TF.FileFunction,Profile,NP*%
%FSLAX46Y46*%
G04 Gerber Fmt 4.6, Leading zero omitted, Abs format (unit mm)*
G04 Created by KiCad (PCBNEW 8.0.8) date 2025-02-04 02:58:58*
%MOMM*%
%LPD*%
G01*
G04 APERTURE LIST*
G04 Aperture macros list*
%AMRoundRect*
0 Rectangle with rounded corners*
0 $1 Rounding radius*
0 $2 $3 $4 $5 $6 $7 $8 $9 X,Y pos of 4 corners*
0 Add a 4 corners polygon primitive as box body*
4,1,4,$2,$3,$4,$5,$6,$7,$8,$9,$2,$3,0*
0 Add four circle primitives for the rounded corners*
1,1,$1+$1,$2,$3*
1,1,$1+$1,$4,$5*
1,1,$1+$1,$6,$7*
1,1,$1+$1,$8,$9*
0 Add four rect primitives between the rounded corners*
20,1,$1+$1,$2,$3,$4,$5,0*
20,1,$1+$1,$4,$5,$6,$7,0*
20,1,$1+$1,$6,$7,$8,$9,0*
20,1,$1+$1,$8,$9,$2,$3,0*%
G04 Aperture macros list end*
%TA.AperFunction,Profile*%
%ADD10C,0.150000*%
%TD*%
%TA.AperFunction,ComponentPad*%
%ADD11R,1.700000X1.700000*%
%TD*%
%TA.AperFunction,ComponentPad*%
%ADD12O,1.700000X1.700000*%
%TD*%
%TA.AperFunction,ComponentPad*%
%ADD13C,1.600000*%
%TD*%
%TA.AperFunction,ComponentPad*%
%ADD14O,1.600000X1.600000*%
%TD*%
%TA.AperFunction,ComponentPad*%
%ADD15C,2.000000*%
%TD*%
%TA.AperFunction,ComponentPad*%
%ADD16R,1.800000X1.800000*%
%TD*%
%TA.AperFunction,ComponentPad*%
%ADD17C,1.800000*%
%TD*%
%TA.AperFunction,ComponentPad*%
%ADD18RoundRect,0.250000X-0.725000X0.600000X-0.725000X-0.600000X0.725000X-0.600000X0.725000X0.600000X0*%
%TD*%
%TA.AperFunction,ComponentPad*%
%ADD19O,1.950000X1.700000*%
%TD*%
%TA.AperFunction,ComponentPad*%
%ADD20C,1.440000*%
%TD*%
%TA.AperFunction,Conductor*%
%ADD21C,0.250000*%
%TD*%
G04 APERTURE END LIST*
D10*
X166040000Y-59360000D02*
X168580000Y-61900000D01*
X100000000Y-99238000D02*
X100000000Y-47422000D01*
X168580000Y-61900000D02*
X168580000Y-96190000D01*
X165278000Y-100000000D02*
X100762000Y-100000000D01*
X100762000Y-46660000D02*
X163500000Y-46660000D01*
X100762000Y-100000000D02*
G75*
G02*
X100000000Y-99238000I0J762000D01*
G01*
X168580000Y-96190000D02*
X166040000Y-98730000D01*
X163500000Y-46660000D02*
X166040000Y-49200000D01*
X166040000Y-99238000D02*
G75*
G02*
X165278000Y-100000000I-762000J0D01*
G01*
X166040000Y-49200000D02*
X166040000Y-59360000D01*
X166040000Y-98730000D02*
X166040000Y-99238000D01*
X100000000Y-47422000D02*
G75*
G02*
X100762000Y-46660000I762000J0D01*
G01*
D11*
%TO.P,J1,1,Pin_1*%
%TO.N,unconnected-(J1-Pin_1-Pad1)*%
X127940000Y-97460000D03*
D12*
%TO.P,J1,2,Pin_2*%
%TO.N,/IOREF*%
X130480000Y-97460000D03*
%TO.P,J1,3,Pin_3*%
%TO.N,/~{RESET}*%
X133020000Y-97460000D03*
%TO.P,J1,4,Pin_4*%
%TO.N,+3V3*%
X135560000Y-97460000D03*
%TO.P,J1,5,Pin_5*%
%TO.N,+5V*%
X138100000Y-97460000D03*
%TO.P,J1,6,Pin_6*%
%TO.N,GND*%
X140640000Y-97460000D03*
%TO.P,J1,7,Pin_7*%
X143180000Y-97460000D03*
%TO.P,J1,8,Pin_8*%
%TO.N,VCC*%
X145720000Y-97460000D03*
%TD*%
D11*
%TO.P,J3,1,Pin_1*%
%TO.N,/temp_sensor*%
X150800000Y-97460000D03*
D12*
%TO.P,J3,2,Pin_2*%
%TO.N,/A1*%
X153340000Y-97460000D03*
%TO.P,J3,3,Pin_3*%
%TO.N,/A2*%
X155880000Y-97460000D03*
%TO.P,J3,4,Pin_4*%
%TO.N,/A3*%
X158420000Y-97460000D03*
%TO.P,J3,5,Pin_5*%
%TO.N,/I2C_SDA*%
X160960000Y-97460000D03*
%TO.P,J3,6,Pin_6*%
%TO.N,/I2C_SCL*%
X163500000Y-97460000D03*
%TD*%
D11*
%TO.P,J2,1,Pin_1*%
%TO.N,/I2C_SCL*%
X118796000Y-49200000D03*
D12*
%TO.P,J2,2,Pin_2*%
%TO.N,/I2C_SDA*%
X121336000Y-49200000D03*
%TO.P,J2,3,Pin_3*%
%TO.N,/AREF*%
X123876000Y-49200000D03*
%TO.P,J2,4,Pin_4*%
%TO.N,GND*%
X126416000Y-49200000D03*
%TO.P,J2,5,Pin_5*%
%TO.N,/13*%
X128956000Y-49200000D03*
%TO.P,J2,6,Pin_6*%
%TO.N,/12*%
X131496000Y-49200000D03*
%TO.P,J2,7,Pin_7*%
%TO.N,/\u002A11*%
X134036000Y-49200000D03*
%TO.P,J2,8,Pin_8*%
%TO.N,/\u002A10*%
X136576000Y-49200000D03*
%TO.P,J2,9,Pin_9*%
%TO.N,/led_light*%
X139116000Y-49200000D03*
%TO.P,J2,10,Pin_10*%
%TO.N,/temp_digital*%
X141656000Y-49200000D03*
%TD*%
D11*
%TO.P,J4,1,Pin_1*%
%TO.N,/7*%
X145720000Y-49200000D03*
D12*
%TO.P,J4,2,Pin_2*%
%TO.N,/button_light*%
X148260000Y-49200000D03*
%TO.P,J4,3,Pin_3*%
%TO.N,/button_cal*%
X150800000Y-49200000D03*
%TO.P,J4,4,Pin_4*%
%TO.N,/button_units*%
X153340000Y-49200000D03*
%TO.P,J4,5,Pin_5*%
%TO.N,/button_lock*%
X155880000Y-49200000D03*
%TO.P,J4,6,Pin_6*%
%TO.N,/button_onoff*%
X158420000Y-49200000D03*
%TO.P,J4,7,Pin_7*%
%TO.N,/TX{slash}1*%
X160960000Y-49200000D03*
%TO.P,J4,8,Pin_8*%
%TO.N,/RX{slash}0*%
X163500000Y-49200000D03*
%TD*%
D13*
%TO.P,R6,1*%
%TO.N,/led_light*%
X128956000Y-54280000D03*
D14*
%TO.P,R6,2*%
%TO.N,Net-(D1-A)*%
X139116000Y-54280000D03*
%TD*%
D11*
%TO.P,J6,1,Pin_1*%
%TO.N,GND*%
X116764000Y-71044000D03*
D12*
%TO.P,J6,2,Pin_2*%
%TO.N,+5V*%
X114224000Y-71044000D03*
%TO.P,J6,3,Pin_3*%
%TO.N,/I2C_SCL*%
X111684000Y-71044000D03*
%TO.P,J6,4,Pin_4*%
%TO.N,/I2C_SDA*%
X109144000Y-71044000D03*
%TD*%
D15*
%TO.P,SW5,2,B*%
%TO.N,+5V*%
X151308000Y-90856000D03*
X144808000Y-90856000D03*
%TO.P,SW5,1,A*%
%TO.N,/button_onoff*%
X151308000Y-86356000D03*
X144808000Y-86356000D03*
%TD*%
D11*
%TO.P,J5,1,Pin_1*%
%TO.N,+5V*%
X121844000Y-55804000D03*
D12*
%TO.P,J5,2,Pin_2*%
%TO.N,GND*%
X119304000Y-55804000D03*
%TO.P,J5,3,Pin_3*%
%TO.N,/I2C_SCL*%
X116764000Y-55804000D03*
%TO.P,J5,4,Pin_4*%
%TO.N,/I2C_SDA*%
X114224000Y-55804000D03*
%TO.P,J5,5,Pin_5*%
%TO.N,unconnected-(J5-Pin_5-Pad5)*%
X111684000Y-55804000D03*
%TO.P,J5,6,Pin_6*%
%TO.N,unconnected-(J5-Pin_6-Pad6)*%
X109144000Y-55804000D03*
%TO.P,J5,7,Pin_7*%
%TO.N,unconnected-(J5-Pin_7-Pad7)*%
X106604000Y-55804000D03*
%TO.P,J5,8,Pin_8*%
%TO.N,unconnected-(J5-Pin_8-Pad8)*%
X104064000Y-55804000D03*
%TD*%
D15*
%TO.P,SW1,1,A*%
%TO.N,/button_units*%
X145212000Y-61900000D03*
X151712000Y-61900000D03*
%TO.P,SW1,2,B*%
%TO.N,+5V*%
X145212000Y-66400000D03*
X151712000Y-66400000D03*
%TD*%
%TO.P,SW4,1,A*%
%TO.N,/button_light*%
X128956000Y-74600000D03*
X135456000Y-74600000D03*
%TO.P,SW4,2,B*%
%TO.N,+5V*%
X128956000Y-79100000D03*
X135456000Y-79100000D03*
%TD*%
%TO.P,SW3,2,B*%
%TO.N,+5V*%
X151002000Y-79390000D03*
X144502000Y-79390000D03*
%TO.P,SW3,1,A*%
%TO.N,/button_lock*%
X151002000Y-74890000D03*
X144502000Y-74890000D03*
%TD*%
D14*
%TO.P,R3,2*%
%TO.N,GND*%
X153340000Y-70536000D03*
D13*
%TO.P,R3,1*%
%TO.N,/button_lock*%
X143180000Y-70536000D03*
%TD*%
D16*
%TO.P,D1,1,K*%
%TO.N,GND*%
X132004000Y-59868000D03*
D17*
%TO.P,D1,2,A*%
%TO.N,Net-(D1-A)*%
X134544000Y-59868000D03*
%TD*%
D13*
%TO.P,R2,1*%
%TO.N,/button_cal*%
X127028000Y-82800000D03*
D14*
%TO.P,R2,2*%
%TO.N,GND*%
X137188000Y-82800000D03*
%TD*%
D13*
%TO.P,R5,1*%
%TO.N,/button_onoff*%
X143284000Y-82800000D03*
D14*
%TO.P,R5,2*%
%TO.N,GND*%
X153444000Y-82800000D03*
%TD*%
D15*
%TO.P,SW2,1,A*%
%TO.N,/button_cal*%
X129568000Y-87372000D03*
X136068000Y-87372000D03*
%TO.P,SW2,2,B*%
%TO.N,+5V*%
X129568000Y-91872000D03*
X136068000Y-91872000D03*
%TD*%
D18*
%TO.P,J7,1,Pin_1*%
%TO.N,GND*%
X161993000Y-73116000D03*
D19*
%TO.P,J7,2,Pin_2*%
%TO.N,/temp_digital*%
X161993000Y-75616000D03*
%TO.P,J7,3,Pin_3*%
%TO.N,+5V*%
X161993000Y-78116000D03*
%TD*%
D13*
%TO.P,R1,1*%
%TO.N,/button_units*%
X143688000Y-57836000D03*
D14*
%TO.P,R1,2*%
%TO.N,GND*%
X153848000Y-57836000D03*
%TD*%
D20*
%TO.P,RV1,1,1*%
%TO.N,+5V*%
X159436000Y-88824000D03*
%TO.P,RV1,2,2*%
%TO.N,/temp_sensor*%
X161976000Y-91364000D03*
%TO.P,RV1,3,3*%
%TO.N,GND*%
X164516000Y-88824000D03*
%TD*%
D13*
%TO.P,R4,1*%
%TO.N,/button_light*%
X128448000Y-70536000D03*
D14*
%TO.P,R4,2*%
%TO.N,GND*%
X138608000Y-70536000D03*
%TD*%
D21*
%TO.N,GND*%
X116764000Y-84760000D02*
X116764000Y-71044000D01*
X126416000Y-94412000D02*
X116764000Y-84760000D01*
X137592000Y-94412000D02*
X126416000Y-94412000D01*
X140640000Y-97460000D02*
X137592000Y-94412000D01*
X140640000Y-97460000D02*
X143180000Y-97460000D01*
X164516000Y-84760000D02*
X157404000Y-77648000D01*
X164516000Y-88824000D02*
X164516000Y-84760000D01*
X161993000Y-71061000D02*
X157404000Y-66472000D01*
X161993000Y-73116000D02*
X161993000Y-71061000D01*
X157404000Y-65964000D02*
X157404000Y-77648000D01*
X153340000Y-70536000D02*
X157404000Y-66472000D01*
X157404000Y-66472000D02*
X157404000Y-65964000D01*
X157404000Y-62408000D02*
X157404000Y-65964000D01*
X157404000Y-61392000D02*
X153848000Y-57836000D01*
X157404000Y-62408000D02*
X157404000Y-61392000D01*
X157404000Y-57328000D02*
X157404000Y-62408000D01*
X153444000Y-81608000D02*
X153444000Y-82800000D01*
X157404000Y-77648000D02*
X153444000Y-81608000D01*
X153848000Y-53772000D02*
X157404000Y-57328000D01*
X141148000Y-53772000D02*
X153848000Y-53772000D01*
X141148000Y-66472000D02*
X138608000Y-69012000D01*
X141148000Y-66472000D02*
X141148000Y-77648000D01*
X141148000Y-53772000D02*
X141148000Y-66472000D01*
X138608000Y-69012000D02*
X138608000Y-70536000D01*
X137188000Y-81608000D02*
X137188000Y-82800000D01*
X141148000Y-77648000D02*
X137188000Y-81608000D01*
X136576000Y-51232000D02*
X137084000Y-51740000D01*
X128448000Y-51232000D02*
X136576000Y-51232000D01*
X137084000Y-51740000D02*
X139116000Y-51740000D01*
X139116000Y-51740000D02*
X141148000Y-53772000D01*
X126416000Y-49200000D02*
X128448000Y-51232000D01*
X116764000Y-63932000D02*
X116764000Y-71044000D01*
X126416000Y-54280000D02*
X116764000Y-63932000D01*
X125400000Y-53772000D02*
X121336000Y-53772000D01*
X126416000Y-52756000D02*
X125400000Y-53772000D01*
X126416000Y-52756000D02*
X126416000Y-54280000D01*
X121336000Y-53772000D02*
X119304000Y-55804000D01*
X126416000Y-54280000D02*
X132004000Y-59868000D01*
%TO.N,/I2C_SCL*%
X148260000Y-95428000D02*
X161468000Y-95428000D01*
X161468000Y-95428000D02*
X163500000Y-97460000D01*
X114790000Y-99042000D02*
X148260000Y-99042000D01*
X111684000Y-95936000D02*
X114790000Y-99042000D01*
X111684000Y-71044000D02*
X111684000Y-95936000D01*
X148260000Y-99042000D02*
X148260000Y-95428000D01*
%TO.N,/I2C_SDA*%
X105588000Y-90348000D02*
X100508000Y-95428000D01*
X105588000Y-74600000D02*
X105588000Y-90348000D01*
X105588000Y-74600000D02*
X109144000Y-71044000D01*
X104572000Y-99492000D02*
X100508000Y-95428000D01*
X160960000Y-99492000D02*
X104572000Y-99492000D01*
X160960000Y-97460000D02*
X160960000Y-99492000D01*
%TO.N,/I2C_SCL*%
X118796000Y-53772000D02*
X116764000Y-55804000D01*
X118796000Y-49200000D02*
X118796000Y-53772000D01*
%TO.N,/temp_digital*%
X164008000Y-73601000D02*
X161993000Y-75616000D01*
X164008000Y-53264000D02*
X164008000Y-73601000D01*
X145720000Y-53264000D02*
X164008000Y-53264000D01*
X141656000Y-49200000D02*
X145720000Y-53264000D01*
%TO.N,GND*%
X137188000Y-82800000D02*
X137696000Y-83308000D01*
%TO.N,/button_cal*%
X127028000Y-82733009D02*
X127028000Y-82800000D01*
%TO.N,GND*%
X152936000Y-83308000D02*
X153444000Y-82800000D01*
%TO.N,/button_cal*%
X150800000Y-49200000D02*
X150733009Y-49200000D01*
%TO.N,GND*%
X126416000Y-49200000D02*
X126416000Y-52756000D01*
%TD*%
M02*
