%TF.GenerationSoftware,KiCad,Pcbnew,8.0.8*%
%TF.CreationDate,2025-03-13T23:48:43-06:00*%
%TF.ProjectId,2fib2foib2f,32666962-3266-46f6-9962-32662e6b6963,rev?*%
%TF.SameCoordinates,Original*%
%TF.FileFunction,Legend,Top*%
%TF.FilePolarity,Positive*%
%FSLAX46Y46*%
G04 Gerber Fmt 4.6, Leading zero omitted, Abs format (unit mm)*
G04 Created by KiCad (PCBNEW 8.0.8) date 2025-03-13 23:48:43*
%MOMM*%
%LPD*%
G01*
G04 APERTURE LIST*
%ADD10C,0.150000*%
%ADD11C,0.120000*%
G04 APERTURE END LIST*
D10*
X144935476Y-76643819D02*
X144935476Y-77358104D01*
X144935476Y-77358104D02*
X144887857Y-77500961D01*
X144887857Y-77500961D02*
X144792619Y-77596200D01*
X144792619Y-77596200D02*
X144649762Y-77643819D01*
X144649762Y-77643819D02*
X144554524Y-77643819D01*
X145935476Y-77643819D02*
X145364048Y-77643819D01*
X145649762Y-77643819D02*
X145649762Y-76643819D01*
X145649762Y-76643819D02*
X145554524Y-76786676D01*
X145554524Y-76786676D02*
X145459286Y-76881914D01*
X145459286Y-76881914D02*
X145364048Y-76929533D01*
X146887857Y-77643819D02*
X146316429Y-77643819D01*
X146602143Y-77643819D02*
X146602143Y-76643819D01*
X146602143Y-76643819D02*
X146506905Y-76786676D01*
X146506905Y-76786676D02*
X146411667Y-76881914D01*
X146411667Y-76881914D02*
X146316429Y-76929533D01*
X133266476Y-84728819D02*
X133266476Y-85443104D01*
X133266476Y-85443104D02*
X133218857Y-85585961D01*
X133218857Y-85585961D02*
X133123619Y-85681200D01*
X133123619Y-85681200D02*
X132980762Y-85728819D01*
X132980762Y-85728819D02*
X132885524Y-85728819D01*
X134266476Y-85728819D02*
X133695048Y-85728819D01*
X133980762Y-85728819D02*
X133980762Y-84728819D01*
X133980762Y-84728819D02*
X133885524Y-84871676D01*
X133885524Y-84871676D02*
X133790286Y-84966914D01*
X133790286Y-84966914D02*
X133695048Y-85014533D01*
X134885524Y-84728819D02*
X134980762Y-84728819D01*
X134980762Y-84728819D02*
X135076000Y-84776438D01*
X135076000Y-84776438D02*
X135123619Y-84824057D01*
X135123619Y-84824057D02*
X135171238Y-84919295D01*
X135171238Y-84919295D02*
X135218857Y-85109771D01*
X135218857Y-85109771D02*
X135218857Y-85347866D01*
X135218857Y-85347866D02*
X135171238Y-85538342D01*
X135171238Y-85538342D02*
X135123619Y-85633580D01*
X135123619Y-85633580D02*
X135076000Y-85681200D01*
X135076000Y-85681200D02*
X134980762Y-85728819D01*
X134980762Y-85728819D02*
X134885524Y-85728819D01*
X134885524Y-85728819D02*
X134790286Y-85681200D01*
X134790286Y-85681200D02*
X134742667Y-85633580D01*
X134742667Y-85633580D02*
X134695048Y-85538342D01*
X134695048Y-85538342D02*
X134647429Y-85347866D01*
X134647429Y-85347866D02*
X134647429Y-85109771D01*
X134647429Y-85109771D02*
X134695048Y-84919295D01*
X134695048Y-84919295D02*
X134742667Y-84824057D01*
X134742667Y-84824057D02*
X134790286Y-84776438D01*
X134790286Y-84776438D02*
X134885524Y-84728819D01*
X120407333Y-65388819D02*
X120074000Y-64912628D01*
X119835905Y-65388819D02*
X119835905Y-64388819D01*
X119835905Y-64388819D02*
X120216857Y-64388819D01*
X120216857Y-64388819D02*
X120312095Y-64436438D01*
X120312095Y-64436438D02*
X120359714Y-64484057D01*
X120359714Y-64484057D02*
X120407333Y-64579295D01*
X120407333Y-64579295D02*
X120407333Y-64722152D01*
X120407333Y-64722152D02*
X120359714Y-64817390D01*
X120359714Y-64817390D02*
X120312095Y-64865009D01*
X120312095Y-64865009D02*
X120216857Y-64912628D01*
X120216857Y-64912628D02*
X119835905Y-64912628D01*
X120883524Y-65388819D02*
X121074000Y-65388819D01*
X121074000Y-65388819D02*
X121169238Y-65341200D01*
X121169238Y-65341200D02*
X121216857Y-65293580D01*
X121216857Y-65293580D02*
X121312095Y-65150723D01*
X121312095Y-65150723D02*
X121359714Y-64960247D01*
X121359714Y-64960247D02*
X121359714Y-64579295D01*
X121359714Y-64579295D02*
X121312095Y-64484057D01*
X121312095Y-64484057D02*
X121264476Y-64436438D01*
X121264476Y-64436438D02*
X121169238Y-64388819D01*
X121169238Y-64388819D02*
X120978762Y-64388819D01*
X120978762Y-64388819D02*
X120883524Y-64436438D01*
X120883524Y-64436438D02*
X120835905Y-64484057D01*
X120835905Y-64484057D02*
X120788286Y-64579295D01*
X120788286Y-64579295D02*
X120788286Y-64817390D01*
X120788286Y-64817390D02*
X120835905Y-64912628D01*
X120835905Y-64912628D02*
X120883524Y-64960247D01*
X120883524Y-64960247D02*
X120978762Y-65007866D01*
X120978762Y-65007866D02*
X121169238Y-65007866D01*
X121169238Y-65007866D02*
X121264476Y-64960247D01*
X121264476Y-64960247D02*
X121312095Y-64912628D01*
X121312095Y-64912628D02*
X121359714Y-64817390D01*
X120407333Y-61338819D02*
X120074000Y-60862628D01*
X119835905Y-61338819D02*
X119835905Y-60338819D01*
X119835905Y-60338819D02*
X120216857Y-60338819D01*
X120216857Y-60338819D02*
X120312095Y-60386438D01*
X120312095Y-60386438D02*
X120359714Y-60434057D01*
X120359714Y-60434057D02*
X120407333Y-60529295D01*
X120407333Y-60529295D02*
X120407333Y-60672152D01*
X120407333Y-60672152D02*
X120359714Y-60767390D01*
X120359714Y-60767390D02*
X120312095Y-60815009D01*
X120312095Y-60815009D02*
X120216857Y-60862628D01*
X120216857Y-60862628D02*
X119835905Y-60862628D01*
X120978762Y-60767390D02*
X120883524Y-60719771D01*
X120883524Y-60719771D02*
X120835905Y-60672152D01*
X120835905Y-60672152D02*
X120788286Y-60576914D01*
X120788286Y-60576914D02*
X120788286Y-60529295D01*
X120788286Y-60529295D02*
X120835905Y-60434057D01*
X120835905Y-60434057D02*
X120883524Y-60386438D01*
X120883524Y-60386438D02*
X120978762Y-60338819D01*
X120978762Y-60338819D02*
X121169238Y-60338819D01*
X121169238Y-60338819D02*
X121264476Y-60386438D01*
X121264476Y-60386438D02*
X121312095Y-60434057D01*
X121312095Y-60434057D02*
X121359714Y-60529295D01*
X121359714Y-60529295D02*
X121359714Y-60576914D01*
X121359714Y-60576914D02*
X121312095Y-60672152D01*
X121312095Y-60672152D02*
X121264476Y-60719771D01*
X121264476Y-60719771D02*
X121169238Y-60767390D01*
X121169238Y-60767390D02*
X120978762Y-60767390D01*
X120978762Y-60767390D02*
X120883524Y-60815009D01*
X120883524Y-60815009D02*
X120835905Y-60862628D01*
X120835905Y-60862628D02*
X120788286Y-60957866D01*
X120788286Y-60957866D02*
X120788286Y-61148342D01*
X120788286Y-61148342D02*
X120835905Y-61243580D01*
X120835905Y-61243580D02*
X120883524Y-61291200D01*
X120883524Y-61291200D02*
X120978762Y-61338819D01*
X120978762Y-61338819D02*
X121169238Y-61338819D01*
X121169238Y-61338819D02*
X121264476Y-61291200D01*
X121264476Y-61291200D02*
X121312095Y-61243580D01*
X121312095Y-61243580D02*
X121359714Y-61148342D01*
X121359714Y-61148342D02*
X121359714Y-60957866D01*
X121359714Y-60957866D02*
X121312095Y-60862628D01*
X121312095Y-60862628D02*
X121264476Y-60815009D01*
X121264476Y-60815009D02*
X121169238Y-60767390D01*
X122018666Y-68452819D02*
X122018666Y-69167104D01*
X122018666Y-69167104D02*
X121971047Y-69309961D01*
X121971047Y-69309961D02*
X121875809Y-69405200D01*
X121875809Y-69405200D02*
X121732952Y-69452819D01*
X121732952Y-69452819D02*
X121637714Y-69452819D01*
X122542476Y-69452819D02*
X122732952Y-69452819D01*
X122732952Y-69452819D02*
X122828190Y-69405200D01*
X122828190Y-69405200D02*
X122875809Y-69357580D01*
X122875809Y-69357580D02*
X122971047Y-69214723D01*
X122971047Y-69214723D02*
X123018666Y-69024247D01*
X123018666Y-69024247D02*
X123018666Y-68643295D01*
X123018666Y-68643295D02*
X122971047Y-68548057D01*
X122971047Y-68548057D02*
X122923428Y-68500438D01*
X122923428Y-68500438D02*
X122828190Y-68452819D01*
X122828190Y-68452819D02*
X122637714Y-68452819D01*
X122637714Y-68452819D02*
X122542476Y-68500438D01*
X122542476Y-68500438D02*
X122494857Y-68548057D01*
X122494857Y-68548057D02*
X122447238Y-68643295D01*
X122447238Y-68643295D02*
X122447238Y-68881390D01*
X122447238Y-68881390D02*
X122494857Y-68976628D01*
X122494857Y-68976628D02*
X122542476Y-69024247D01*
X122542476Y-69024247D02*
X122637714Y-69071866D01*
X122637714Y-69071866D02*
X122828190Y-69071866D01*
X122828190Y-69071866D02*
X122923428Y-69024247D01*
X122923428Y-69024247D02*
X122971047Y-68976628D01*
X122971047Y-68976628D02*
X123018666Y-68881390D01*
X114906666Y-68452819D02*
X114906666Y-69167104D01*
X114906666Y-69167104D02*
X114859047Y-69309961D01*
X114859047Y-69309961D02*
X114763809Y-69405200D01*
X114763809Y-69405200D02*
X114620952Y-69452819D01*
X114620952Y-69452819D02*
X114525714Y-69452819D01*
X115525714Y-68881390D02*
X115430476Y-68833771D01*
X115430476Y-68833771D02*
X115382857Y-68786152D01*
X115382857Y-68786152D02*
X115335238Y-68690914D01*
X115335238Y-68690914D02*
X115335238Y-68643295D01*
X115335238Y-68643295D02*
X115382857Y-68548057D01*
X115382857Y-68548057D02*
X115430476Y-68500438D01*
X115430476Y-68500438D02*
X115525714Y-68452819D01*
X115525714Y-68452819D02*
X115716190Y-68452819D01*
X115716190Y-68452819D02*
X115811428Y-68500438D01*
X115811428Y-68500438D02*
X115859047Y-68548057D01*
X115859047Y-68548057D02*
X115906666Y-68643295D01*
X115906666Y-68643295D02*
X115906666Y-68690914D01*
X115906666Y-68690914D02*
X115859047Y-68786152D01*
X115859047Y-68786152D02*
X115811428Y-68833771D01*
X115811428Y-68833771D02*
X115716190Y-68881390D01*
X115716190Y-68881390D02*
X115525714Y-68881390D01*
X115525714Y-68881390D02*
X115430476Y-68929009D01*
X115430476Y-68929009D02*
X115382857Y-68976628D01*
X115382857Y-68976628D02*
X115335238Y-69071866D01*
X115335238Y-69071866D02*
X115335238Y-69262342D01*
X115335238Y-69262342D02*
X115382857Y-69357580D01*
X115382857Y-69357580D02*
X115430476Y-69405200D01*
X115430476Y-69405200D02*
X115525714Y-69452819D01*
X115525714Y-69452819D02*
X115716190Y-69452819D01*
X115716190Y-69452819D02*
X115811428Y-69405200D01*
X115811428Y-69405200D02*
X115859047Y-69357580D01*
X115859047Y-69357580D02*
X115906666Y-69262342D01*
X115906666Y-69262342D02*
X115906666Y-69071866D01*
X115906666Y-69071866D02*
X115859047Y-68976628D01*
X115859047Y-68976628D02*
X115811428Y-68929009D01*
X115811428Y-68929009D02*
X115716190Y-68881390D01*
X105000666Y-66156819D02*
X105000666Y-66871104D01*
X105000666Y-66871104D02*
X104953047Y-67013961D01*
X104953047Y-67013961D02*
X104857809Y-67109200D01*
X104857809Y-67109200D02*
X104714952Y-67156819D01*
X104714952Y-67156819D02*
X104619714Y-67156819D01*
X105905428Y-66156819D02*
X105714952Y-66156819D01*
X105714952Y-66156819D02*
X105619714Y-66204438D01*
X105619714Y-66204438D02*
X105572095Y-66252057D01*
X105572095Y-66252057D02*
X105476857Y-66394914D01*
X105476857Y-66394914D02*
X105429238Y-66585390D01*
X105429238Y-66585390D02*
X105429238Y-66966342D01*
X105429238Y-66966342D02*
X105476857Y-67061580D01*
X105476857Y-67061580D02*
X105524476Y-67109200D01*
X105524476Y-67109200D02*
X105619714Y-67156819D01*
X105619714Y-67156819D02*
X105810190Y-67156819D01*
X105810190Y-67156819D02*
X105905428Y-67109200D01*
X105905428Y-67109200D02*
X105953047Y-67061580D01*
X105953047Y-67061580D02*
X106000666Y-66966342D01*
X106000666Y-66966342D02*
X106000666Y-66728247D01*
X106000666Y-66728247D02*
X105953047Y-66633009D01*
X105953047Y-66633009D02*
X105905428Y-66585390D01*
X105905428Y-66585390D02*
X105810190Y-66537771D01*
X105810190Y-66537771D02*
X105619714Y-66537771D01*
X105619714Y-66537771D02*
X105524476Y-66585390D01*
X105524476Y-66585390D02*
X105476857Y-66633009D01*
X105476857Y-66633009D02*
X105429238Y-66728247D01*
X102766666Y-68744819D02*
X102766666Y-69459104D01*
X102766666Y-69459104D02*
X102719047Y-69601961D01*
X102719047Y-69601961D02*
X102623809Y-69697200D01*
X102623809Y-69697200D02*
X102480952Y-69744819D01*
X102480952Y-69744819D02*
X102385714Y-69744819D01*
X103147619Y-68744819D02*
X103814285Y-68744819D01*
X103814285Y-68744819D02*
X103385714Y-69744819D01*
X109993333Y-78780819D02*
X109660000Y-78304628D01*
X109421905Y-78780819D02*
X109421905Y-77780819D01*
X109421905Y-77780819D02*
X109802857Y-77780819D01*
X109802857Y-77780819D02*
X109898095Y-77828438D01*
X109898095Y-77828438D02*
X109945714Y-77876057D01*
X109945714Y-77876057D02*
X109993333Y-77971295D01*
X109993333Y-77971295D02*
X109993333Y-78114152D01*
X109993333Y-78114152D02*
X109945714Y-78209390D01*
X109945714Y-78209390D02*
X109898095Y-78257009D01*
X109898095Y-78257009D02*
X109802857Y-78304628D01*
X109802857Y-78304628D02*
X109421905Y-78304628D01*
X110326667Y-77780819D02*
X110993333Y-77780819D01*
X110993333Y-77780819D02*
X110564762Y-78780819D01*
X109993333Y-74730819D02*
X109660000Y-74254628D01*
X109421905Y-74730819D02*
X109421905Y-73730819D01*
X109421905Y-73730819D02*
X109802857Y-73730819D01*
X109802857Y-73730819D02*
X109898095Y-73778438D01*
X109898095Y-73778438D02*
X109945714Y-73826057D01*
X109945714Y-73826057D02*
X109993333Y-73921295D01*
X109993333Y-73921295D02*
X109993333Y-74064152D01*
X109993333Y-74064152D02*
X109945714Y-74159390D01*
X109945714Y-74159390D02*
X109898095Y-74207009D01*
X109898095Y-74207009D02*
X109802857Y-74254628D01*
X109802857Y-74254628D02*
X109421905Y-74254628D01*
X110850476Y-73730819D02*
X110660000Y-73730819D01*
X110660000Y-73730819D02*
X110564762Y-73778438D01*
X110564762Y-73778438D02*
X110517143Y-73826057D01*
X110517143Y-73826057D02*
X110421905Y-73968914D01*
X110421905Y-73968914D02*
X110374286Y-74159390D01*
X110374286Y-74159390D02*
X110374286Y-74540342D01*
X110374286Y-74540342D02*
X110421905Y-74635580D01*
X110421905Y-74635580D02*
X110469524Y-74683200D01*
X110469524Y-74683200D02*
X110564762Y-74730819D01*
X110564762Y-74730819D02*
X110755238Y-74730819D01*
X110755238Y-74730819D02*
X110850476Y-74683200D01*
X110850476Y-74683200D02*
X110898095Y-74635580D01*
X110898095Y-74635580D02*
X110945714Y-74540342D01*
X110945714Y-74540342D02*
X110945714Y-74302247D01*
X110945714Y-74302247D02*
X110898095Y-74207009D01*
X110898095Y-74207009D02*
X110850476Y-74159390D01*
X110850476Y-74159390D02*
X110755238Y-74111771D01*
X110755238Y-74111771D02*
X110564762Y-74111771D01*
X110564762Y-74111771D02*
X110469524Y-74159390D01*
X110469524Y-74159390D02*
X110421905Y-74207009D01*
X110421905Y-74207009D02*
X110374286Y-74302247D01*
X143752819Y-61558666D02*
X143276628Y-61891999D01*
X143752819Y-62130094D02*
X142752819Y-62130094D01*
X142752819Y-62130094D02*
X142752819Y-61749142D01*
X142752819Y-61749142D02*
X142800438Y-61653904D01*
X142800438Y-61653904D02*
X142848057Y-61606285D01*
X142848057Y-61606285D02*
X142943295Y-61558666D01*
X142943295Y-61558666D02*
X143086152Y-61558666D01*
X143086152Y-61558666D02*
X143181390Y-61606285D01*
X143181390Y-61606285D02*
X143229009Y-61653904D01*
X143229009Y-61653904D02*
X143276628Y-61749142D01*
X143276628Y-61749142D02*
X143276628Y-62130094D01*
X142848057Y-61177713D02*
X142800438Y-61130094D01*
X142800438Y-61130094D02*
X142752819Y-61034856D01*
X142752819Y-61034856D02*
X142752819Y-60796761D01*
X142752819Y-60796761D02*
X142800438Y-60701523D01*
X142800438Y-60701523D02*
X142848057Y-60653904D01*
X142848057Y-60653904D02*
X142943295Y-60606285D01*
X142943295Y-60606285D02*
X143038533Y-60606285D01*
X143038533Y-60606285D02*
X143181390Y-60653904D01*
X143181390Y-60653904D02*
X143752819Y-61225332D01*
X143752819Y-61225332D02*
X143752819Y-60606285D01*
X148412819Y-72178762D02*
X147936628Y-72512095D01*
X148412819Y-72750190D02*
X147412819Y-72750190D01*
X147412819Y-72750190D02*
X147412819Y-72369238D01*
X147412819Y-72369238D02*
X147460438Y-72274000D01*
X147460438Y-72274000D02*
X147508057Y-72226381D01*
X147508057Y-72226381D02*
X147603295Y-72178762D01*
X147603295Y-72178762D02*
X147746152Y-72178762D01*
X147746152Y-72178762D02*
X147841390Y-72226381D01*
X147841390Y-72226381D02*
X147889009Y-72274000D01*
X147889009Y-72274000D02*
X147936628Y-72369238D01*
X147936628Y-72369238D02*
X147936628Y-72750190D01*
X148365200Y-71369238D02*
X148412819Y-71464476D01*
X148412819Y-71464476D02*
X148412819Y-71654952D01*
X148412819Y-71654952D02*
X148365200Y-71750190D01*
X148365200Y-71750190D02*
X148269961Y-71797809D01*
X148269961Y-71797809D02*
X147889009Y-71797809D01*
X147889009Y-71797809D02*
X147793771Y-71750190D01*
X147793771Y-71750190D02*
X147746152Y-71654952D01*
X147746152Y-71654952D02*
X147746152Y-71464476D01*
X147746152Y-71464476D02*
X147793771Y-71369238D01*
X147793771Y-71369238D02*
X147889009Y-71321619D01*
X147889009Y-71321619D02*
X147984247Y-71321619D01*
X147984247Y-71321619D02*
X148079485Y-71797809D01*
X148412819Y-70464476D02*
X147412819Y-70464476D01*
X148365200Y-70464476D02*
X148412819Y-70559714D01*
X148412819Y-70559714D02*
X148412819Y-70750190D01*
X148412819Y-70750190D02*
X148365200Y-70845428D01*
X148365200Y-70845428D02*
X148317580Y-70893047D01*
X148317580Y-70893047D02*
X148222342Y-70940666D01*
X148222342Y-70940666D02*
X147936628Y-70940666D01*
X147936628Y-70940666D02*
X147841390Y-70893047D01*
X147841390Y-70893047D02*
X147793771Y-70845428D01*
X147793771Y-70845428D02*
X147746152Y-70750190D01*
X147746152Y-70750190D02*
X147746152Y-70559714D01*
X147746152Y-70559714D02*
X147793771Y-70464476D01*
X148412819Y-69512095D02*
X148412819Y-69988285D01*
X148412819Y-69988285D02*
X147412819Y-69988285D01*
X147889009Y-69178761D02*
X147889009Y-68845428D01*
X148412819Y-68702571D02*
X148412819Y-69178761D01*
X148412819Y-69178761D02*
X147412819Y-69178761D01*
X147412819Y-69178761D02*
X147412819Y-68702571D01*
X148412819Y-68273999D02*
X147412819Y-68273999D01*
X147412819Y-68273999D02*
X147412819Y-68035904D01*
X147412819Y-68035904D02*
X147460438Y-67893047D01*
X147460438Y-67893047D02*
X147555676Y-67797809D01*
X147555676Y-67797809D02*
X147650914Y-67750190D01*
X147650914Y-67750190D02*
X147841390Y-67702571D01*
X147841390Y-67702571D02*
X147984247Y-67702571D01*
X147984247Y-67702571D02*
X148174723Y-67750190D01*
X148174723Y-67750190D02*
X148269961Y-67797809D01*
X148269961Y-67797809D02*
X148365200Y-67893047D01*
X148365200Y-67893047D02*
X148412819Y-68035904D01*
X148412819Y-68035904D02*
X148412819Y-68273999D01*
X148412819Y-66750190D02*
X148412819Y-67321618D01*
X148412819Y-67035904D02*
X147412819Y-67035904D01*
X147412819Y-67035904D02*
X147555676Y-67131142D01*
X147555676Y-67131142D02*
X147650914Y-67226380D01*
X147650914Y-67226380D02*
X147698533Y-67321618D01*
X139722819Y-61610666D02*
X139246628Y-61943999D01*
X139722819Y-62182094D02*
X138722819Y-62182094D01*
X138722819Y-62182094D02*
X138722819Y-61801142D01*
X138722819Y-61801142D02*
X138770438Y-61705904D01*
X138770438Y-61705904D02*
X138818057Y-61658285D01*
X138818057Y-61658285D02*
X138913295Y-61610666D01*
X138913295Y-61610666D02*
X139056152Y-61610666D01*
X139056152Y-61610666D02*
X139151390Y-61658285D01*
X139151390Y-61658285D02*
X139199009Y-61705904D01*
X139199009Y-61705904D02*
X139246628Y-61801142D01*
X139246628Y-61801142D02*
X139246628Y-62182094D01*
X139722819Y-60658285D02*
X139722819Y-61229713D01*
X139722819Y-60943999D02*
X138722819Y-60943999D01*
X138722819Y-60943999D02*
X138865676Y-61039237D01*
X138865676Y-61039237D02*
X138960914Y-61134475D01*
X138960914Y-61134475D02*
X139008533Y-61229713D01*
X141990438Y-72964476D02*
X141942819Y-73059714D01*
X141942819Y-73059714D02*
X141942819Y-73202571D01*
X141942819Y-73202571D02*
X141990438Y-73345428D01*
X141990438Y-73345428D02*
X142085676Y-73440666D01*
X142085676Y-73440666D02*
X142180914Y-73488285D01*
X142180914Y-73488285D02*
X142371390Y-73535904D01*
X142371390Y-73535904D02*
X142514247Y-73535904D01*
X142514247Y-73535904D02*
X142704723Y-73488285D01*
X142704723Y-73488285D02*
X142799961Y-73440666D01*
X142799961Y-73440666D02*
X142895200Y-73345428D01*
X142895200Y-73345428D02*
X142942819Y-73202571D01*
X142942819Y-73202571D02*
X142942819Y-73107333D01*
X142942819Y-73107333D02*
X142895200Y-72964476D01*
X142895200Y-72964476D02*
X142847580Y-72916857D01*
X142847580Y-72916857D02*
X142514247Y-72916857D01*
X142514247Y-72916857D02*
X142514247Y-73107333D01*
X142942819Y-72488285D02*
X142276152Y-72488285D01*
X142466628Y-72488285D02*
X142371390Y-72440666D01*
X142371390Y-72440666D02*
X142323771Y-72393047D01*
X142323771Y-72393047D02*
X142276152Y-72297809D01*
X142276152Y-72297809D02*
X142276152Y-72202571D01*
X142895200Y-71488285D02*
X142942819Y-71583523D01*
X142942819Y-71583523D02*
X142942819Y-71773999D01*
X142942819Y-71773999D02*
X142895200Y-71869237D01*
X142895200Y-71869237D02*
X142799961Y-71916856D01*
X142799961Y-71916856D02*
X142419009Y-71916856D01*
X142419009Y-71916856D02*
X142323771Y-71869237D01*
X142323771Y-71869237D02*
X142276152Y-71773999D01*
X142276152Y-71773999D02*
X142276152Y-71583523D01*
X142276152Y-71583523D02*
X142323771Y-71488285D01*
X142323771Y-71488285D02*
X142419009Y-71440666D01*
X142419009Y-71440666D02*
X142514247Y-71440666D01*
X142514247Y-71440666D02*
X142609485Y-71916856D01*
X142895200Y-70631142D02*
X142942819Y-70726380D01*
X142942819Y-70726380D02*
X142942819Y-70916856D01*
X142942819Y-70916856D02*
X142895200Y-71012094D01*
X142895200Y-71012094D02*
X142799961Y-71059713D01*
X142799961Y-71059713D02*
X142419009Y-71059713D01*
X142419009Y-71059713D02*
X142323771Y-71012094D01*
X142323771Y-71012094D02*
X142276152Y-70916856D01*
X142276152Y-70916856D02*
X142276152Y-70726380D01*
X142276152Y-70726380D02*
X142323771Y-70631142D01*
X142323771Y-70631142D02*
X142419009Y-70583523D01*
X142419009Y-70583523D02*
X142514247Y-70583523D01*
X142514247Y-70583523D02*
X142609485Y-71059713D01*
X142276152Y-70154951D02*
X142942819Y-70154951D01*
X142371390Y-70154951D02*
X142323771Y-70107332D01*
X142323771Y-70107332D02*
X142276152Y-70012094D01*
X142276152Y-70012094D02*
X142276152Y-69869237D01*
X142276152Y-69869237D02*
X142323771Y-69773999D01*
X142323771Y-69773999D02*
X142419009Y-69726380D01*
X142419009Y-69726380D02*
X142942819Y-69726380D01*
X142942819Y-68773999D02*
X142942819Y-69250189D01*
X142942819Y-69250189D02*
X141942819Y-69250189D01*
X142419009Y-68440665D02*
X142419009Y-68107332D01*
X142942819Y-67964475D02*
X142942819Y-68440665D01*
X142942819Y-68440665D02*
X141942819Y-68440665D01*
X141942819Y-68440665D02*
X141942819Y-67964475D01*
X142942819Y-67535903D02*
X141942819Y-67535903D01*
X141942819Y-67535903D02*
X141942819Y-67297808D01*
X141942819Y-67297808D02*
X141990438Y-67154951D01*
X141990438Y-67154951D02*
X142085676Y-67059713D01*
X142085676Y-67059713D02*
X142180914Y-67012094D01*
X142180914Y-67012094D02*
X142371390Y-66964475D01*
X142371390Y-66964475D02*
X142514247Y-66964475D01*
X142514247Y-66964475D02*
X142704723Y-67012094D01*
X142704723Y-67012094D02*
X142799961Y-67059713D01*
X142799961Y-67059713D02*
X142895200Y-67154951D01*
X142895200Y-67154951D02*
X142942819Y-67297808D01*
X142942819Y-67297808D02*
X142942819Y-67535903D01*
X142942819Y-66012094D02*
X142942819Y-66583522D01*
X142942819Y-66297808D02*
X141942819Y-66297808D01*
X141942819Y-66297808D02*
X142085676Y-66393046D01*
X142085676Y-66393046D02*
X142180914Y-66488284D01*
X142180914Y-66488284D02*
X142228533Y-66583522D01*
X155944819Y-61812666D02*
X155468628Y-62145999D01*
X155944819Y-62384094D02*
X154944819Y-62384094D01*
X154944819Y-62384094D02*
X154944819Y-62003142D01*
X154944819Y-62003142D02*
X154992438Y-61907904D01*
X154992438Y-61907904D02*
X155040057Y-61860285D01*
X155040057Y-61860285D02*
X155135295Y-61812666D01*
X155135295Y-61812666D02*
X155278152Y-61812666D01*
X155278152Y-61812666D02*
X155373390Y-61860285D01*
X155373390Y-61860285D02*
X155421009Y-61907904D01*
X155421009Y-61907904D02*
X155468628Y-62003142D01*
X155468628Y-62003142D02*
X155468628Y-62384094D01*
X154944819Y-60907904D02*
X154944819Y-61384094D01*
X154944819Y-61384094D02*
X155421009Y-61431713D01*
X155421009Y-61431713D02*
X155373390Y-61384094D01*
X155373390Y-61384094D02*
X155325771Y-61288856D01*
X155325771Y-61288856D02*
X155325771Y-61050761D01*
X155325771Y-61050761D02*
X155373390Y-60955523D01*
X155373390Y-60955523D02*
X155421009Y-60907904D01*
X155421009Y-60907904D02*
X155516247Y-60860285D01*
X155516247Y-60860285D02*
X155754342Y-60860285D01*
X155754342Y-60860285D02*
X155849580Y-60907904D01*
X155849580Y-60907904D02*
X155897200Y-60955523D01*
X155897200Y-60955523D02*
X155944819Y-61050761D01*
X155944819Y-61050761D02*
X155944819Y-61288856D01*
X155944819Y-61288856D02*
X155897200Y-61384094D01*
X155897200Y-61384094D02*
X155849580Y-61431713D01*
X151872819Y-61610666D02*
X151396628Y-61943999D01*
X151872819Y-62182094D02*
X150872819Y-62182094D01*
X150872819Y-62182094D02*
X150872819Y-61801142D01*
X150872819Y-61801142D02*
X150920438Y-61705904D01*
X150920438Y-61705904D02*
X150968057Y-61658285D01*
X150968057Y-61658285D02*
X151063295Y-61610666D01*
X151063295Y-61610666D02*
X151206152Y-61610666D01*
X151206152Y-61610666D02*
X151301390Y-61658285D01*
X151301390Y-61658285D02*
X151349009Y-61705904D01*
X151349009Y-61705904D02*
X151396628Y-61801142D01*
X151396628Y-61801142D02*
X151396628Y-62182094D01*
X151206152Y-60753523D02*
X151872819Y-60753523D01*
X150825200Y-60991618D02*
X151539485Y-61229713D01*
X151539485Y-61229713D02*
X151539485Y-60610666D01*
X147822819Y-61610666D02*
X147346628Y-61943999D01*
X147822819Y-62182094D02*
X146822819Y-62182094D01*
X146822819Y-62182094D02*
X146822819Y-61801142D01*
X146822819Y-61801142D02*
X146870438Y-61705904D01*
X146870438Y-61705904D02*
X146918057Y-61658285D01*
X146918057Y-61658285D02*
X147013295Y-61610666D01*
X147013295Y-61610666D02*
X147156152Y-61610666D01*
X147156152Y-61610666D02*
X147251390Y-61658285D01*
X147251390Y-61658285D02*
X147299009Y-61705904D01*
X147299009Y-61705904D02*
X147346628Y-61801142D01*
X147346628Y-61801142D02*
X147346628Y-62182094D01*
X146822819Y-61277332D02*
X146822819Y-60658285D01*
X146822819Y-60658285D02*
X147203771Y-60991618D01*
X147203771Y-60991618D02*
X147203771Y-60848761D01*
X147203771Y-60848761D02*
X147251390Y-60753523D01*
X147251390Y-60753523D02*
X147299009Y-60705904D01*
X147299009Y-60705904D02*
X147394247Y-60658285D01*
X147394247Y-60658285D02*
X147632342Y-60658285D01*
X147632342Y-60658285D02*
X147727580Y-60705904D01*
X147727580Y-60705904D02*
X147775200Y-60753523D01*
X147775200Y-60753523D02*
X147822819Y-60848761D01*
X147822819Y-60848761D02*
X147822819Y-61134475D01*
X147822819Y-61134475D02*
X147775200Y-61229713D01*
X147775200Y-61229713D02*
X147727580Y-61277332D01*
X136949009Y-72678762D02*
X136996628Y-72535905D01*
X136996628Y-72535905D02*
X137044247Y-72488286D01*
X137044247Y-72488286D02*
X137139485Y-72440667D01*
X137139485Y-72440667D02*
X137282342Y-72440667D01*
X137282342Y-72440667D02*
X137377580Y-72488286D01*
X137377580Y-72488286D02*
X137425200Y-72535905D01*
X137425200Y-72535905D02*
X137472819Y-72631143D01*
X137472819Y-72631143D02*
X137472819Y-73012095D01*
X137472819Y-73012095D02*
X136472819Y-73012095D01*
X136472819Y-73012095D02*
X136472819Y-72678762D01*
X136472819Y-72678762D02*
X136520438Y-72583524D01*
X136520438Y-72583524D02*
X136568057Y-72535905D01*
X136568057Y-72535905D02*
X136663295Y-72488286D01*
X136663295Y-72488286D02*
X136758533Y-72488286D01*
X136758533Y-72488286D02*
X136853771Y-72535905D01*
X136853771Y-72535905D02*
X136901390Y-72583524D01*
X136901390Y-72583524D02*
X136949009Y-72678762D01*
X136949009Y-72678762D02*
X136949009Y-73012095D01*
X137472819Y-71869238D02*
X137425200Y-71964476D01*
X137425200Y-71964476D02*
X137329961Y-72012095D01*
X137329961Y-72012095D02*
X136472819Y-72012095D01*
X136806152Y-71059714D02*
X137472819Y-71059714D01*
X136806152Y-71488285D02*
X137329961Y-71488285D01*
X137329961Y-71488285D02*
X137425200Y-71440666D01*
X137425200Y-71440666D02*
X137472819Y-71345428D01*
X137472819Y-71345428D02*
X137472819Y-71202571D01*
X137472819Y-71202571D02*
X137425200Y-71107333D01*
X137425200Y-71107333D02*
X137377580Y-71059714D01*
X137425200Y-70202571D02*
X137472819Y-70297809D01*
X137472819Y-70297809D02*
X137472819Y-70488285D01*
X137472819Y-70488285D02*
X137425200Y-70583523D01*
X137425200Y-70583523D02*
X137329961Y-70631142D01*
X137329961Y-70631142D02*
X136949009Y-70631142D01*
X136949009Y-70631142D02*
X136853771Y-70583523D01*
X136853771Y-70583523D02*
X136806152Y-70488285D01*
X136806152Y-70488285D02*
X136806152Y-70297809D01*
X136806152Y-70297809D02*
X136853771Y-70202571D01*
X136853771Y-70202571D02*
X136949009Y-70154952D01*
X136949009Y-70154952D02*
X137044247Y-70154952D01*
X137044247Y-70154952D02*
X137139485Y-70631142D01*
X137472819Y-69250190D02*
X137472819Y-69726380D01*
X137472819Y-69726380D02*
X136472819Y-69726380D01*
X136949009Y-68916856D02*
X136949009Y-68583523D01*
X137472819Y-68440666D02*
X137472819Y-68916856D01*
X137472819Y-68916856D02*
X136472819Y-68916856D01*
X136472819Y-68916856D02*
X136472819Y-68440666D01*
X137472819Y-68012094D02*
X136472819Y-68012094D01*
X136472819Y-68012094D02*
X136472819Y-67773999D01*
X136472819Y-67773999D02*
X136520438Y-67631142D01*
X136520438Y-67631142D02*
X136615676Y-67535904D01*
X136615676Y-67535904D02*
X136710914Y-67488285D01*
X136710914Y-67488285D02*
X136901390Y-67440666D01*
X136901390Y-67440666D02*
X137044247Y-67440666D01*
X137044247Y-67440666D02*
X137234723Y-67488285D01*
X137234723Y-67488285D02*
X137329961Y-67535904D01*
X137329961Y-67535904D02*
X137425200Y-67631142D01*
X137425200Y-67631142D02*
X137472819Y-67773999D01*
X137472819Y-67773999D02*
X137472819Y-68012094D01*
X137472819Y-66488285D02*
X137472819Y-67059713D01*
X137472819Y-66773999D02*
X136472819Y-66773999D01*
X136472819Y-66773999D02*
X136615676Y-66869237D01*
X136615676Y-66869237D02*
X136710914Y-66964475D01*
X136710914Y-66964475D02*
X136758533Y-67059713D01*
X160236666Y-52488819D02*
X160236666Y-53203104D01*
X160236666Y-53203104D02*
X160189047Y-53345961D01*
X160189047Y-53345961D02*
X160093809Y-53441200D01*
X160093809Y-53441200D02*
X159950952Y-53488819D01*
X159950952Y-53488819D02*
X159855714Y-53488819D01*
X161189047Y-52488819D02*
X160712857Y-52488819D01*
X160712857Y-52488819D02*
X160665238Y-52965009D01*
X160665238Y-52965009D02*
X160712857Y-52917390D01*
X160712857Y-52917390D02*
X160808095Y-52869771D01*
X160808095Y-52869771D02*
X161046190Y-52869771D01*
X161046190Y-52869771D02*
X161141428Y-52917390D01*
X161141428Y-52917390D02*
X161189047Y-52965009D01*
X161189047Y-52965009D02*
X161236666Y-53060247D01*
X161236666Y-53060247D02*
X161236666Y-53298342D01*
X161236666Y-53298342D02*
X161189047Y-53393580D01*
X161189047Y-53393580D02*
X161141428Y-53441200D01*
X161141428Y-53441200D02*
X161046190Y-53488819D01*
X161046190Y-53488819D02*
X160808095Y-53488819D01*
X160808095Y-53488819D02*
X160712857Y-53441200D01*
X160712857Y-53441200D02*
X160665238Y-53393580D01*
X153406628Y-73535905D02*
X153882819Y-73535905D01*
X152882819Y-73869238D02*
X153406628Y-73535905D01*
X153406628Y-73535905D02*
X152882819Y-73202572D01*
X153835200Y-72488286D02*
X153882819Y-72583524D01*
X153882819Y-72583524D02*
X153882819Y-72774000D01*
X153882819Y-72774000D02*
X153835200Y-72869238D01*
X153835200Y-72869238D02*
X153739961Y-72916857D01*
X153739961Y-72916857D02*
X153359009Y-72916857D01*
X153359009Y-72916857D02*
X153263771Y-72869238D01*
X153263771Y-72869238D02*
X153216152Y-72774000D01*
X153216152Y-72774000D02*
X153216152Y-72583524D01*
X153216152Y-72583524D02*
X153263771Y-72488286D01*
X153263771Y-72488286D02*
X153359009Y-72440667D01*
X153359009Y-72440667D02*
X153454247Y-72440667D01*
X153454247Y-72440667D02*
X153549485Y-72916857D01*
X153882819Y-71869238D02*
X153835200Y-71964476D01*
X153835200Y-71964476D02*
X153739961Y-72012095D01*
X153739961Y-72012095D02*
X152882819Y-72012095D01*
X153882819Y-71345428D02*
X153835200Y-71440666D01*
X153835200Y-71440666D02*
X153739961Y-71488285D01*
X153739961Y-71488285D02*
X152882819Y-71488285D01*
X153882819Y-70821618D02*
X153835200Y-70916856D01*
X153835200Y-70916856D02*
X153787580Y-70964475D01*
X153787580Y-70964475D02*
X153692342Y-71012094D01*
X153692342Y-71012094D02*
X153406628Y-71012094D01*
X153406628Y-71012094D02*
X153311390Y-70964475D01*
X153311390Y-70964475D02*
X153263771Y-70916856D01*
X153263771Y-70916856D02*
X153216152Y-70821618D01*
X153216152Y-70821618D02*
X153216152Y-70678761D01*
X153216152Y-70678761D02*
X153263771Y-70583523D01*
X153263771Y-70583523D02*
X153311390Y-70535904D01*
X153311390Y-70535904D02*
X153406628Y-70488285D01*
X153406628Y-70488285D02*
X153692342Y-70488285D01*
X153692342Y-70488285D02*
X153787580Y-70535904D01*
X153787580Y-70535904D02*
X153835200Y-70583523D01*
X153835200Y-70583523D02*
X153882819Y-70678761D01*
X153882819Y-70678761D02*
X153882819Y-70821618D01*
X153216152Y-70154951D02*
X153882819Y-69964475D01*
X153882819Y-69964475D02*
X153406628Y-69773999D01*
X153406628Y-69773999D02*
X153882819Y-69583523D01*
X153882819Y-69583523D02*
X153216152Y-69393047D01*
X153882819Y-68535904D02*
X153882819Y-69012094D01*
X153882819Y-69012094D02*
X152882819Y-69012094D01*
X153359009Y-68202570D02*
X153359009Y-67869237D01*
X153882819Y-67726380D02*
X153882819Y-68202570D01*
X153882819Y-68202570D02*
X152882819Y-68202570D01*
X152882819Y-68202570D02*
X152882819Y-67726380D01*
X153882819Y-67297808D02*
X152882819Y-67297808D01*
X152882819Y-67297808D02*
X152882819Y-67059713D01*
X152882819Y-67059713D02*
X152930438Y-66916856D01*
X152930438Y-66916856D02*
X153025676Y-66821618D01*
X153025676Y-66821618D02*
X153120914Y-66773999D01*
X153120914Y-66773999D02*
X153311390Y-66726380D01*
X153311390Y-66726380D02*
X153454247Y-66726380D01*
X153454247Y-66726380D02*
X153644723Y-66773999D01*
X153644723Y-66773999D02*
X153739961Y-66821618D01*
X153739961Y-66821618D02*
X153835200Y-66916856D01*
X153835200Y-66916856D02*
X153882819Y-67059713D01*
X153882819Y-67059713D02*
X153882819Y-67297808D01*
X153882819Y-65773999D02*
X153882819Y-66345427D01*
X153882819Y-66059713D02*
X152882819Y-66059713D01*
X152882819Y-66059713D02*
X153025676Y-66154951D01*
X153025676Y-66154951D02*
X153120914Y-66250189D01*
X153120914Y-66250189D02*
X153168533Y-66345427D01*
D11*
%TO.C,J11*%
X144415000Y-81229000D02*
X144415000Y-93989000D01*
X144415000Y-81229000D02*
X147075000Y-81229000D01*
X144415000Y-93989000D02*
X147075000Y-93989000D01*
X145745000Y-78629000D02*
X147075000Y-78629000D01*
X147075000Y-78629000D02*
X147075000Y-79959000D01*
X147075000Y-81229000D02*
X147075000Y-93989000D01*
%TO.C,J10*%
X128726000Y-86074000D02*
X128726000Y-87324000D01*
X129016000Y-86364000D02*
X129016000Y-92334000D01*
X129016000Y-92334000D02*
X139136000Y-92334000D01*
X129026000Y-86374000D02*
X129026000Y-87124000D01*
X129026000Y-87124000D02*
X130826000Y-87124000D01*
X129026000Y-88624000D02*
X129776000Y-88624000D01*
X129776000Y-88624000D02*
X129776000Y-91574000D01*
X129776000Y-91574000D02*
X134076000Y-91574000D01*
X129976000Y-86074000D02*
X128726000Y-86074000D01*
X130826000Y-86374000D02*
X129026000Y-86374000D01*
X130826000Y-87124000D02*
X130826000Y-86374000D01*
X132326000Y-86374000D02*
X132326000Y-87124000D01*
X132326000Y-87124000D02*
X135826000Y-87124000D01*
X135826000Y-86374000D02*
X132326000Y-86374000D01*
X135826000Y-87124000D02*
X135826000Y-86374000D01*
X137326000Y-86374000D02*
X137326000Y-87124000D01*
X137326000Y-87124000D02*
X139126000Y-87124000D01*
X138376000Y-88624000D02*
X138376000Y-91574000D01*
X138376000Y-91574000D02*
X134076000Y-91574000D01*
X139126000Y-86374000D02*
X137326000Y-86374000D01*
X139126000Y-87124000D02*
X139126000Y-86374000D01*
X139126000Y-88624000D02*
X138376000Y-88624000D01*
X139136000Y-86364000D02*
X129016000Y-86364000D01*
X139136000Y-92334000D02*
X139136000Y-86364000D01*
%TO.C,R9*%
X117304000Y-63564000D02*
X123844000Y-63564000D01*
X117304000Y-63894000D02*
X117304000Y-63564000D01*
X117304000Y-65974000D02*
X117304000Y-66304000D01*
X117304000Y-66304000D02*
X123844000Y-66304000D01*
X123844000Y-63564000D02*
X123844000Y-63894000D01*
X123844000Y-66304000D02*
X123844000Y-65974000D01*
%TO.C,R8*%
X117304000Y-59514000D02*
X123844000Y-59514000D01*
X117304000Y-59844000D02*
X117304000Y-59514000D01*
X117304000Y-61924000D02*
X117304000Y-62254000D01*
X117304000Y-62254000D02*
X123844000Y-62254000D01*
X123844000Y-59514000D02*
X123844000Y-59844000D01*
X123844000Y-62254000D02*
X123844000Y-61924000D01*
%TO.C,J9*%
X119519000Y-67799000D02*
X120214000Y-67799000D01*
X119519000Y-68484000D02*
X119519000Y-67799000D01*
X119519000Y-69169000D02*
X119519000Y-70044000D01*
X119519000Y-69169000D02*
X119605724Y-69169000D01*
X119519000Y-70044000D02*
X119819507Y-70044000D01*
X120608493Y-70044000D02*
X120909000Y-70044000D01*
X120822276Y-69169000D02*
X120909000Y-69169000D01*
X120909000Y-69169000D02*
X120909000Y-70044000D01*
%TO.C,J8*%
X116169000Y-67799000D02*
X116864000Y-67799000D01*
X116169000Y-68484000D02*
X116169000Y-67799000D01*
X116169000Y-69169000D02*
X116169000Y-70044000D01*
X116169000Y-69169000D02*
X116255724Y-69169000D01*
X116169000Y-70044000D02*
X116469507Y-70044000D01*
X117258493Y-70044000D02*
X117559000Y-70044000D01*
X117472276Y-69169000D02*
X117559000Y-69169000D01*
X117559000Y-69169000D02*
X117559000Y-70044000D01*
%TO.C,J6*%
X107934000Y-65262000D02*
X107934000Y-57522000D01*
X107934000Y-65262000D02*
X105334000Y-65262000D01*
X107934000Y-57522000D02*
X102734000Y-57522000D01*
X105334000Y-65262000D02*
X105334000Y-62662000D01*
X105334000Y-62662000D02*
X102734000Y-62662000D01*
X104064000Y-65262000D02*
X102734000Y-65262000D01*
X102734000Y-65262000D02*
X102734000Y-63932000D01*
X102734000Y-62662000D02*
X102734000Y-57522000D01*
%TO.C,J7*%
X101770000Y-73330000D02*
X101770000Y-88630000D01*
X101770000Y-73330000D02*
X104430000Y-73330000D01*
X101770000Y-88630000D02*
X104430000Y-88630000D01*
X103100000Y-70730000D02*
X104430000Y-70730000D01*
X104430000Y-70730000D02*
X104430000Y-72060000D01*
X104430000Y-73330000D02*
X104430000Y-88630000D01*
%TO.C,R7*%
X113430000Y-82066000D02*
X113430000Y-81736000D01*
X113430000Y-79326000D02*
X113430000Y-79656000D01*
X106890000Y-82066000D02*
X113430000Y-82066000D01*
X106890000Y-81736000D02*
X106890000Y-82066000D01*
X106890000Y-79656000D02*
X106890000Y-79326000D01*
X106890000Y-79326000D02*
X113430000Y-79326000D01*
%TO.C,R6*%
X113430000Y-78016000D02*
X113430000Y-77686000D01*
X113430000Y-75276000D02*
X113430000Y-75606000D01*
X106890000Y-78016000D02*
X113430000Y-78016000D01*
X106890000Y-77686000D02*
X106890000Y-78016000D01*
X106890000Y-75606000D02*
X106890000Y-75276000D01*
X106890000Y-75276000D02*
X113430000Y-75276000D01*
%TO.C,J1*%
X126610000Y-96130000D02*
X127940000Y-96130000D01*
X126610000Y-97460000D02*
X126610000Y-96130000D01*
X129210000Y-96130000D02*
X147050000Y-96130000D01*
X129210000Y-98790000D02*
X129210000Y-96130000D01*
X129210000Y-98790000D02*
X147050000Y-98790000D01*
X147050000Y-98790000D02*
X147050000Y-96130000D01*
%TO.C,J3*%
X149470000Y-96130000D02*
X150800000Y-96130000D01*
X149470000Y-97460000D02*
X149470000Y-96130000D01*
X152070000Y-96130000D02*
X164830000Y-96130000D01*
X152070000Y-98790000D02*
X152070000Y-96130000D01*
X152070000Y-98790000D02*
X164830000Y-98790000D01*
X164830000Y-98790000D02*
X164830000Y-96130000D01*
%TO.C,J2*%
X117466000Y-47870000D02*
X118796000Y-47870000D01*
X117466000Y-49200000D02*
X117466000Y-47870000D01*
X120066000Y-47870000D02*
X142986000Y-47870000D01*
X120066000Y-50530000D02*
X120066000Y-47870000D01*
X120066000Y-50530000D02*
X142986000Y-50530000D01*
X142986000Y-50530000D02*
X142986000Y-47870000D01*
%TO.C,J4*%
X144390000Y-47870000D02*
X145720000Y-47870000D01*
X144390000Y-49200000D02*
X144390000Y-47870000D01*
X146990000Y-47870000D02*
X164830000Y-47870000D01*
X146990000Y-50530000D02*
X146990000Y-47870000D01*
X146990000Y-50530000D02*
X164830000Y-50530000D01*
X164830000Y-50530000D02*
X164830000Y-47870000D01*
%TO.C,R2*%
X144668000Y-58122000D02*
X144338000Y-58122000D01*
X141928000Y-58122000D02*
X142258000Y-58122000D01*
X144668000Y-64662000D02*
X144668000Y-58122000D01*
X144338000Y-64662000D02*
X144668000Y-64662000D01*
X142258000Y-64662000D02*
X141928000Y-64662000D01*
X141928000Y-64662000D02*
X141928000Y-58122000D01*
%TO.C,RedLED1*%
X151998000Y-71334000D02*
X152154000Y-71334000D01*
X149682000Y-71334000D02*
X149838000Y-71334000D01*
X151998061Y-68102603D02*
G75*
G02*
X152153516Y-71334000I-1080061J-1671397D01*
G01*
X151998049Y-68733090D02*
G75*
G02*
X151998000Y-70814961I-1080049J-1040910D01*
G01*
X149838000Y-70814961D02*
G75*
G02*
X149837951Y-68733090I1080000J1040961D01*
G01*
X149682484Y-71334000D02*
G75*
G02*
X149837939Y-68102603I1235516J1560000D01*
G01*
%TO.C,R1*%
X140638000Y-58174000D02*
X140308000Y-58174000D01*
X137898000Y-58174000D02*
X138228000Y-58174000D01*
X140638000Y-64714000D02*
X140638000Y-58174000D01*
X140308000Y-64714000D02*
X140638000Y-64714000D01*
X138228000Y-64714000D02*
X137898000Y-64714000D01*
X137898000Y-64714000D02*
X137898000Y-58174000D01*
%TO.C,GreenLED1*%
X146528000Y-71334000D02*
X146684000Y-71334000D01*
X144212000Y-71334000D02*
X144368000Y-71334000D01*
X146528061Y-68102603D02*
G75*
G02*
X146683516Y-71334000I-1080061J-1671397D01*
G01*
X146528049Y-68733090D02*
G75*
G02*
X146528000Y-70814961I-1080049J-1040910D01*
G01*
X144368000Y-70814961D02*
G75*
G02*
X144367951Y-68733090I1080000J1040961D01*
G01*
X144212484Y-71334000D02*
G75*
G02*
X144367939Y-68102603I1235516J1560000D01*
G01*
%TO.C,R5*%
X156860000Y-58376000D02*
X156860000Y-64916000D01*
X156530000Y-58376000D02*
X156860000Y-58376000D01*
X154450000Y-58376000D02*
X154120000Y-58376000D01*
X154120000Y-58376000D02*
X154120000Y-64916000D01*
X156860000Y-64916000D02*
X156530000Y-64916000D01*
X154120000Y-64916000D02*
X154450000Y-64916000D01*
%TO.C,R4*%
X152788000Y-58174000D02*
X152458000Y-58174000D01*
X150048000Y-58174000D02*
X150378000Y-58174000D01*
X152788000Y-64714000D02*
X152788000Y-58174000D01*
X152458000Y-64714000D02*
X152788000Y-64714000D01*
X150378000Y-64714000D02*
X150048000Y-64714000D01*
X150048000Y-64714000D02*
X150048000Y-58174000D01*
%TO.C,R3*%
X148738000Y-58174000D02*
X148408000Y-58174000D01*
X145998000Y-58174000D02*
X146328000Y-58174000D01*
X148738000Y-64714000D02*
X148738000Y-58174000D01*
X148408000Y-64714000D02*
X148738000Y-64714000D01*
X146328000Y-64714000D02*
X145998000Y-64714000D01*
X145998000Y-64714000D02*
X145998000Y-58174000D01*
%TO.C,BlueLED1*%
X141058000Y-71334000D02*
X141214000Y-71334000D01*
X138742000Y-71334000D02*
X138898000Y-71334000D01*
X141058061Y-68102603D02*
G75*
G02*
X141213516Y-71334000I-1080061J-1671397D01*
G01*
X141058049Y-68733090D02*
G75*
G02*
X141058000Y-70814961I-1080049J-1040910D01*
G01*
X138898000Y-70814961D02*
G75*
G02*
X138897951Y-68733090I1080000J1040961D01*
G01*
X138742484Y-71334000D02*
G75*
G02*
X138897939Y-68102603I1235516J1560000D01*
G01*
%TO.C,J5*%
X161900000Y-54474000D02*
X161900000Y-55804000D01*
X160570000Y-54474000D02*
X161900000Y-54474000D01*
X161900000Y-57074000D02*
X161900000Y-64754000D01*
X159240000Y-57074000D02*
X161900000Y-57074000D01*
X159240000Y-57074000D02*
X159240000Y-64754000D01*
X159240000Y-64754000D02*
X161900000Y-64754000D01*
%TO.C,YellowLED1*%
X157468000Y-71334000D02*
X157624000Y-71334000D01*
X155152000Y-71334000D02*
X155308000Y-71334000D01*
X157468061Y-68102603D02*
G75*
G02*
X157623516Y-71334000I-1080061J-1671397D01*
G01*
X157468049Y-68733090D02*
G75*
G02*
X157468000Y-70814961I-1080049J-1040910D01*
G01*
X155308000Y-70814961D02*
G75*
G02*
X155307951Y-68733090I1080000J1040961D01*
G01*
X155152484Y-71334000D02*
G75*
G02*
X155307939Y-68102603I1235516J1560000D01*
G01*
%TD*%
M02*
