%TF.GenerationSoftware,KiCad,Pcbnew,8.0.8*%
%TF.CreationDate,2025-03-13T23:48:44-06:00*%
%TF.ProjectId,2fib2foib2f,32666962-3266-46f6-9962-32662e6b6963,rev?*%
%TF.SameCoordinates,Original*%
%TF.FileFunction,AssemblyDrawing,Top*%
%FSLAX46Y46*%
G04 Gerber Fmt 4.6, Leading zero omitted, Abs format (unit mm)*
G04 Created by KiCad (PCBNEW 8.0.8) date 2025-03-13 23:48:44*
%MOMM*%
%LPD*%
G01*
G04 APERTURE LIST*
%ADD10C,0.150000*%
%ADD11C,0.114000*%
%ADD12C,0.120000*%
%ADD13C,0.100000*%
G04 APERTURE END LIST*
D10*
X142745000Y-94883819D02*
X142935476Y-94883819D01*
X142935476Y-94883819D02*
X143030714Y-94931438D01*
X143030714Y-94931438D02*
X143125952Y-95026676D01*
X143125952Y-95026676D02*
X143173571Y-95217152D01*
X143173571Y-95217152D02*
X143173571Y-95550485D01*
X143173571Y-95550485D02*
X143125952Y-95740961D01*
X143125952Y-95740961D02*
X143030714Y-95836200D01*
X143030714Y-95836200D02*
X142935476Y-95883819D01*
X142935476Y-95883819D02*
X142745000Y-95883819D01*
X142745000Y-95883819D02*
X142649762Y-95836200D01*
X142649762Y-95836200D02*
X142554524Y-95740961D01*
X142554524Y-95740961D02*
X142506905Y-95550485D01*
X142506905Y-95550485D02*
X142506905Y-95217152D01*
X142506905Y-95217152D02*
X142554524Y-95026676D01*
X142554524Y-95026676D02*
X142649762Y-94931438D01*
X142649762Y-94931438D02*
X142745000Y-94883819D01*
X143602143Y-95883819D02*
X143602143Y-94883819D01*
X143602143Y-94883819D02*
X143983095Y-94883819D01*
X143983095Y-94883819D02*
X144078333Y-94931438D01*
X144078333Y-94931438D02*
X144125952Y-94979057D01*
X144125952Y-94979057D02*
X144173571Y-95074295D01*
X144173571Y-95074295D02*
X144173571Y-95217152D01*
X144173571Y-95217152D02*
X144125952Y-95312390D01*
X144125952Y-95312390D02*
X144078333Y-95360009D01*
X144078333Y-95360009D02*
X143983095Y-95407628D01*
X143983095Y-95407628D02*
X143602143Y-95407628D01*
X144602143Y-95360009D02*
X144935476Y-95360009D01*
X145078333Y-95883819D02*
X144602143Y-95883819D01*
X144602143Y-95883819D02*
X144602143Y-94883819D01*
X144602143Y-94883819D02*
X145078333Y-94883819D01*
X145506905Y-95883819D02*
X145506905Y-94883819D01*
X145506905Y-94883819D02*
X146078333Y-95883819D01*
X146078333Y-95883819D02*
X146078333Y-94883819D01*
X147030714Y-95883819D02*
X146554524Y-95883819D01*
X146554524Y-95883819D02*
X146554524Y-94883819D01*
X147554524Y-94883819D02*
X147745000Y-94883819D01*
X147745000Y-94883819D02*
X147840238Y-94931438D01*
X147840238Y-94931438D02*
X147935476Y-95026676D01*
X147935476Y-95026676D02*
X147983095Y-95217152D01*
X147983095Y-95217152D02*
X147983095Y-95550485D01*
X147983095Y-95550485D02*
X147935476Y-95740961D01*
X147935476Y-95740961D02*
X147840238Y-95836200D01*
X147840238Y-95836200D02*
X147745000Y-95883819D01*
X147745000Y-95883819D02*
X147554524Y-95883819D01*
X147554524Y-95883819D02*
X147459286Y-95836200D01*
X147459286Y-95836200D02*
X147364048Y-95740961D01*
X147364048Y-95740961D02*
X147316429Y-95550485D01*
X147316429Y-95550485D02*
X147316429Y-95217152D01*
X147316429Y-95217152D02*
X147364048Y-95026676D01*
X147364048Y-95026676D02*
X147459286Y-94931438D01*
X147459286Y-94931438D02*
X147554524Y-94883819D01*
X148935476Y-94931438D02*
X148840238Y-94883819D01*
X148840238Y-94883819D02*
X148697381Y-94883819D01*
X148697381Y-94883819D02*
X148554524Y-94931438D01*
X148554524Y-94931438D02*
X148459286Y-95026676D01*
X148459286Y-95026676D02*
X148411667Y-95121914D01*
X148411667Y-95121914D02*
X148364048Y-95312390D01*
X148364048Y-95312390D02*
X148364048Y-95455247D01*
X148364048Y-95455247D02*
X148411667Y-95645723D01*
X148411667Y-95645723D02*
X148459286Y-95740961D01*
X148459286Y-95740961D02*
X148554524Y-95836200D01*
X148554524Y-95836200D02*
X148697381Y-95883819D01*
X148697381Y-95883819D02*
X148792619Y-95883819D01*
X148792619Y-95883819D02*
X148935476Y-95836200D01*
X148935476Y-95836200D02*
X148983095Y-95788580D01*
X148983095Y-95788580D02*
X148983095Y-95455247D01*
X148983095Y-95455247D02*
X148792619Y-95455247D01*
X145199819Y-87118523D02*
X145914104Y-87118523D01*
X145914104Y-87118523D02*
X146056961Y-87166142D01*
X146056961Y-87166142D02*
X146152200Y-87261380D01*
X146152200Y-87261380D02*
X146199819Y-87404237D01*
X146199819Y-87404237D02*
X146199819Y-87499475D01*
X146199819Y-86118523D02*
X146199819Y-86689951D01*
X146199819Y-86404237D02*
X145199819Y-86404237D01*
X145199819Y-86404237D02*
X145342676Y-86499475D01*
X145342676Y-86499475D02*
X145437914Y-86594713D01*
X145437914Y-86594713D02*
X145485533Y-86689951D01*
X146199819Y-85166142D02*
X146199819Y-85737570D01*
X146199819Y-85451856D02*
X145199819Y-85451856D01*
X145199819Y-85451856D02*
X145342676Y-85547094D01*
X145342676Y-85547094D02*
X145437914Y-85642332D01*
X145437914Y-85642332D02*
X145485533Y-85737570D01*
X130528380Y-93783580D02*
X130480761Y-93831200D01*
X130480761Y-93831200D02*
X130337904Y-93878819D01*
X130337904Y-93878819D02*
X130242666Y-93878819D01*
X130242666Y-93878819D02*
X130099809Y-93831200D01*
X130099809Y-93831200D02*
X130004571Y-93735961D01*
X130004571Y-93735961D02*
X129956952Y-93640723D01*
X129956952Y-93640723D02*
X129909333Y-93450247D01*
X129909333Y-93450247D02*
X129909333Y-93307390D01*
X129909333Y-93307390D02*
X129956952Y-93116914D01*
X129956952Y-93116914D02*
X130004571Y-93021676D01*
X130004571Y-93021676D02*
X130099809Y-92926438D01*
X130099809Y-92926438D02*
X130242666Y-92878819D01*
X130242666Y-92878819D02*
X130337904Y-92878819D01*
X130337904Y-92878819D02*
X130480761Y-92926438D01*
X130480761Y-92926438D02*
X130528380Y-92974057D01*
X131147428Y-92878819D02*
X131337904Y-92878819D01*
X131337904Y-92878819D02*
X131433142Y-92926438D01*
X131433142Y-92926438D02*
X131528380Y-93021676D01*
X131528380Y-93021676D02*
X131575999Y-93212152D01*
X131575999Y-93212152D02*
X131575999Y-93545485D01*
X131575999Y-93545485D02*
X131528380Y-93735961D01*
X131528380Y-93735961D02*
X131433142Y-93831200D01*
X131433142Y-93831200D02*
X131337904Y-93878819D01*
X131337904Y-93878819D02*
X131147428Y-93878819D01*
X131147428Y-93878819D02*
X131052190Y-93831200D01*
X131052190Y-93831200D02*
X130956952Y-93735961D01*
X130956952Y-93735961D02*
X130909333Y-93545485D01*
X130909333Y-93545485D02*
X130909333Y-93212152D01*
X130909333Y-93212152D02*
X130956952Y-93021676D01*
X130956952Y-93021676D02*
X131052190Y-92926438D01*
X131052190Y-92926438D02*
X131147428Y-92878819D01*
X132004571Y-93878819D02*
X132004571Y-92878819D01*
X132004571Y-92878819D02*
X132575999Y-93878819D01*
X132575999Y-93878819D02*
X132575999Y-92878819D01*
X133052190Y-93878819D02*
X133052190Y-92878819D01*
X133052190Y-92878819D02*
X133623618Y-93878819D01*
X133623618Y-93878819D02*
X133623618Y-92878819D01*
X133861714Y-93974057D02*
X134623618Y-93974057D01*
X134718857Y-92878819D02*
X135290285Y-92878819D01*
X135004571Y-93878819D02*
X135004571Y-92878819D01*
X135623619Y-93355009D02*
X135956952Y-93355009D01*
X136099809Y-93878819D02*
X135623619Y-93878819D01*
X135623619Y-93878819D02*
X135623619Y-92878819D01*
X135623619Y-92878819D02*
X136099809Y-92878819D01*
X136528381Y-93878819D02*
X136528381Y-92878819D01*
X136528381Y-92878819D02*
X136861714Y-93593104D01*
X136861714Y-93593104D02*
X137195047Y-92878819D01*
X137195047Y-92878819D02*
X137195047Y-93878819D01*
X137671238Y-93878819D02*
X137671238Y-92878819D01*
X137671238Y-92878819D02*
X138052190Y-92878819D01*
X138052190Y-92878819D02*
X138147428Y-92926438D01*
X138147428Y-92926438D02*
X138195047Y-92974057D01*
X138195047Y-92974057D02*
X138242666Y-93069295D01*
X138242666Y-93069295D02*
X138242666Y-93212152D01*
X138242666Y-93212152D02*
X138195047Y-93307390D01*
X138195047Y-93307390D02*
X138147428Y-93355009D01*
X138147428Y-93355009D02*
X138052190Y-93402628D01*
X138052190Y-93402628D02*
X137671238Y-93402628D01*
X133266476Y-90978819D02*
X133266476Y-91693104D01*
X133266476Y-91693104D02*
X133218857Y-91835961D01*
X133218857Y-91835961D02*
X133123619Y-91931200D01*
X133123619Y-91931200D02*
X132980762Y-91978819D01*
X132980762Y-91978819D02*
X132885524Y-91978819D01*
X134266476Y-91978819D02*
X133695048Y-91978819D01*
X133980762Y-91978819D02*
X133980762Y-90978819D01*
X133980762Y-90978819D02*
X133885524Y-91121676D01*
X133885524Y-91121676D02*
X133790286Y-91216914D01*
X133790286Y-91216914D02*
X133695048Y-91264533D01*
X134885524Y-90978819D02*
X134980762Y-90978819D01*
X134980762Y-90978819D02*
X135076000Y-91026438D01*
X135076000Y-91026438D02*
X135123619Y-91074057D01*
X135123619Y-91074057D02*
X135171238Y-91169295D01*
X135171238Y-91169295D02*
X135218857Y-91359771D01*
X135218857Y-91359771D02*
X135218857Y-91597866D01*
X135218857Y-91597866D02*
X135171238Y-91788342D01*
X135171238Y-91788342D02*
X135123619Y-91883580D01*
X135123619Y-91883580D02*
X135076000Y-91931200D01*
X135076000Y-91931200D02*
X134980762Y-91978819D01*
X134980762Y-91978819D02*
X134885524Y-91978819D01*
X134885524Y-91978819D02*
X134790286Y-91931200D01*
X134790286Y-91931200D02*
X134742667Y-91883580D01*
X134742667Y-91883580D02*
X134695048Y-91788342D01*
X134695048Y-91788342D02*
X134647429Y-91597866D01*
X134647429Y-91597866D02*
X134647429Y-91359771D01*
X134647429Y-91359771D02*
X134695048Y-91169295D01*
X134695048Y-91169295D02*
X134742667Y-91074057D01*
X134742667Y-91074057D02*
X134790286Y-91026438D01*
X134790286Y-91026438D02*
X134885524Y-90978819D01*
X119288286Y-66758819D02*
X119907333Y-66758819D01*
X119907333Y-66758819D02*
X119574000Y-67139771D01*
X119574000Y-67139771D02*
X119716857Y-67139771D01*
X119716857Y-67139771D02*
X119812095Y-67187390D01*
X119812095Y-67187390D02*
X119859714Y-67235009D01*
X119859714Y-67235009D02*
X119907333Y-67330247D01*
X119907333Y-67330247D02*
X119907333Y-67568342D01*
X119907333Y-67568342D02*
X119859714Y-67663580D01*
X119859714Y-67663580D02*
X119812095Y-67711200D01*
X119812095Y-67711200D02*
X119716857Y-67758819D01*
X119716857Y-67758819D02*
X119431143Y-67758819D01*
X119431143Y-67758819D02*
X119335905Y-67711200D01*
X119335905Y-67711200D02*
X119288286Y-67663580D01*
X120240667Y-66758819D02*
X120859714Y-66758819D01*
X120859714Y-66758819D02*
X120526381Y-67139771D01*
X120526381Y-67139771D02*
X120669238Y-67139771D01*
X120669238Y-67139771D02*
X120764476Y-67187390D01*
X120764476Y-67187390D02*
X120812095Y-67235009D01*
X120812095Y-67235009D02*
X120859714Y-67330247D01*
X120859714Y-67330247D02*
X120859714Y-67568342D01*
X120859714Y-67568342D02*
X120812095Y-67663580D01*
X120812095Y-67663580D02*
X120764476Y-67711200D01*
X120764476Y-67711200D02*
X120669238Y-67758819D01*
X120669238Y-67758819D02*
X120383524Y-67758819D01*
X120383524Y-67758819D02*
X120288286Y-67711200D01*
X120288286Y-67711200D02*
X120240667Y-67663580D01*
X121478762Y-66758819D02*
X121574000Y-66758819D01*
X121574000Y-66758819D02*
X121669238Y-66806438D01*
X121669238Y-66806438D02*
X121716857Y-66854057D01*
X121716857Y-66854057D02*
X121764476Y-66949295D01*
X121764476Y-66949295D02*
X121812095Y-67139771D01*
X121812095Y-67139771D02*
X121812095Y-67377866D01*
X121812095Y-67377866D02*
X121764476Y-67568342D01*
X121764476Y-67568342D02*
X121716857Y-67663580D01*
X121716857Y-67663580D02*
X121669238Y-67711200D01*
X121669238Y-67711200D02*
X121574000Y-67758819D01*
X121574000Y-67758819D02*
X121478762Y-67758819D01*
X121478762Y-67758819D02*
X121383524Y-67711200D01*
X121383524Y-67711200D02*
X121335905Y-67663580D01*
X121335905Y-67663580D02*
X121288286Y-67568342D01*
X121288286Y-67568342D02*
X121240667Y-67377866D01*
X121240667Y-67377866D02*
X121240667Y-67139771D01*
X121240667Y-67139771D02*
X121288286Y-66949295D01*
X121288286Y-66949295D02*
X121335905Y-66854057D01*
X121335905Y-66854057D02*
X121383524Y-66806438D01*
X121383524Y-66806438D02*
X121478762Y-66758819D01*
X120407333Y-65388819D02*
X120074000Y-64912628D01*
X119835905Y-65388819D02*
X119835905Y-64388819D01*
X119835905Y-64388819D02*
X120216857Y-64388819D01*
X120216857Y-64388819D02*
X120312095Y-64436438D01*
X120312095Y-64436438D02*
X120359714Y-64484057D01*
X120359714Y-64484057D02*
X120407333Y-64579295D01*
X120407333Y-64579295D02*
X120407333Y-64722152D01*
X120407333Y-64722152D02*
X120359714Y-64817390D01*
X120359714Y-64817390D02*
X120312095Y-64865009D01*
X120312095Y-64865009D02*
X120216857Y-64912628D01*
X120216857Y-64912628D02*
X119835905Y-64912628D01*
X120883524Y-65388819D02*
X121074000Y-65388819D01*
X121074000Y-65388819D02*
X121169238Y-65341200D01*
X121169238Y-65341200D02*
X121216857Y-65293580D01*
X121216857Y-65293580D02*
X121312095Y-65150723D01*
X121312095Y-65150723D02*
X121359714Y-64960247D01*
X121359714Y-64960247D02*
X121359714Y-64579295D01*
X121359714Y-64579295D02*
X121312095Y-64484057D01*
X121312095Y-64484057D02*
X121264476Y-64436438D01*
X121264476Y-64436438D02*
X121169238Y-64388819D01*
X121169238Y-64388819D02*
X120978762Y-64388819D01*
X120978762Y-64388819D02*
X120883524Y-64436438D01*
X120883524Y-64436438D02*
X120835905Y-64484057D01*
X120835905Y-64484057D02*
X120788286Y-64579295D01*
X120788286Y-64579295D02*
X120788286Y-64817390D01*
X120788286Y-64817390D02*
X120835905Y-64912628D01*
X120835905Y-64912628D02*
X120883524Y-64960247D01*
X120883524Y-64960247D02*
X120978762Y-65007866D01*
X120978762Y-65007866D02*
X121169238Y-65007866D01*
X121169238Y-65007866D02*
X121264476Y-64960247D01*
X121264476Y-64960247D02*
X121312095Y-64912628D01*
X121312095Y-64912628D02*
X121359714Y-64817390D01*
X119288286Y-62708819D02*
X119907333Y-62708819D01*
X119907333Y-62708819D02*
X119574000Y-63089771D01*
X119574000Y-63089771D02*
X119716857Y-63089771D01*
X119716857Y-63089771D02*
X119812095Y-63137390D01*
X119812095Y-63137390D02*
X119859714Y-63185009D01*
X119859714Y-63185009D02*
X119907333Y-63280247D01*
X119907333Y-63280247D02*
X119907333Y-63518342D01*
X119907333Y-63518342D02*
X119859714Y-63613580D01*
X119859714Y-63613580D02*
X119812095Y-63661200D01*
X119812095Y-63661200D02*
X119716857Y-63708819D01*
X119716857Y-63708819D02*
X119431143Y-63708819D01*
X119431143Y-63708819D02*
X119335905Y-63661200D01*
X119335905Y-63661200D02*
X119288286Y-63613580D01*
X120240667Y-62708819D02*
X120859714Y-62708819D01*
X120859714Y-62708819D02*
X120526381Y-63089771D01*
X120526381Y-63089771D02*
X120669238Y-63089771D01*
X120669238Y-63089771D02*
X120764476Y-63137390D01*
X120764476Y-63137390D02*
X120812095Y-63185009D01*
X120812095Y-63185009D02*
X120859714Y-63280247D01*
X120859714Y-63280247D02*
X120859714Y-63518342D01*
X120859714Y-63518342D02*
X120812095Y-63613580D01*
X120812095Y-63613580D02*
X120764476Y-63661200D01*
X120764476Y-63661200D02*
X120669238Y-63708819D01*
X120669238Y-63708819D02*
X120383524Y-63708819D01*
X120383524Y-63708819D02*
X120288286Y-63661200D01*
X120288286Y-63661200D02*
X120240667Y-63613580D01*
X121478762Y-62708819D02*
X121574000Y-62708819D01*
X121574000Y-62708819D02*
X121669238Y-62756438D01*
X121669238Y-62756438D02*
X121716857Y-62804057D01*
X121716857Y-62804057D02*
X121764476Y-62899295D01*
X121764476Y-62899295D02*
X121812095Y-63089771D01*
X121812095Y-63089771D02*
X121812095Y-63327866D01*
X121812095Y-63327866D02*
X121764476Y-63518342D01*
X121764476Y-63518342D02*
X121716857Y-63613580D01*
X121716857Y-63613580D02*
X121669238Y-63661200D01*
X121669238Y-63661200D02*
X121574000Y-63708819D01*
X121574000Y-63708819D02*
X121478762Y-63708819D01*
X121478762Y-63708819D02*
X121383524Y-63661200D01*
X121383524Y-63661200D02*
X121335905Y-63613580D01*
X121335905Y-63613580D02*
X121288286Y-63518342D01*
X121288286Y-63518342D02*
X121240667Y-63327866D01*
X121240667Y-63327866D02*
X121240667Y-63089771D01*
X121240667Y-63089771D02*
X121288286Y-62899295D01*
X121288286Y-62899295D02*
X121335905Y-62804057D01*
X121335905Y-62804057D02*
X121383524Y-62756438D01*
X121383524Y-62756438D02*
X121478762Y-62708819D01*
X120407333Y-61338819D02*
X120074000Y-60862628D01*
X119835905Y-61338819D02*
X119835905Y-60338819D01*
X119835905Y-60338819D02*
X120216857Y-60338819D01*
X120216857Y-60338819D02*
X120312095Y-60386438D01*
X120312095Y-60386438D02*
X120359714Y-60434057D01*
X120359714Y-60434057D02*
X120407333Y-60529295D01*
X120407333Y-60529295D02*
X120407333Y-60672152D01*
X120407333Y-60672152D02*
X120359714Y-60767390D01*
X120359714Y-60767390D02*
X120312095Y-60815009D01*
X120312095Y-60815009D02*
X120216857Y-60862628D01*
X120216857Y-60862628D02*
X119835905Y-60862628D01*
X120978762Y-60767390D02*
X120883524Y-60719771D01*
X120883524Y-60719771D02*
X120835905Y-60672152D01*
X120835905Y-60672152D02*
X120788286Y-60576914D01*
X120788286Y-60576914D02*
X120788286Y-60529295D01*
X120788286Y-60529295D02*
X120835905Y-60434057D01*
X120835905Y-60434057D02*
X120883524Y-60386438D01*
X120883524Y-60386438D02*
X120978762Y-60338819D01*
X120978762Y-60338819D02*
X121169238Y-60338819D01*
X121169238Y-60338819D02*
X121264476Y-60386438D01*
X121264476Y-60386438D02*
X121312095Y-60434057D01*
X121312095Y-60434057D02*
X121359714Y-60529295D01*
X121359714Y-60529295D02*
X121359714Y-60576914D01*
X121359714Y-60576914D02*
X121312095Y-60672152D01*
X121312095Y-60672152D02*
X121264476Y-60719771D01*
X121264476Y-60719771D02*
X121169238Y-60767390D01*
X121169238Y-60767390D02*
X120978762Y-60767390D01*
X120978762Y-60767390D02*
X120883524Y-60815009D01*
X120883524Y-60815009D02*
X120835905Y-60862628D01*
X120835905Y-60862628D02*
X120788286Y-60957866D01*
X120788286Y-60957866D02*
X120788286Y-61148342D01*
X120788286Y-61148342D02*
X120835905Y-61243580D01*
X120835905Y-61243580D02*
X120883524Y-61291200D01*
X120883524Y-61291200D02*
X120978762Y-61338819D01*
X120978762Y-61338819D02*
X121169238Y-61338819D01*
X121169238Y-61338819D02*
X121264476Y-61291200D01*
X121264476Y-61291200D02*
X121312095Y-61243580D01*
X121312095Y-61243580D02*
X121359714Y-61148342D01*
X121359714Y-61148342D02*
X121359714Y-60957866D01*
X121359714Y-60957866D02*
X121312095Y-60862628D01*
X121312095Y-60862628D02*
X121264476Y-60815009D01*
X121264476Y-60815009D02*
X121169238Y-60767390D01*
X116690190Y-71498819D02*
X116690190Y-70498819D01*
X116690190Y-70498819D02*
X117071142Y-70498819D01*
X117071142Y-70498819D02*
X117166380Y-70546438D01*
X117166380Y-70546438D02*
X117213999Y-70594057D01*
X117213999Y-70594057D02*
X117261618Y-70689295D01*
X117261618Y-70689295D02*
X117261618Y-70832152D01*
X117261618Y-70832152D02*
X117213999Y-70927390D01*
X117213999Y-70927390D02*
X117166380Y-70975009D01*
X117166380Y-70975009D02*
X117071142Y-71022628D01*
X117071142Y-71022628D02*
X116690190Y-71022628D01*
X118118761Y-70832152D02*
X118118761Y-71498819D01*
X117690190Y-70832152D02*
X117690190Y-71355961D01*
X117690190Y-71355961D02*
X117737809Y-71451200D01*
X117737809Y-71451200D02*
X117833047Y-71498819D01*
X117833047Y-71498819D02*
X117975904Y-71498819D01*
X117975904Y-71498819D02*
X118071142Y-71451200D01*
X118071142Y-71451200D02*
X118118761Y-71403580D01*
X118594952Y-71498819D02*
X118594952Y-70832152D01*
X118594952Y-71022628D02*
X118642571Y-70927390D01*
X118642571Y-70927390D02*
X118690190Y-70879771D01*
X118690190Y-70879771D02*
X118785428Y-70832152D01*
X118785428Y-70832152D02*
X118880666Y-70832152D01*
X119214000Y-70832152D02*
X119214000Y-71832152D01*
X119214000Y-70879771D02*
X119309238Y-70832152D01*
X119309238Y-70832152D02*
X119499714Y-70832152D01*
X119499714Y-70832152D02*
X119594952Y-70879771D01*
X119594952Y-70879771D02*
X119642571Y-70927390D01*
X119642571Y-70927390D02*
X119690190Y-71022628D01*
X119690190Y-71022628D02*
X119690190Y-71308342D01*
X119690190Y-71308342D02*
X119642571Y-71403580D01*
X119642571Y-71403580D02*
X119594952Y-71451200D01*
X119594952Y-71451200D02*
X119499714Y-71498819D01*
X119499714Y-71498819D02*
X119309238Y-71498819D01*
X119309238Y-71498819D02*
X119214000Y-71451200D01*
X120261619Y-71498819D02*
X120166381Y-71451200D01*
X120166381Y-71451200D02*
X120118762Y-71355961D01*
X120118762Y-71355961D02*
X120118762Y-70498819D01*
X121023524Y-71451200D02*
X120928286Y-71498819D01*
X120928286Y-71498819D02*
X120737810Y-71498819D01*
X120737810Y-71498819D02*
X120642572Y-71451200D01*
X120642572Y-71451200D02*
X120594953Y-71355961D01*
X120594953Y-71355961D02*
X120594953Y-70975009D01*
X120594953Y-70975009D02*
X120642572Y-70879771D01*
X120642572Y-70879771D02*
X120737810Y-70832152D01*
X120737810Y-70832152D02*
X120928286Y-70832152D01*
X120928286Y-70832152D02*
X121023524Y-70879771D01*
X121023524Y-70879771D02*
X121071143Y-70975009D01*
X121071143Y-70975009D02*
X121071143Y-71070247D01*
X121071143Y-71070247D02*
X120594953Y-71165485D01*
X121975905Y-71498819D02*
X121499715Y-71498819D01*
X121499715Y-71498819D02*
X121499715Y-70498819D01*
X122309239Y-70975009D02*
X122642572Y-70975009D01*
X122785429Y-71498819D02*
X122309239Y-71498819D01*
X122309239Y-71498819D02*
X122309239Y-70498819D01*
X122309239Y-70498819D02*
X122785429Y-70498819D01*
X123214001Y-71498819D02*
X123214001Y-70498819D01*
X123214001Y-70498819D02*
X123452096Y-70498819D01*
X123452096Y-70498819D02*
X123594953Y-70546438D01*
X123594953Y-70546438D02*
X123690191Y-70641676D01*
X123690191Y-70641676D02*
X123737810Y-70736914D01*
X123737810Y-70736914D02*
X123785429Y-70927390D01*
X123785429Y-70927390D02*
X123785429Y-71070247D01*
X123785429Y-71070247D02*
X123737810Y-71260723D01*
X123737810Y-71260723D02*
X123690191Y-71355961D01*
X123690191Y-71355961D02*
X123594953Y-71451200D01*
X123594953Y-71451200D02*
X123452096Y-71498819D01*
X123452096Y-71498819D02*
X123214001Y-71498819D01*
D11*
X119799662Y-69237333D02*
X120342519Y-69237333D01*
X120342519Y-69237333D02*
X120451091Y-69273524D01*
X120451091Y-69273524D02*
X120523472Y-69345905D01*
X120523472Y-69345905D02*
X120559662Y-69454476D01*
X120559662Y-69454476D02*
X120559662Y-69526857D01*
X120559662Y-68839238D02*
X120559662Y-68694476D01*
X120559662Y-68694476D02*
X120523472Y-68622095D01*
X120523472Y-68622095D02*
X120487281Y-68585904D01*
X120487281Y-68585904D02*
X120378710Y-68513523D01*
X120378710Y-68513523D02*
X120233948Y-68477333D01*
X120233948Y-68477333D02*
X119944424Y-68477333D01*
X119944424Y-68477333D02*
X119872043Y-68513523D01*
X119872043Y-68513523D02*
X119835852Y-68549714D01*
X119835852Y-68549714D02*
X119799662Y-68622095D01*
X119799662Y-68622095D02*
X119799662Y-68766857D01*
X119799662Y-68766857D02*
X119835852Y-68839238D01*
X119835852Y-68839238D02*
X119872043Y-68875428D01*
X119872043Y-68875428D02*
X119944424Y-68911619D01*
X119944424Y-68911619D02*
X120125376Y-68911619D01*
X120125376Y-68911619D02*
X120197757Y-68875428D01*
X120197757Y-68875428D02*
X120233948Y-68839238D01*
X120233948Y-68839238D02*
X120270138Y-68766857D01*
X120270138Y-68766857D02*
X120270138Y-68622095D01*
X120270138Y-68622095D02*
X120233948Y-68549714D01*
X120233948Y-68549714D02*
X120197757Y-68513523D01*
X120197757Y-68513523D02*
X120125376Y-68477333D01*
D10*
X112935428Y-70498819D02*
X113125904Y-70498819D01*
X113125904Y-70498819D02*
X113221142Y-70546438D01*
X113221142Y-70546438D02*
X113316380Y-70641676D01*
X113316380Y-70641676D02*
X113363999Y-70832152D01*
X113363999Y-70832152D02*
X113363999Y-71165485D01*
X113363999Y-71165485D02*
X113316380Y-71355961D01*
X113316380Y-71355961D02*
X113221142Y-71451200D01*
X113221142Y-71451200D02*
X113125904Y-71498819D01*
X113125904Y-71498819D02*
X112935428Y-71498819D01*
X112935428Y-71498819D02*
X112840190Y-71451200D01*
X112840190Y-71451200D02*
X112744952Y-71355961D01*
X112744952Y-71355961D02*
X112697333Y-71165485D01*
X112697333Y-71165485D02*
X112697333Y-70832152D01*
X112697333Y-70832152D02*
X112744952Y-70641676D01*
X112744952Y-70641676D02*
X112840190Y-70546438D01*
X112840190Y-70546438D02*
X112935428Y-70498819D01*
X113792571Y-71498819D02*
X113792571Y-70832152D01*
X113792571Y-71022628D02*
X113840190Y-70927390D01*
X113840190Y-70927390D02*
X113887809Y-70879771D01*
X113887809Y-70879771D02*
X113983047Y-70832152D01*
X113983047Y-70832152D02*
X114078285Y-70832152D01*
X114840190Y-71498819D02*
X114840190Y-70975009D01*
X114840190Y-70975009D02*
X114792571Y-70879771D01*
X114792571Y-70879771D02*
X114697333Y-70832152D01*
X114697333Y-70832152D02*
X114506857Y-70832152D01*
X114506857Y-70832152D02*
X114411619Y-70879771D01*
X114840190Y-71451200D02*
X114744952Y-71498819D01*
X114744952Y-71498819D02*
X114506857Y-71498819D01*
X114506857Y-71498819D02*
X114411619Y-71451200D01*
X114411619Y-71451200D02*
X114364000Y-71355961D01*
X114364000Y-71355961D02*
X114364000Y-71260723D01*
X114364000Y-71260723D02*
X114411619Y-71165485D01*
X114411619Y-71165485D02*
X114506857Y-71117866D01*
X114506857Y-71117866D02*
X114744952Y-71117866D01*
X114744952Y-71117866D02*
X114840190Y-71070247D01*
X115316381Y-70832152D02*
X115316381Y-71498819D01*
X115316381Y-70927390D02*
X115364000Y-70879771D01*
X115364000Y-70879771D02*
X115459238Y-70832152D01*
X115459238Y-70832152D02*
X115602095Y-70832152D01*
X115602095Y-70832152D02*
X115697333Y-70879771D01*
X115697333Y-70879771D02*
X115744952Y-70975009D01*
X115744952Y-70975009D02*
X115744952Y-71498819D01*
X116649714Y-70832152D02*
X116649714Y-71641676D01*
X116649714Y-71641676D02*
X116602095Y-71736914D01*
X116602095Y-71736914D02*
X116554476Y-71784533D01*
X116554476Y-71784533D02*
X116459238Y-71832152D01*
X116459238Y-71832152D02*
X116316381Y-71832152D01*
X116316381Y-71832152D02*
X116221143Y-71784533D01*
X116649714Y-71451200D02*
X116554476Y-71498819D01*
X116554476Y-71498819D02*
X116364000Y-71498819D01*
X116364000Y-71498819D02*
X116268762Y-71451200D01*
X116268762Y-71451200D02*
X116221143Y-71403580D01*
X116221143Y-71403580D02*
X116173524Y-71308342D01*
X116173524Y-71308342D02*
X116173524Y-71022628D01*
X116173524Y-71022628D02*
X116221143Y-70927390D01*
X116221143Y-70927390D02*
X116268762Y-70879771D01*
X116268762Y-70879771D02*
X116364000Y-70832152D01*
X116364000Y-70832152D02*
X116554476Y-70832152D01*
X116554476Y-70832152D02*
X116649714Y-70879771D01*
X117506857Y-71451200D02*
X117411619Y-71498819D01*
X117411619Y-71498819D02*
X117221143Y-71498819D01*
X117221143Y-71498819D02*
X117125905Y-71451200D01*
X117125905Y-71451200D02*
X117078286Y-71355961D01*
X117078286Y-71355961D02*
X117078286Y-70975009D01*
X117078286Y-70975009D02*
X117125905Y-70879771D01*
X117125905Y-70879771D02*
X117221143Y-70832152D01*
X117221143Y-70832152D02*
X117411619Y-70832152D01*
X117411619Y-70832152D02*
X117506857Y-70879771D01*
X117506857Y-70879771D02*
X117554476Y-70975009D01*
X117554476Y-70975009D02*
X117554476Y-71070247D01*
X117554476Y-71070247D02*
X117078286Y-71165485D01*
X119221143Y-71498819D02*
X118744953Y-71498819D01*
X118744953Y-71498819D02*
X118744953Y-70498819D01*
X119554477Y-70975009D02*
X119887810Y-70975009D01*
X120030667Y-71498819D02*
X119554477Y-71498819D01*
X119554477Y-71498819D02*
X119554477Y-70498819D01*
X119554477Y-70498819D02*
X120030667Y-70498819D01*
X120459239Y-71498819D02*
X120459239Y-70498819D01*
X120459239Y-70498819D02*
X120697334Y-70498819D01*
X120697334Y-70498819D02*
X120840191Y-70546438D01*
X120840191Y-70546438D02*
X120935429Y-70641676D01*
X120935429Y-70641676D02*
X120983048Y-70736914D01*
X120983048Y-70736914D02*
X121030667Y-70927390D01*
X121030667Y-70927390D02*
X121030667Y-71070247D01*
X121030667Y-71070247D02*
X120983048Y-71260723D01*
X120983048Y-71260723D02*
X120935429Y-71355961D01*
X120935429Y-71355961D02*
X120840191Y-71451200D01*
X120840191Y-71451200D02*
X120697334Y-71498819D01*
X120697334Y-71498819D02*
X120459239Y-71498819D01*
D11*
X116449662Y-69237333D02*
X116992519Y-69237333D01*
X116992519Y-69237333D02*
X117101091Y-69273524D01*
X117101091Y-69273524D02*
X117173472Y-69345905D01*
X117173472Y-69345905D02*
X117209662Y-69454476D01*
X117209662Y-69454476D02*
X117209662Y-69526857D01*
X116775376Y-68766857D02*
X116739186Y-68839238D01*
X116739186Y-68839238D02*
X116702995Y-68875428D01*
X116702995Y-68875428D02*
X116630614Y-68911619D01*
X116630614Y-68911619D02*
X116594424Y-68911619D01*
X116594424Y-68911619D02*
X116522043Y-68875428D01*
X116522043Y-68875428D02*
X116485852Y-68839238D01*
X116485852Y-68839238D02*
X116449662Y-68766857D01*
X116449662Y-68766857D02*
X116449662Y-68622095D01*
X116449662Y-68622095D02*
X116485852Y-68549714D01*
X116485852Y-68549714D02*
X116522043Y-68513523D01*
X116522043Y-68513523D02*
X116594424Y-68477333D01*
X116594424Y-68477333D02*
X116630614Y-68477333D01*
X116630614Y-68477333D02*
X116702995Y-68513523D01*
X116702995Y-68513523D02*
X116739186Y-68549714D01*
X116739186Y-68549714D02*
X116775376Y-68622095D01*
X116775376Y-68622095D02*
X116775376Y-68766857D01*
X116775376Y-68766857D02*
X116811567Y-68839238D01*
X116811567Y-68839238D02*
X116847757Y-68875428D01*
X116847757Y-68875428D02*
X116920138Y-68911619D01*
X116920138Y-68911619D02*
X117064900Y-68911619D01*
X117064900Y-68911619D02*
X117137281Y-68875428D01*
X117137281Y-68875428D02*
X117173472Y-68839238D01*
X117173472Y-68839238D02*
X117209662Y-68766857D01*
X117209662Y-68766857D02*
X117209662Y-68622095D01*
X117209662Y-68622095D02*
X117173472Y-68549714D01*
X117173472Y-68549714D02*
X117137281Y-68513523D01*
X117137281Y-68513523D02*
X117064900Y-68477333D01*
X117064900Y-68477333D02*
X116920138Y-68477333D01*
X116920138Y-68477333D02*
X116847757Y-68513523D01*
X116847757Y-68513523D02*
X116811567Y-68549714D01*
X116811567Y-68549714D02*
X116775376Y-68622095D01*
D10*
X99429237Y-56536819D02*
X99429237Y-55536819D01*
X99429237Y-55536819D02*
X99810189Y-55536819D01*
X99810189Y-55536819D02*
X99905427Y-55584438D01*
X99905427Y-55584438D02*
X99953046Y-55632057D01*
X99953046Y-55632057D02*
X100000665Y-55727295D01*
X100000665Y-55727295D02*
X100000665Y-55870152D01*
X100000665Y-55870152D02*
X99953046Y-55965390D01*
X99953046Y-55965390D02*
X99905427Y-56013009D01*
X99905427Y-56013009D02*
X99810189Y-56060628D01*
X99810189Y-56060628D02*
X99429237Y-56060628D01*
X100429237Y-56536819D02*
X100429237Y-55870152D01*
X100429237Y-56060628D02*
X100476856Y-55965390D01*
X100476856Y-55965390D02*
X100524475Y-55917771D01*
X100524475Y-55917771D02*
X100619713Y-55870152D01*
X100619713Y-55870152D02*
X100714951Y-55870152D01*
X101429237Y-56489200D02*
X101333999Y-56536819D01*
X101333999Y-56536819D02*
X101143523Y-56536819D01*
X101143523Y-56536819D02*
X101048285Y-56489200D01*
X101048285Y-56489200D02*
X101000666Y-56393961D01*
X101000666Y-56393961D02*
X101000666Y-56013009D01*
X101000666Y-56013009D02*
X101048285Y-55917771D01*
X101048285Y-55917771D02*
X101143523Y-55870152D01*
X101143523Y-55870152D02*
X101333999Y-55870152D01*
X101333999Y-55870152D02*
X101429237Y-55917771D01*
X101429237Y-55917771D02*
X101476856Y-56013009D01*
X101476856Y-56013009D02*
X101476856Y-56108247D01*
X101476856Y-56108247D02*
X101000666Y-56203485D01*
X101857809Y-56489200D02*
X101953047Y-56536819D01*
X101953047Y-56536819D02*
X102143523Y-56536819D01*
X102143523Y-56536819D02*
X102238761Y-56489200D01*
X102238761Y-56489200D02*
X102286380Y-56393961D01*
X102286380Y-56393961D02*
X102286380Y-56346342D01*
X102286380Y-56346342D02*
X102238761Y-56251104D01*
X102238761Y-56251104D02*
X102143523Y-56203485D01*
X102143523Y-56203485D02*
X102000666Y-56203485D01*
X102000666Y-56203485D02*
X101905428Y-56155866D01*
X101905428Y-56155866D02*
X101857809Y-56060628D01*
X101857809Y-56060628D02*
X101857809Y-56013009D01*
X101857809Y-56013009D02*
X101905428Y-55917771D01*
X101905428Y-55917771D02*
X102000666Y-55870152D01*
X102000666Y-55870152D02*
X102143523Y-55870152D01*
X102143523Y-55870152D02*
X102238761Y-55917771D01*
X102667333Y-56489200D02*
X102762571Y-56536819D01*
X102762571Y-56536819D02*
X102953047Y-56536819D01*
X102953047Y-56536819D02*
X103048285Y-56489200D01*
X103048285Y-56489200D02*
X103095904Y-56393961D01*
X103095904Y-56393961D02*
X103095904Y-56346342D01*
X103095904Y-56346342D02*
X103048285Y-56251104D01*
X103048285Y-56251104D02*
X102953047Y-56203485D01*
X102953047Y-56203485D02*
X102810190Y-56203485D01*
X102810190Y-56203485D02*
X102714952Y-56155866D01*
X102714952Y-56155866D02*
X102667333Y-56060628D01*
X102667333Y-56060628D02*
X102667333Y-56013009D01*
X102667333Y-56013009D02*
X102714952Y-55917771D01*
X102714952Y-55917771D02*
X102810190Y-55870152D01*
X102810190Y-55870152D02*
X102953047Y-55870152D01*
X102953047Y-55870152D02*
X103048285Y-55917771D01*
X103953047Y-55870152D02*
X103953047Y-56536819D01*
X103524476Y-55870152D02*
X103524476Y-56393961D01*
X103524476Y-56393961D02*
X103572095Y-56489200D01*
X103572095Y-56489200D02*
X103667333Y-56536819D01*
X103667333Y-56536819D02*
X103810190Y-56536819D01*
X103810190Y-56536819D02*
X103905428Y-56489200D01*
X103905428Y-56489200D02*
X103953047Y-56441580D01*
X104429238Y-56536819D02*
X104429238Y-55870152D01*
X104429238Y-56060628D02*
X104476857Y-55965390D01*
X104476857Y-55965390D02*
X104524476Y-55917771D01*
X104524476Y-55917771D02*
X104619714Y-55870152D01*
X104619714Y-55870152D02*
X104714952Y-55870152D01*
X105429238Y-56489200D02*
X105334000Y-56536819D01*
X105334000Y-56536819D02*
X105143524Y-56536819D01*
X105143524Y-56536819D02*
X105048286Y-56489200D01*
X105048286Y-56489200D02*
X105000667Y-56393961D01*
X105000667Y-56393961D02*
X105000667Y-56013009D01*
X105000667Y-56013009D02*
X105048286Y-55917771D01*
X105048286Y-55917771D02*
X105143524Y-55870152D01*
X105143524Y-55870152D02*
X105334000Y-55870152D01*
X105334000Y-55870152D02*
X105429238Y-55917771D01*
X105429238Y-55917771D02*
X105476857Y-56013009D01*
X105476857Y-56013009D02*
X105476857Y-56108247D01*
X105476857Y-56108247D02*
X105000667Y-56203485D01*
X106619715Y-56489200D02*
X106762572Y-56536819D01*
X106762572Y-56536819D02*
X107000667Y-56536819D01*
X107000667Y-56536819D02*
X107095905Y-56489200D01*
X107095905Y-56489200D02*
X107143524Y-56441580D01*
X107143524Y-56441580D02*
X107191143Y-56346342D01*
X107191143Y-56346342D02*
X107191143Y-56251104D01*
X107191143Y-56251104D02*
X107143524Y-56155866D01*
X107143524Y-56155866D02*
X107095905Y-56108247D01*
X107095905Y-56108247D02*
X107000667Y-56060628D01*
X107000667Y-56060628D02*
X106810191Y-56013009D01*
X106810191Y-56013009D02*
X106714953Y-55965390D01*
X106714953Y-55965390D02*
X106667334Y-55917771D01*
X106667334Y-55917771D02*
X106619715Y-55822533D01*
X106619715Y-55822533D02*
X106619715Y-55727295D01*
X106619715Y-55727295D02*
X106667334Y-55632057D01*
X106667334Y-55632057D02*
X106714953Y-55584438D01*
X106714953Y-55584438D02*
X106810191Y-55536819D01*
X106810191Y-55536819D02*
X107048286Y-55536819D01*
X107048286Y-55536819D02*
X107191143Y-55584438D01*
X108000667Y-56489200D02*
X107905429Y-56536819D01*
X107905429Y-56536819D02*
X107714953Y-56536819D01*
X107714953Y-56536819D02*
X107619715Y-56489200D01*
X107619715Y-56489200D02*
X107572096Y-56393961D01*
X107572096Y-56393961D02*
X107572096Y-56013009D01*
X107572096Y-56013009D02*
X107619715Y-55917771D01*
X107619715Y-55917771D02*
X107714953Y-55870152D01*
X107714953Y-55870152D02*
X107905429Y-55870152D01*
X107905429Y-55870152D02*
X108000667Y-55917771D01*
X108000667Y-55917771D02*
X108048286Y-56013009D01*
X108048286Y-56013009D02*
X108048286Y-56108247D01*
X108048286Y-56108247D02*
X107572096Y-56203485D01*
X108476858Y-55870152D02*
X108476858Y-56536819D01*
X108476858Y-55965390D02*
X108524477Y-55917771D01*
X108524477Y-55917771D02*
X108619715Y-55870152D01*
X108619715Y-55870152D02*
X108762572Y-55870152D01*
X108762572Y-55870152D02*
X108857810Y-55917771D01*
X108857810Y-55917771D02*
X108905429Y-56013009D01*
X108905429Y-56013009D02*
X108905429Y-56536819D01*
X109334001Y-56489200D02*
X109429239Y-56536819D01*
X109429239Y-56536819D02*
X109619715Y-56536819D01*
X109619715Y-56536819D02*
X109714953Y-56489200D01*
X109714953Y-56489200D02*
X109762572Y-56393961D01*
X109762572Y-56393961D02*
X109762572Y-56346342D01*
X109762572Y-56346342D02*
X109714953Y-56251104D01*
X109714953Y-56251104D02*
X109619715Y-56203485D01*
X109619715Y-56203485D02*
X109476858Y-56203485D01*
X109476858Y-56203485D02*
X109381620Y-56155866D01*
X109381620Y-56155866D02*
X109334001Y-56060628D01*
X109334001Y-56060628D02*
X109334001Y-56013009D01*
X109334001Y-56013009D02*
X109381620Y-55917771D01*
X109381620Y-55917771D02*
X109476858Y-55870152D01*
X109476858Y-55870152D02*
X109619715Y-55870152D01*
X109619715Y-55870152D02*
X109714953Y-55917771D01*
X110334001Y-56536819D02*
X110238763Y-56489200D01*
X110238763Y-56489200D02*
X110191144Y-56441580D01*
X110191144Y-56441580D02*
X110143525Y-56346342D01*
X110143525Y-56346342D02*
X110143525Y-56060628D01*
X110143525Y-56060628D02*
X110191144Y-55965390D01*
X110191144Y-55965390D02*
X110238763Y-55917771D01*
X110238763Y-55917771D02*
X110334001Y-55870152D01*
X110334001Y-55870152D02*
X110476858Y-55870152D01*
X110476858Y-55870152D02*
X110572096Y-55917771D01*
X110572096Y-55917771D02*
X110619715Y-55965390D01*
X110619715Y-55965390D02*
X110667334Y-56060628D01*
X110667334Y-56060628D02*
X110667334Y-56346342D01*
X110667334Y-56346342D02*
X110619715Y-56441580D01*
X110619715Y-56441580D02*
X110572096Y-56489200D01*
X110572096Y-56489200D02*
X110476858Y-56536819D01*
X110476858Y-56536819D02*
X110334001Y-56536819D01*
X111095906Y-56536819D02*
X111095906Y-55870152D01*
X111095906Y-56060628D02*
X111143525Y-55965390D01*
X111143525Y-55965390D02*
X111191144Y-55917771D01*
X111191144Y-55917771D02*
X111286382Y-55870152D01*
X111286382Y-55870152D02*
X111381620Y-55870152D01*
X104788819Y-61725333D02*
X105503104Y-61725333D01*
X105503104Y-61725333D02*
X105645961Y-61772952D01*
X105645961Y-61772952D02*
X105741200Y-61868190D01*
X105741200Y-61868190D02*
X105788819Y-62011047D01*
X105788819Y-62011047D02*
X105788819Y-62106285D01*
X104788819Y-60820571D02*
X104788819Y-61011047D01*
X104788819Y-61011047D02*
X104836438Y-61106285D01*
X104836438Y-61106285D02*
X104884057Y-61153904D01*
X104884057Y-61153904D02*
X105026914Y-61249142D01*
X105026914Y-61249142D02*
X105217390Y-61296761D01*
X105217390Y-61296761D02*
X105598342Y-61296761D01*
X105598342Y-61296761D02*
X105693580Y-61249142D01*
X105693580Y-61249142D02*
X105741200Y-61201523D01*
X105741200Y-61201523D02*
X105788819Y-61106285D01*
X105788819Y-61106285D02*
X105788819Y-60915809D01*
X105788819Y-60915809D02*
X105741200Y-60820571D01*
X105741200Y-60820571D02*
X105693580Y-60772952D01*
X105693580Y-60772952D02*
X105598342Y-60725333D01*
X105598342Y-60725333D02*
X105360247Y-60725333D01*
X105360247Y-60725333D02*
X105265009Y-60772952D01*
X105265009Y-60772952D02*
X105217390Y-60820571D01*
X105217390Y-60820571D02*
X105169771Y-60915809D01*
X105169771Y-60915809D02*
X105169771Y-61106285D01*
X105169771Y-61106285D02*
X105217390Y-61201523D01*
X105217390Y-61201523D02*
X105265009Y-61249142D01*
X105265009Y-61249142D02*
X105360247Y-61296761D01*
X98004761Y-90239104D02*
X98480951Y-90239104D01*
X97909523Y-90524819D02*
X98242856Y-89524819D01*
X98242856Y-89524819D02*
X98576189Y-90524819D01*
X99338094Y-90477200D02*
X99242856Y-90524819D01*
X99242856Y-90524819D02*
X99052380Y-90524819D01*
X99052380Y-90524819D02*
X98957142Y-90477200D01*
X98957142Y-90477200D02*
X98909523Y-90429580D01*
X98909523Y-90429580D02*
X98861904Y-90334342D01*
X98861904Y-90334342D02*
X98861904Y-90048628D01*
X98861904Y-90048628D02*
X98909523Y-89953390D01*
X98909523Y-89953390D02*
X98957142Y-89905771D01*
X98957142Y-89905771D02*
X99052380Y-89858152D01*
X99052380Y-89858152D02*
X99242856Y-89858152D01*
X99242856Y-89858152D02*
X99338094Y-89905771D01*
X100195237Y-90477200D02*
X100099999Y-90524819D01*
X100099999Y-90524819D02*
X99909523Y-90524819D01*
X99909523Y-90524819D02*
X99814285Y-90477200D01*
X99814285Y-90477200D02*
X99766666Y-90429580D01*
X99766666Y-90429580D02*
X99719047Y-90334342D01*
X99719047Y-90334342D02*
X99719047Y-90048628D01*
X99719047Y-90048628D02*
X99766666Y-89953390D01*
X99766666Y-89953390D02*
X99814285Y-89905771D01*
X99814285Y-89905771D02*
X99909523Y-89858152D01*
X99909523Y-89858152D02*
X100099999Y-89858152D01*
X100099999Y-89858152D02*
X100195237Y-89905771D01*
X101004761Y-90477200D02*
X100909523Y-90524819D01*
X100909523Y-90524819D02*
X100719047Y-90524819D01*
X100719047Y-90524819D02*
X100623809Y-90477200D01*
X100623809Y-90477200D02*
X100576190Y-90381961D01*
X100576190Y-90381961D02*
X100576190Y-90001009D01*
X100576190Y-90001009D02*
X100623809Y-89905771D01*
X100623809Y-89905771D02*
X100719047Y-89858152D01*
X100719047Y-89858152D02*
X100909523Y-89858152D01*
X100909523Y-89858152D02*
X101004761Y-89905771D01*
X101004761Y-89905771D02*
X101052380Y-90001009D01*
X101052380Y-90001009D02*
X101052380Y-90096247D01*
X101052380Y-90096247D02*
X100576190Y-90191485D01*
X101623809Y-90524819D02*
X101528571Y-90477200D01*
X101528571Y-90477200D02*
X101480952Y-90381961D01*
X101480952Y-90381961D02*
X101480952Y-89524819D01*
X102385714Y-90477200D02*
X102290476Y-90524819D01*
X102290476Y-90524819D02*
X102100000Y-90524819D01*
X102100000Y-90524819D02*
X102004762Y-90477200D01*
X102004762Y-90477200D02*
X101957143Y-90381961D01*
X101957143Y-90381961D02*
X101957143Y-90001009D01*
X101957143Y-90001009D02*
X102004762Y-89905771D01*
X102004762Y-89905771D02*
X102100000Y-89858152D01*
X102100000Y-89858152D02*
X102290476Y-89858152D01*
X102290476Y-89858152D02*
X102385714Y-89905771D01*
X102385714Y-89905771D02*
X102433333Y-90001009D01*
X102433333Y-90001009D02*
X102433333Y-90096247D01*
X102433333Y-90096247D02*
X101957143Y-90191485D01*
X102861905Y-90524819D02*
X102861905Y-89858152D01*
X102861905Y-90048628D02*
X102909524Y-89953390D01*
X102909524Y-89953390D02*
X102957143Y-89905771D01*
X102957143Y-89905771D02*
X103052381Y-89858152D01*
X103052381Y-89858152D02*
X103147619Y-89858152D01*
X103623810Y-90524819D02*
X103528572Y-90477200D01*
X103528572Y-90477200D02*
X103480953Y-90429580D01*
X103480953Y-90429580D02*
X103433334Y-90334342D01*
X103433334Y-90334342D02*
X103433334Y-90048628D01*
X103433334Y-90048628D02*
X103480953Y-89953390D01*
X103480953Y-89953390D02*
X103528572Y-89905771D01*
X103528572Y-89905771D02*
X103623810Y-89858152D01*
X103623810Y-89858152D02*
X103766667Y-89858152D01*
X103766667Y-89858152D02*
X103861905Y-89905771D01*
X103861905Y-89905771D02*
X103909524Y-89953390D01*
X103909524Y-89953390D02*
X103957143Y-90048628D01*
X103957143Y-90048628D02*
X103957143Y-90334342D01*
X103957143Y-90334342D02*
X103909524Y-90429580D01*
X103909524Y-90429580D02*
X103861905Y-90477200D01*
X103861905Y-90477200D02*
X103766667Y-90524819D01*
X103766667Y-90524819D02*
X103623810Y-90524819D01*
X104385715Y-90524819D02*
X104385715Y-89858152D01*
X104385715Y-89953390D02*
X104433334Y-89905771D01*
X104433334Y-89905771D02*
X104528572Y-89858152D01*
X104528572Y-89858152D02*
X104671429Y-89858152D01*
X104671429Y-89858152D02*
X104766667Y-89905771D01*
X104766667Y-89905771D02*
X104814286Y-90001009D01*
X104814286Y-90001009D02*
X104814286Y-90524819D01*
X104814286Y-90001009D02*
X104861905Y-89905771D01*
X104861905Y-89905771D02*
X104957143Y-89858152D01*
X104957143Y-89858152D02*
X105100000Y-89858152D01*
X105100000Y-89858152D02*
X105195239Y-89905771D01*
X105195239Y-89905771D02*
X105242858Y-90001009D01*
X105242858Y-90001009D02*
X105242858Y-90524819D01*
X106100000Y-90477200D02*
X106004762Y-90524819D01*
X106004762Y-90524819D02*
X105814286Y-90524819D01*
X105814286Y-90524819D02*
X105719048Y-90477200D01*
X105719048Y-90477200D02*
X105671429Y-90381961D01*
X105671429Y-90381961D02*
X105671429Y-90001009D01*
X105671429Y-90001009D02*
X105719048Y-89905771D01*
X105719048Y-89905771D02*
X105814286Y-89858152D01*
X105814286Y-89858152D02*
X106004762Y-89858152D01*
X106004762Y-89858152D02*
X106100000Y-89905771D01*
X106100000Y-89905771D02*
X106147619Y-90001009D01*
X106147619Y-90001009D02*
X106147619Y-90096247D01*
X106147619Y-90096247D02*
X105671429Y-90191485D01*
X106433334Y-89858152D02*
X106814286Y-89858152D01*
X106576191Y-89524819D02*
X106576191Y-90381961D01*
X106576191Y-90381961D02*
X106623810Y-90477200D01*
X106623810Y-90477200D02*
X106719048Y-90524819D01*
X106719048Y-90524819D02*
X106814286Y-90524819D01*
X107528572Y-90477200D02*
X107433334Y-90524819D01*
X107433334Y-90524819D02*
X107242858Y-90524819D01*
X107242858Y-90524819D02*
X107147620Y-90477200D01*
X107147620Y-90477200D02*
X107100001Y-90381961D01*
X107100001Y-90381961D02*
X107100001Y-90001009D01*
X107100001Y-90001009D02*
X107147620Y-89905771D01*
X107147620Y-89905771D02*
X107242858Y-89858152D01*
X107242858Y-89858152D02*
X107433334Y-89858152D01*
X107433334Y-89858152D02*
X107528572Y-89905771D01*
X107528572Y-89905771D02*
X107576191Y-90001009D01*
X107576191Y-90001009D02*
X107576191Y-90096247D01*
X107576191Y-90096247D02*
X107100001Y-90191485D01*
X108004763Y-90524819D02*
X108004763Y-89858152D01*
X108004763Y-90048628D02*
X108052382Y-89953390D01*
X108052382Y-89953390D02*
X108100001Y-89905771D01*
X108100001Y-89905771D02*
X108195239Y-89858152D01*
X108195239Y-89858152D02*
X108290477Y-89858152D01*
X102554819Y-80013333D02*
X103269104Y-80013333D01*
X103269104Y-80013333D02*
X103411961Y-80060952D01*
X103411961Y-80060952D02*
X103507200Y-80156190D01*
X103507200Y-80156190D02*
X103554819Y-80299047D01*
X103554819Y-80299047D02*
X103554819Y-80394285D01*
X102554819Y-79632380D02*
X102554819Y-78965714D01*
X102554819Y-78965714D02*
X103554819Y-79394285D01*
X109564761Y-83520819D02*
X108993333Y-83520819D01*
X109279047Y-83520819D02*
X109279047Y-82520819D01*
X109279047Y-82520819D02*
X109183809Y-82663676D01*
X109183809Y-82663676D02*
X109088571Y-82758914D01*
X109088571Y-82758914D02*
X108993333Y-82806533D01*
X110183809Y-82520819D02*
X110279047Y-82520819D01*
X110279047Y-82520819D02*
X110374285Y-82568438D01*
X110374285Y-82568438D02*
X110421904Y-82616057D01*
X110421904Y-82616057D02*
X110469523Y-82711295D01*
X110469523Y-82711295D02*
X110517142Y-82901771D01*
X110517142Y-82901771D02*
X110517142Y-83139866D01*
X110517142Y-83139866D02*
X110469523Y-83330342D01*
X110469523Y-83330342D02*
X110421904Y-83425580D01*
X110421904Y-83425580D02*
X110374285Y-83473200D01*
X110374285Y-83473200D02*
X110279047Y-83520819D01*
X110279047Y-83520819D02*
X110183809Y-83520819D01*
X110183809Y-83520819D02*
X110088571Y-83473200D01*
X110088571Y-83473200D02*
X110040952Y-83425580D01*
X110040952Y-83425580D02*
X109993333Y-83330342D01*
X109993333Y-83330342D02*
X109945714Y-83139866D01*
X109945714Y-83139866D02*
X109945714Y-82901771D01*
X109945714Y-82901771D02*
X109993333Y-82711295D01*
X109993333Y-82711295D02*
X110040952Y-82616057D01*
X110040952Y-82616057D02*
X110088571Y-82568438D01*
X110088571Y-82568438D02*
X110183809Y-82520819D01*
X110945714Y-83520819D02*
X110945714Y-82520819D01*
X111040952Y-83139866D02*
X111326666Y-83520819D01*
X111326666Y-82854152D02*
X110945714Y-83235104D01*
X109993333Y-81150819D02*
X109660000Y-80674628D01*
X109421905Y-81150819D02*
X109421905Y-80150819D01*
X109421905Y-80150819D02*
X109802857Y-80150819D01*
X109802857Y-80150819D02*
X109898095Y-80198438D01*
X109898095Y-80198438D02*
X109945714Y-80246057D01*
X109945714Y-80246057D02*
X109993333Y-80341295D01*
X109993333Y-80341295D02*
X109993333Y-80484152D01*
X109993333Y-80484152D02*
X109945714Y-80579390D01*
X109945714Y-80579390D02*
X109898095Y-80627009D01*
X109898095Y-80627009D02*
X109802857Y-80674628D01*
X109802857Y-80674628D02*
X109421905Y-80674628D01*
X110326667Y-80150819D02*
X110993333Y-80150819D01*
X110993333Y-80150819D02*
X110564762Y-81150819D01*
X109564761Y-79470819D02*
X108993333Y-79470819D01*
X109279047Y-79470819D02*
X109279047Y-78470819D01*
X109279047Y-78470819D02*
X109183809Y-78613676D01*
X109183809Y-78613676D02*
X109088571Y-78708914D01*
X109088571Y-78708914D02*
X108993333Y-78756533D01*
X110183809Y-78470819D02*
X110279047Y-78470819D01*
X110279047Y-78470819D02*
X110374285Y-78518438D01*
X110374285Y-78518438D02*
X110421904Y-78566057D01*
X110421904Y-78566057D02*
X110469523Y-78661295D01*
X110469523Y-78661295D02*
X110517142Y-78851771D01*
X110517142Y-78851771D02*
X110517142Y-79089866D01*
X110517142Y-79089866D02*
X110469523Y-79280342D01*
X110469523Y-79280342D02*
X110421904Y-79375580D01*
X110421904Y-79375580D02*
X110374285Y-79423200D01*
X110374285Y-79423200D02*
X110279047Y-79470819D01*
X110279047Y-79470819D02*
X110183809Y-79470819D01*
X110183809Y-79470819D02*
X110088571Y-79423200D01*
X110088571Y-79423200D02*
X110040952Y-79375580D01*
X110040952Y-79375580D02*
X109993333Y-79280342D01*
X109993333Y-79280342D02*
X109945714Y-79089866D01*
X109945714Y-79089866D02*
X109945714Y-78851771D01*
X109945714Y-78851771D02*
X109993333Y-78661295D01*
X109993333Y-78661295D02*
X110040952Y-78566057D01*
X110040952Y-78566057D02*
X110088571Y-78518438D01*
X110088571Y-78518438D02*
X110183809Y-78470819D01*
X110945714Y-79470819D02*
X110945714Y-78470819D01*
X111040952Y-79089866D02*
X111326666Y-79470819D01*
X111326666Y-78804152D02*
X110945714Y-79185104D01*
X109993333Y-77100819D02*
X109660000Y-76624628D01*
X109421905Y-77100819D02*
X109421905Y-76100819D01*
X109421905Y-76100819D02*
X109802857Y-76100819D01*
X109802857Y-76100819D02*
X109898095Y-76148438D01*
X109898095Y-76148438D02*
X109945714Y-76196057D01*
X109945714Y-76196057D02*
X109993333Y-76291295D01*
X109993333Y-76291295D02*
X109993333Y-76434152D01*
X109993333Y-76434152D02*
X109945714Y-76529390D01*
X109945714Y-76529390D02*
X109898095Y-76577009D01*
X109898095Y-76577009D02*
X109802857Y-76624628D01*
X109802857Y-76624628D02*
X109421905Y-76624628D01*
X110850476Y-76100819D02*
X110660000Y-76100819D01*
X110660000Y-76100819D02*
X110564762Y-76148438D01*
X110564762Y-76148438D02*
X110517143Y-76196057D01*
X110517143Y-76196057D02*
X110421905Y-76338914D01*
X110421905Y-76338914D02*
X110374286Y-76529390D01*
X110374286Y-76529390D02*
X110374286Y-76910342D01*
X110374286Y-76910342D02*
X110421905Y-77005580D01*
X110421905Y-77005580D02*
X110469524Y-77053200D01*
X110469524Y-77053200D02*
X110564762Y-77100819D01*
X110564762Y-77100819D02*
X110755238Y-77100819D01*
X110755238Y-77100819D02*
X110850476Y-77053200D01*
X110850476Y-77053200D02*
X110898095Y-77005580D01*
X110898095Y-77005580D02*
X110945714Y-76910342D01*
X110945714Y-76910342D02*
X110945714Y-76672247D01*
X110945714Y-76672247D02*
X110898095Y-76577009D01*
X110898095Y-76577009D02*
X110850476Y-76529390D01*
X110850476Y-76529390D02*
X110755238Y-76481771D01*
X110755238Y-76481771D02*
X110564762Y-76481771D01*
X110564762Y-76481771D02*
X110469524Y-76529390D01*
X110469524Y-76529390D02*
X110421905Y-76577009D01*
X110421905Y-76577009D02*
X110374286Y-76672247D01*
X134853809Y-101724819D02*
X134853809Y-100724819D01*
X134853809Y-100724819D02*
X135234761Y-100724819D01*
X135234761Y-100724819D02*
X135329999Y-100772438D01*
X135329999Y-100772438D02*
X135377618Y-100820057D01*
X135377618Y-100820057D02*
X135425237Y-100915295D01*
X135425237Y-100915295D02*
X135425237Y-101058152D01*
X135425237Y-101058152D02*
X135377618Y-101153390D01*
X135377618Y-101153390D02*
X135329999Y-101201009D01*
X135329999Y-101201009D02*
X135234761Y-101248628D01*
X135234761Y-101248628D02*
X134853809Y-101248628D01*
X135996666Y-101724819D02*
X135901428Y-101677200D01*
X135901428Y-101677200D02*
X135853809Y-101629580D01*
X135853809Y-101629580D02*
X135806190Y-101534342D01*
X135806190Y-101534342D02*
X135806190Y-101248628D01*
X135806190Y-101248628D02*
X135853809Y-101153390D01*
X135853809Y-101153390D02*
X135901428Y-101105771D01*
X135901428Y-101105771D02*
X135996666Y-101058152D01*
X135996666Y-101058152D02*
X136139523Y-101058152D01*
X136139523Y-101058152D02*
X136234761Y-101105771D01*
X136234761Y-101105771D02*
X136282380Y-101153390D01*
X136282380Y-101153390D02*
X136329999Y-101248628D01*
X136329999Y-101248628D02*
X136329999Y-101534342D01*
X136329999Y-101534342D02*
X136282380Y-101629580D01*
X136282380Y-101629580D02*
X136234761Y-101677200D01*
X136234761Y-101677200D02*
X136139523Y-101724819D01*
X136139523Y-101724819D02*
X135996666Y-101724819D01*
X136663333Y-101058152D02*
X136853809Y-101724819D01*
X136853809Y-101724819D02*
X137044285Y-101248628D01*
X137044285Y-101248628D02*
X137234761Y-101724819D01*
X137234761Y-101724819D02*
X137425237Y-101058152D01*
X138187142Y-101677200D02*
X138091904Y-101724819D01*
X138091904Y-101724819D02*
X137901428Y-101724819D01*
X137901428Y-101724819D02*
X137806190Y-101677200D01*
X137806190Y-101677200D02*
X137758571Y-101581961D01*
X137758571Y-101581961D02*
X137758571Y-101201009D01*
X137758571Y-101201009D02*
X137806190Y-101105771D01*
X137806190Y-101105771D02*
X137901428Y-101058152D01*
X137901428Y-101058152D02*
X138091904Y-101058152D01*
X138091904Y-101058152D02*
X138187142Y-101105771D01*
X138187142Y-101105771D02*
X138234761Y-101201009D01*
X138234761Y-101201009D02*
X138234761Y-101296247D01*
X138234761Y-101296247D02*
X137758571Y-101391485D01*
X138663333Y-101724819D02*
X138663333Y-101058152D01*
X138663333Y-101248628D02*
X138710952Y-101153390D01*
X138710952Y-101153390D02*
X138758571Y-101105771D01*
X138758571Y-101105771D02*
X138853809Y-101058152D01*
X138853809Y-101058152D02*
X138949047Y-101058152D01*
X127606666Y-100724819D02*
X127606666Y-101439104D01*
X127606666Y-101439104D02*
X127559047Y-101581961D01*
X127559047Y-101581961D02*
X127463809Y-101677200D01*
X127463809Y-101677200D02*
X127320952Y-101724819D01*
X127320952Y-101724819D02*
X127225714Y-101724819D01*
X128606666Y-101724819D02*
X128035238Y-101724819D01*
X128320952Y-101724819D02*
X128320952Y-100724819D01*
X128320952Y-100724819D02*
X128225714Y-100867676D01*
X128225714Y-100867676D02*
X128130476Y-100962914D01*
X128130476Y-100962914D02*
X128035238Y-101010533D01*
X154840476Y-101439104D02*
X155316666Y-101439104D01*
X154745238Y-101724819D02*
X155078571Y-100724819D01*
X155078571Y-100724819D02*
X155411904Y-101724819D01*
X155745238Y-101058152D02*
X155745238Y-101724819D01*
X155745238Y-101153390D02*
X155792857Y-101105771D01*
X155792857Y-101105771D02*
X155888095Y-101058152D01*
X155888095Y-101058152D02*
X156030952Y-101058152D01*
X156030952Y-101058152D02*
X156126190Y-101105771D01*
X156126190Y-101105771D02*
X156173809Y-101201009D01*
X156173809Y-101201009D02*
X156173809Y-101724819D01*
X157078571Y-101724819D02*
X157078571Y-101201009D01*
X157078571Y-101201009D02*
X157030952Y-101105771D01*
X157030952Y-101105771D02*
X156935714Y-101058152D01*
X156935714Y-101058152D02*
X156745238Y-101058152D01*
X156745238Y-101058152D02*
X156650000Y-101105771D01*
X157078571Y-101677200D02*
X156983333Y-101724819D01*
X156983333Y-101724819D02*
X156745238Y-101724819D01*
X156745238Y-101724819D02*
X156650000Y-101677200D01*
X156650000Y-101677200D02*
X156602381Y-101581961D01*
X156602381Y-101581961D02*
X156602381Y-101486723D01*
X156602381Y-101486723D02*
X156650000Y-101391485D01*
X156650000Y-101391485D02*
X156745238Y-101343866D01*
X156745238Y-101343866D02*
X156983333Y-101343866D01*
X156983333Y-101343866D02*
X157078571Y-101296247D01*
X157697619Y-101724819D02*
X157602381Y-101677200D01*
X157602381Y-101677200D02*
X157554762Y-101581961D01*
X157554762Y-101581961D02*
X157554762Y-100724819D01*
X158221429Y-101724819D02*
X158126191Y-101677200D01*
X158126191Y-101677200D02*
X158078572Y-101629580D01*
X158078572Y-101629580D02*
X158030953Y-101534342D01*
X158030953Y-101534342D02*
X158030953Y-101248628D01*
X158030953Y-101248628D02*
X158078572Y-101153390D01*
X158078572Y-101153390D02*
X158126191Y-101105771D01*
X158126191Y-101105771D02*
X158221429Y-101058152D01*
X158221429Y-101058152D02*
X158364286Y-101058152D01*
X158364286Y-101058152D02*
X158459524Y-101105771D01*
X158459524Y-101105771D02*
X158507143Y-101153390D01*
X158507143Y-101153390D02*
X158554762Y-101248628D01*
X158554762Y-101248628D02*
X158554762Y-101534342D01*
X158554762Y-101534342D02*
X158507143Y-101629580D01*
X158507143Y-101629580D02*
X158459524Y-101677200D01*
X158459524Y-101677200D02*
X158364286Y-101724819D01*
X158364286Y-101724819D02*
X158221429Y-101724819D01*
X159411905Y-101058152D02*
X159411905Y-101867676D01*
X159411905Y-101867676D02*
X159364286Y-101962914D01*
X159364286Y-101962914D02*
X159316667Y-102010533D01*
X159316667Y-102010533D02*
X159221429Y-102058152D01*
X159221429Y-102058152D02*
X159078572Y-102058152D01*
X159078572Y-102058152D02*
X158983334Y-102010533D01*
X159411905Y-101677200D02*
X159316667Y-101724819D01*
X159316667Y-101724819D02*
X159126191Y-101724819D01*
X159126191Y-101724819D02*
X159030953Y-101677200D01*
X159030953Y-101677200D02*
X158983334Y-101629580D01*
X158983334Y-101629580D02*
X158935715Y-101534342D01*
X158935715Y-101534342D02*
X158935715Y-101248628D01*
X158935715Y-101248628D02*
X158983334Y-101153390D01*
X158983334Y-101153390D02*
X159030953Y-101105771D01*
X159030953Y-101105771D02*
X159126191Y-101058152D01*
X159126191Y-101058152D02*
X159316667Y-101058152D01*
X159316667Y-101058152D02*
X159411905Y-101105771D01*
X150466666Y-100724819D02*
X150466666Y-101439104D01*
X150466666Y-101439104D02*
X150419047Y-101581961D01*
X150419047Y-101581961D02*
X150323809Y-101677200D01*
X150323809Y-101677200D02*
X150180952Y-101724819D01*
X150180952Y-101724819D02*
X150085714Y-101724819D01*
X150847619Y-100724819D02*
X151466666Y-100724819D01*
X151466666Y-100724819D02*
X151133333Y-101105771D01*
X151133333Y-101105771D02*
X151276190Y-101105771D01*
X151276190Y-101105771D02*
X151371428Y-101153390D01*
X151371428Y-101153390D02*
X151419047Y-101201009D01*
X151419047Y-101201009D02*
X151466666Y-101296247D01*
X151466666Y-101296247D02*
X151466666Y-101534342D01*
X151466666Y-101534342D02*
X151419047Y-101629580D01*
X151419047Y-101629580D02*
X151371428Y-101677200D01*
X151371428Y-101677200D02*
X151276190Y-101724819D01*
X151276190Y-101724819D02*
X150990476Y-101724819D01*
X150990476Y-101724819D02*
X150895238Y-101677200D01*
X150895238Y-101677200D02*
X150847619Y-101629580D01*
X125868857Y-45844819D02*
X125868857Y-44844819D01*
X125868857Y-44844819D02*
X126106952Y-44844819D01*
X126106952Y-44844819D02*
X126249809Y-44892438D01*
X126249809Y-44892438D02*
X126345047Y-44987676D01*
X126345047Y-44987676D02*
X126392666Y-45082914D01*
X126392666Y-45082914D02*
X126440285Y-45273390D01*
X126440285Y-45273390D02*
X126440285Y-45416247D01*
X126440285Y-45416247D02*
X126392666Y-45606723D01*
X126392666Y-45606723D02*
X126345047Y-45701961D01*
X126345047Y-45701961D02*
X126249809Y-45797200D01*
X126249809Y-45797200D02*
X126106952Y-45844819D01*
X126106952Y-45844819D02*
X125868857Y-45844819D01*
X126868857Y-45844819D02*
X126868857Y-45178152D01*
X126868857Y-44844819D02*
X126821238Y-44892438D01*
X126821238Y-44892438D02*
X126868857Y-44940057D01*
X126868857Y-44940057D02*
X126916476Y-44892438D01*
X126916476Y-44892438D02*
X126868857Y-44844819D01*
X126868857Y-44844819D02*
X126868857Y-44940057D01*
X127773618Y-45178152D02*
X127773618Y-45987676D01*
X127773618Y-45987676D02*
X127725999Y-46082914D01*
X127725999Y-46082914D02*
X127678380Y-46130533D01*
X127678380Y-46130533D02*
X127583142Y-46178152D01*
X127583142Y-46178152D02*
X127440285Y-46178152D01*
X127440285Y-46178152D02*
X127345047Y-46130533D01*
X127773618Y-45797200D02*
X127678380Y-45844819D01*
X127678380Y-45844819D02*
X127487904Y-45844819D01*
X127487904Y-45844819D02*
X127392666Y-45797200D01*
X127392666Y-45797200D02*
X127345047Y-45749580D01*
X127345047Y-45749580D02*
X127297428Y-45654342D01*
X127297428Y-45654342D02*
X127297428Y-45368628D01*
X127297428Y-45368628D02*
X127345047Y-45273390D01*
X127345047Y-45273390D02*
X127392666Y-45225771D01*
X127392666Y-45225771D02*
X127487904Y-45178152D01*
X127487904Y-45178152D02*
X127678380Y-45178152D01*
X127678380Y-45178152D02*
X127773618Y-45225771D01*
X128249809Y-45844819D02*
X128249809Y-45178152D01*
X128249809Y-44844819D02*
X128202190Y-44892438D01*
X128202190Y-44892438D02*
X128249809Y-44940057D01*
X128249809Y-44940057D02*
X128297428Y-44892438D01*
X128297428Y-44892438D02*
X128249809Y-44844819D01*
X128249809Y-44844819D02*
X128249809Y-44940057D01*
X128583142Y-45178152D02*
X128964094Y-45178152D01*
X128725999Y-44844819D02*
X128725999Y-45701961D01*
X128725999Y-45701961D02*
X128773618Y-45797200D01*
X128773618Y-45797200D02*
X128868856Y-45844819D01*
X128868856Y-45844819D02*
X128964094Y-45844819D01*
X129725999Y-45844819D02*
X129725999Y-45321009D01*
X129725999Y-45321009D02*
X129678380Y-45225771D01*
X129678380Y-45225771D02*
X129583142Y-45178152D01*
X129583142Y-45178152D02*
X129392666Y-45178152D01*
X129392666Y-45178152D02*
X129297428Y-45225771D01*
X129725999Y-45797200D02*
X129630761Y-45844819D01*
X129630761Y-45844819D02*
X129392666Y-45844819D01*
X129392666Y-45844819D02*
X129297428Y-45797200D01*
X129297428Y-45797200D02*
X129249809Y-45701961D01*
X129249809Y-45701961D02*
X129249809Y-45606723D01*
X129249809Y-45606723D02*
X129297428Y-45511485D01*
X129297428Y-45511485D02*
X129392666Y-45463866D01*
X129392666Y-45463866D02*
X129630761Y-45463866D01*
X129630761Y-45463866D02*
X129725999Y-45416247D01*
X130345047Y-45844819D02*
X130249809Y-45797200D01*
X130249809Y-45797200D02*
X130202190Y-45701961D01*
X130202190Y-45701961D02*
X130202190Y-44844819D01*
X131440285Y-44797200D02*
X130583143Y-46082914D01*
X131773619Y-45844819D02*
X131773619Y-44844819D01*
X131773619Y-44844819D02*
X132154571Y-44844819D01*
X132154571Y-44844819D02*
X132249809Y-44892438D01*
X132249809Y-44892438D02*
X132297428Y-44940057D01*
X132297428Y-44940057D02*
X132345047Y-45035295D01*
X132345047Y-45035295D02*
X132345047Y-45178152D01*
X132345047Y-45178152D02*
X132297428Y-45273390D01*
X132297428Y-45273390D02*
X132249809Y-45321009D01*
X132249809Y-45321009D02*
X132154571Y-45368628D01*
X132154571Y-45368628D02*
X131773619Y-45368628D01*
X132678381Y-44844819D02*
X132916476Y-45844819D01*
X132916476Y-45844819D02*
X133106952Y-45130533D01*
X133106952Y-45130533D02*
X133297428Y-45844819D01*
X133297428Y-45844819D02*
X133535524Y-44844819D01*
X133916476Y-45844819D02*
X133916476Y-44844819D01*
X133916476Y-44844819D02*
X134249809Y-45559104D01*
X134249809Y-45559104D02*
X134583142Y-44844819D01*
X134583142Y-44844819D02*
X134583142Y-45844819D01*
X118462666Y-44844819D02*
X118462666Y-45559104D01*
X118462666Y-45559104D02*
X118415047Y-45701961D01*
X118415047Y-45701961D02*
X118319809Y-45797200D01*
X118319809Y-45797200D02*
X118176952Y-45844819D01*
X118176952Y-45844819D02*
X118081714Y-45844819D01*
X118891238Y-44940057D02*
X118938857Y-44892438D01*
X118938857Y-44892438D02*
X119034095Y-44844819D01*
X119034095Y-44844819D02*
X119272190Y-44844819D01*
X119272190Y-44844819D02*
X119367428Y-44892438D01*
X119367428Y-44892438D02*
X119415047Y-44940057D01*
X119415047Y-44940057D02*
X119462666Y-45035295D01*
X119462666Y-45035295D02*
X119462666Y-45130533D01*
X119462666Y-45130533D02*
X119415047Y-45273390D01*
X119415047Y-45273390D02*
X118843619Y-45844819D01*
X118843619Y-45844819D02*
X119462666Y-45844819D01*
X150252857Y-45844819D02*
X150252857Y-44844819D01*
X150252857Y-44844819D02*
X150490952Y-44844819D01*
X150490952Y-44844819D02*
X150633809Y-44892438D01*
X150633809Y-44892438D02*
X150729047Y-44987676D01*
X150729047Y-44987676D02*
X150776666Y-45082914D01*
X150776666Y-45082914D02*
X150824285Y-45273390D01*
X150824285Y-45273390D02*
X150824285Y-45416247D01*
X150824285Y-45416247D02*
X150776666Y-45606723D01*
X150776666Y-45606723D02*
X150729047Y-45701961D01*
X150729047Y-45701961D02*
X150633809Y-45797200D01*
X150633809Y-45797200D02*
X150490952Y-45844819D01*
X150490952Y-45844819D02*
X150252857Y-45844819D01*
X151252857Y-45844819D02*
X151252857Y-45178152D01*
X151252857Y-44844819D02*
X151205238Y-44892438D01*
X151205238Y-44892438D02*
X151252857Y-44940057D01*
X151252857Y-44940057D02*
X151300476Y-44892438D01*
X151300476Y-44892438D02*
X151252857Y-44844819D01*
X151252857Y-44844819D02*
X151252857Y-44940057D01*
X152157618Y-45178152D02*
X152157618Y-45987676D01*
X152157618Y-45987676D02*
X152109999Y-46082914D01*
X152109999Y-46082914D02*
X152062380Y-46130533D01*
X152062380Y-46130533D02*
X151967142Y-46178152D01*
X151967142Y-46178152D02*
X151824285Y-46178152D01*
X151824285Y-46178152D02*
X151729047Y-46130533D01*
X152157618Y-45797200D02*
X152062380Y-45844819D01*
X152062380Y-45844819D02*
X151871904Y-45844819D01*
X151871904Y-45844819D02*
X151776666Y-45797200D01*
X151776666Y-45797200D02*
X151729047Y-45749580D01*
X151729047Y-45749580D02*
X151681428Y-45654342D01*
X151681428Y-45654342D02*
X151681428Y-45368628D01*
X151681428Y-45368628D02*
X151729047Y-45273390D01*
X151729047Y-45273390D02*
X151776666Y-45225771D01*
X151776666Y-45225771D02*
X151871904Y-45178152D01*
X151871904Y-45178152D02*
X152062380Y-45178152D01*
X152062380Y-45178152D02*
X152157618Y-45225771D01*
X152633809Y-45844819D02*
X152633809Y-45178152D01*
X152633809Y-44844819D02*
X152586190Y-44892438D01*
X152586190Y-44892438D02*
X152633809Y-44940057D01*
X152633809Y-44940057D02*
X152681428Y-44892438D01*
X152681428Y-44892438D02*
X152633809Y-44844819D01*
X152633809Y-44844819D02*
X152633809Y-44940057D01*
X152967142Y-45178152D02*
X153348094Y-45178152D01*
X153109999Y-44844819D02*
X153109999Y-45701961D01*
X153109999Y-45701961D02*
X153157618Y-45797200D01*
X153157618Y-45797200D02*
X153252856Y-45844819D01*
X153252856Y-45844819D02*
X153348094Y-45844819D01*
X154109999Y-45844819D02*
X154109999Y-45321009D01*
X154109999Y-45321009D02*
X154062380Y-45225771D01*
X154062380Y-45225771D02*
X153967142Y-45178152D01*
X153967142Y-45178152D02*
X153776666Y-45178152D01*
X153776666Y-45178152D02*
X153681428Y-45225771D01*
X154109999Y-45797200D02*
X154014761Y-45844819D01*
X154014761Y-45844819D02*
X153776666Y-45844819D01*
X153776666Y-45844819D02*
X153681428Y-45797200D01*
X153681428Y-45797200D02*
X153633809Y-45701961D01*
X153633809Y-45701961D02*
X153633809Y-45606723D01*
X153633809Y-45606723D02*
X153681428Y-45511485D01*
X153681428Y-45511485D02*
X153776666Y-45463866D01*
X153776666Y-45463866D02*
X154014761Y-45463866D01*
X154014761Y-45463866D02*
X154109999Y-45416247D01*
X154729047Y-45844819D02*
X154633809Y-45797200D01*
X154633809Y-45797200D02*
X154586190Y-45701961D01*
X154586190Y-45701961D02*
X154586190Y-44844819D01*
X155824285Y-44797200D02*
X154967143Y-46082914D01*
X156157619Y-45844819D02*
X156157619Y-44844819D01*
X156157619Y-44844819D02*
X156538571Y-44844819D01*
X156538571Y-44844819D02*
X156633809Y-44892438D01*
X156633809Y-44892438D02*
X156681428Y-44940057D01*
X156681428Y-44940057D02*
X156729047Y-45035295D01*
X156729047Y-45035295D02*
X156729047Y-45178152D01*
X156729047Y-45178152D02*
X156681428Y-45273390D01*
X156681428Y-45273390D02*
X156633809Y-45321009D01*
X156633809Y-45321009D02*
X156538571Y-45368628D01*
X156538571Y-45368628D02*
X156157619Y-45368628D01*
X157062381Y-44844819D02*
X157300476Y-45844819D01*
X157300476Y-45844819D02*
X157490952Y-45130533D01*
X157490952Y-45130533D02*
X157681428Y-45844819D01*
X157681428Y-45844819D02*
X157919524Y-44844819D01*
X158300476Y-45844819D02*
X158300476Y-44844819D01*
X158300476Y-44844819D02*
X158633809Y-45559104D01*
X158633809Y-45559104D02*
X158967142Y-44844819D01*
X158967142Y-44844819D02*
X158967142Y-45844819D01*
X145386666Y-44844819D02*
X145386666Y-45559104D01*
X145386666Y-45559104D02*
X145339047Y-45701961D01*
X145339047Y-45701961D02*
X145243809Y-45797200D01*
X145243809Y-45797200D02*
X145100952Y-45844819D01*
X145100952Y-45844819D02*
X145005714Y-45844819D01*
X146291428Y-45178152D02*
X146291428Y-45844819D01*
X146053333Y-44797200D02*
X145815238Y-45511485D01*
X145815238Y-45511485D02*
X146434285Y-45511485D01*
X145122819Y-62677713D02*
X145122819Y-62058666D01*
X145122819Y-62058666D02*
X145503771Y-62391999D01*
X145503771Y-62391999D02*
X145503771Y-62249142D01*
X145503771Y-62249142D02*
X145551390Y-62153904D01*
X145551390Y-62153904D02*
X145599009Y-62106285D01*
X145599009Y-62106285D02*
X145694247Y-62058666D01*
X145694247Y-62058666D02*
X145932342Y-62058666D01*
X145932342Y-62058666D02*
X146027580Y-62106285D01*
X146027580Y-62106285D02*
X146075200Y-62153904D01*
X146075200Y-62153904D02*
X146122819Y-62249142D01*
X146122819Y-62249142D02*
X146122819Y-62534856D01*
X146122819Y-62534856D02*
X146075200Y-62630094D01*
X146075200Y-62630094D02*
X146027580Y-62677713D01*
X145122819Y-61725332D02*
X145122819Y-61106285D01*
X145122819Y-61106285D02*
X145503771Y-61439618D01*
X145503771Y-61439618D02*
X145503771Y-61296761D01*
X145503771Y-61296761D02*
X145551390Y-61201523D01*
X145551390Y-61201523D02*
X145599009Y-61153904D01*
X145599009Y-61153904D02*
X145694247Y-61106285D01*
X145694247Y-61106285D02*
X145932342Y-61106285D01*
X145932342Y-61106285D02*
X146027580Y-61153904D01*
X146027580Y-61153904D02*
X146075200Y-61201523D01*
X146075200Y-61201523D02*
X146122819Y-61296761D01*
X146122819Y-61296761D02*
X146122819Y-61582475D01*
X146122819Y-61582475D02*
X146075200Y-61677713D01*
X146075200Y-61677713D02*
X146027580Y-61725332D01*
X145122819Y-60487237D02*
X145122819Y-60391999D01*
X145122819Y-60391999D02*
X145170438Y-60296761D01*
X145170438Y-60296761D02*
X145218057Y-60249142D01*
X145218057Y-60249142D02*
X145313295Y-60201523D01*
X145313295Y-60201523D02*
X145503771Y-60153904D01*
X145503771Y-60153904D02*
X145741866Y-60153904D01*
X145741866Y-60153904D02*
X145932342Y-60201523D01*
X145932342Y-60201523D02*
X146027580Y-60249142D01*
X146027580Y-60249142D02*
X146075200Y-60296761D01*
X146075200Y-60296761D02*
X146122819Y-60391999D01*
X146122819Y-60391999D02*
X146122819Y-60487237D01*
X146122819Y-60487237D02*
X146075200Y-60582475D01*
X146075200Y-60582475D02*
X146027580Y-60630094D01*
X146027580Y-60630094D02*
X145932342Y-60677713D01*
X145932342Y-60677713D02*
X145741866Y-60725332D01*
X145741866Y-60725332D02*
X145503771Y-60725332D01*
X145503771Y-60725332D02*
X145313295Y-60677713D01*
X145313295Y-60677713D02*
X145218057Y-60630094D01*
X145218057Y-60630094D02*
X145170438Y-60582475D01*
X145170438Y-60582475D02*
X145122819Y-60487237D01*
X143752819Y-61558666D02*
X143276628Y-61891999D01*
X143752819Y-62130094D02*
X142752819Y-62130094D01*
X142752819Y-62130094D02*
X142752819Y-61749142D01*
X142752819Y-61749142D02*
X142800438Y-61653904D01*
X142800438Y-61653904D02*
X142848057Y-61606285D01*
X142848057Y-61606285D02*
X142943295Y-61558666D01*
X142943295Y-61558666D02*
X143086152Y-61558666D01*
X143086152Y-61558666D02*
X143181390Y-61606285D01*
X143181390Y-61606285D02*
X143229009Y-61653904D01*
X143229009Y-61653904D02*
X143276628Y-61749142D01*
X143276628Y-61749142D02*
X143276628Y-62130094D01*
X142848057Y-61177713D02*
X142800438Y-61130094D01*
X142800438Y-61130094D02*
X142752819Y-61034856D01*
X142752819Y-61034856D02*
X142752819Y-60796761D01*
X142752819Y-60796761D02*
X142800438Y-60701523D01*
X142800438Y-60701523D02*
X142848057Y-60653904D01*
X142848057Y-60653904D02*
X142943295Y-60606285D01*
X142943295Y-60606285D02*
X143038533Y-60606285D01*
X143038533Y-60606285D02*
X143181390Y-60653904D01*
X143181390Y-60653904D02*
X143752819Y-61225332D01*
X143752819Y-61225332D02*
X143752819Y-60606285D01*
X154332819Y-70416857D02*
X154332819Y-70893047D01*
X154332819Y-70893047D02*
X153332819Y-70893047D01*
X153809009Y-70083523D02*
X153809009Y-69750190D01*
X154332819Y-69607333D02*
X154332819Y-70083523D01*
X154332819Y-70083523D02*
X153332819Y-70083523D01*
X153332819Y-70083523D02*
X153332819Y-69607333D01*
X154332819Y-69178761D02*
X153332819Y-69178761D01*
X153332819Y-69178761D02*
X153332819Y-68940666D01*
X153332819Y-68940666D02*
X153380438Y-68797809D01*
X153380438Y-68797809D02*
X153475676Y-68702571D01*
X153475676Y-68702571D02*
X153570914Y-68654952D01*
X153570914Y-68654952D02*
X153761390Y-68607333D01*
X153761390Y-68607333D02*
X153904247Y-68607333D01*
X153904247Y-68607333D02*
X154094723Y-68654952D01*
X154094723Y-68654952D02*
X154189961Y-68702571D01*
X154189961Y-68702571D02*
X154285200Y-68797809D01*
X154285200Y-68797809D02*
X154332819Y-68940666D01*
X154332819Y-68940666D02*
X154332819Y-69178761D01*
D12*
X151281855Y-71697809D02*
X150900902Y-71964476D01*
X151281855Y-72154952D02*
X150481855Y-72154952D01*
X150481855Y-72154952D02*
X150481855Y-71850190D01*
X150481855Y-71850190D02*
X150519950Y-71774000D01*
X150519950Y-71774000D02*
X150558045Y-71735905D01*
X150558045Y-71735905D02*
X150634236Y-71697809D01*
X150634236Y-71697809D02*
X150748521Y-71697809D01*
X150748521Y-71697809D02*
X150824712Y-71735905D01*
X150824712Y-71735905D02*
X150862807Y-71774000D01*
X150862807Y-71774000D02*
X150900902Y-71850190D01*
X150900902Y-71850190D02*
X150900902Y-72154952D01*
X151243760Y-71050190D02*
X151281855Y-71126381D01*
X151281855Y-71126381D02*
X151281855Y-71278762D01*
X151281855Y-71278762D02*
X151243760Y-71354952D01*
X151243760Y-71354952D02*
X151167569Y-71393048D01*
X151167569Y-71393048D02*
X150862807Y-71393048D01*
X150862807Y-71393048D02*
X150786617Y-71354952D01*
X150786617Y-71354952D02*
X150748521Y-71278762D01*
X150748521Y-71278762D02*
X150748521Y-71126381D01*
X150748521Y-71126381D02*
X150786617Y-71050190D01*
X150786617Y-71050190D02*
X150862807Y-71012095D01*
X150862807Y-71012095D02*
X150938998Y-71012095D01*
X150938998Y-71012095D02*
X151015188Y-71393048D01*
X151281855Y-70326381D02*
X150481855Y-70326381D01*
X151243760Y-70326381D02*
X151281855Y-70402572D01*
X151281855Y-70402572D02*
X151281855Y-70554953D01*
X151281855Y-70554953D02*
X151243760Y-70631143D01*
X151243760Y-70631143D02*
X151205664Y-70669238D01*
X151205664Y-70669238D02*
X151129474Y-70707334D01*
X151129474Y-70707334D02*
X150900902Y-70707334D01*
X150900902Y-70707334D02*
X150824712Y-70669238D01*
X150824712Y-70669238D02*
X150786617Y-70631143D01*
X150786617Y-70631143D02*
X150748521Y-70554953D01*
X150748521Y-70554953D02*
X150748521Y-70402572D01*
X150748521Y-70402572D02*
X150786617Y-70326381D01*
X151281855Y-69564476D02*
X151281855Y-69945428D01*
X151281855Y-69945428D02*
X150481855Y-69945428D01*
X150862807Y-69297809D02*
X150862807Y-69031143D01*
X151281855Y-68916857D02*
X151281855Y-69297809D01*
X151281855Y-69297809D02*
X150481855Y-69297809D01*
X150481855Y-69297809D02*
X150481855Y-68916857D01*
X151281855Y-68573999D02*
X150481855Y-68573999D01*
X150481855Y-68573999D02*
X150481855Y-68383523D01*
X150481855Y-68383523D02*
X150519950Y-68269237D01*
X150519950Y-68269237D02*
X150596140Y-68193047D01*
X150596140Y-68193047D02*
X150672331Y-68154952D01*
X150672331Y-68154952D02*
X150824712Y-68116856D01*
X150824712Y-68116856D02*
X150938998Y-68116856D01*
X150938998Y-68116856D02*
X151091379Y-68154952D01*
X151091379Y-68154952D02*
X151167569Y-68193047D01*
X151167569Y-68193047D02*
X151243760Y-68269237D01*
X151243760Y-68269237D02*
X151281855Y-68383523D01*
X151281855Y-68383523D02*
X151281855Y-68573999D01*
X151281855Y-67354952D02*
X151281855Y-67812095D01*
X151281855Y-67583523D02*
X150481855Y-67583523D01*
X150481855Y-67583523D02*
X150596140Y-67659714D01*
X150596140Y-67659714D02*
X150672331Y-67735904D01*
X150672331Y-67735904D02*
X150710426Y-67812095D01*
D10*
X141092819Y-62729713D02*
X141092819Y-62110666D01*
X141092819Y-62110666D02*
X141473771Y-62443999D01*
X141473771Y-62443999D02*
X141473771Y-62301142D01*
X141473771Y-62301142D02*
X141521390Y-62205904D01*
X141521390Y-62205904D02*
X141569009Y-62158285D01*
X141569009Y-62158285D02*
X141664247Y-62110666D01*
X141664247Y-62110666D02*
X141902342Y-62110666D01*
X141902342Y-62110666D02*
X141997580Y-62158285D01*
X141997580Y-62158285D02*
X142045200Y-62205904D01*
X142045200Y-62205904D02*
X142092819Y-62301142D01*
X142092819Y-62301142D02*
X142092819Y-62586856D01*
X142092819Y-62586856D02*
X142045200Y-62682094D01*
X142045200Y-62682094D02*
X141997580Y-62729713D01*
X141092819Y-61777332D02*
X141092819Y-61158285D01*
X141092819Y-61158285D02*
X141473771Y-61491618D01*
X141473771Y-61491618D02*
X141473771Y-61348761D01*
X141473771Y-61348761D02*
X141521390Y-61253523D01*
X141521390Y-61253523D02*
X141569009Y-61205904D01*
X141569009Y-61205904D02*
X141664247Y-61158285D01*
X141664247Y-61158285D02*
X141902342Y-61158285D01*
X141902342Y-61158285D02*
X141997580Y-61205904D01*
X141997580Y-61205904D02*
X142045200Y-61253523D01*
X142045200Y-61253523D02*
X142092819Y-61348761D01*
X142092819Y-61348761D02*
X142092819Y-61634475D01*
X142092819Y-61634475D02*
X142045200Y-61729713D01*
X142045200Y-61729713D02*
X141997580Y-61777332D01*
X141092819Y-60539237D02*
X141092819Y-60443999D01*
X141092819Y-60443999D02*
X141140438Y-60348761D01*
X141140438Y-60348761D02*
X141188057Y-60301142D01*
X141188057Y-60301142D02*
X141283295Y-60253523D01*
X141283295Y-60253523D02*
X141473771Y-60205904D01*
X141473771Y-60205904D02*
X141711866Y-60205904D01*
X141711866Y-60205904D02*
X141902342Y-60253523D01*
X141902342Y-60253523D02*
X141997580Y-60301142D01*
X141997580Y-60301142D02*
X142045200Y-60348761D01*
X142045200Y-60348761D02*
X142092819Y-60443999D01*
X142092819Y-60443999D02*
X142092819Y-60539237D01*
X142092819Y-60539237D02*
X142045200Y-60634475D01*
X142045200Y-60634475D02*
X141997580Y-60682094D01*
X141997580Y-60682094D02*
X141902342Y-60729713D01*
X141902342Y-60729713D02*
X141711866Y-60777332D01*
X141711866Y-60777332D02*
X141473771Y-60777332D01*
X141473771Y-60777332D02*
X141283295Y-60729713D01*
X141283295Y-60729713D02*
X141188057Y-60682094D01*
X141188057Y-60682094D02*
X141140438Y-60634475D01*
X141140438Y-60634475D02*
X141092819Y-60539237D01*
X139722819Y-61610666D02*
X139246628Y-61943999D01*
X139722819Y-62182094D02*
X138722819Y-62182094D01*
X138722819Y-62182094D02*
X138722819Y-61801142D01*
X138722819Y-61801142D02*
X138770438Y-61705904D01*
X138770438Y-61705904D02*
X138818057Y-61658285D01*
X138818057Y-61658285D02*
X138913295Y-61610666D01*
X138913295Y-61610666D02*
X139056152Y-61610666D01*
X139056152Y-61610666D02*
X139151390Y-61658285D01*
X139151390Y-61658285D02*
X139199009Y-61705904D01*
X139199009Y-61705904D02*
X139246628Y-61801142D01*
X139246628Y-61801142D02*
X139246628Y-62182094D01*
X139722819Y-60658285D02*
X139722819Y-61229713D01*
X139722819Y-60943999D02*
X138722819Y-60943999D01*
X138722819Y-60943999D02*
X138865676Y-61039237D01*
X138865676Y-61039237D02*
X138960914Y-61134475D01*
X138960914Y-61134475D02*
X139008533Y-61229713D01*
X148862819Y-70416857D02*
X148862819Y-70893047D01*
X148862819Y-70893047D02*
X147862819Y-70893047D01*
X148339009Y-70083523D02*
X148339009Y-69750190D01*
X148862819Y-69607333D02*
X148862819Y-70083523D01*
X148862819Y-70083523D02*
X147862819Y-70083523D01*
X147862819Y-70083523D02*
X147862819Y-69607333D01*
X148862819Y-69178761D02*
X147862819Y-69178761D01*
X147862819Y-69178761D02*
X147862819Y-68940666D01*
X147862819Y-68940666D02*
X147910438Y-68797809D01*
X147910438Y-68797809D02*
X148005676Y-68702571D01*
X148005676Y-68702571D02*
X148100914Y-68654952D01*
X148100914Y-68654952D02*
X148291390Y-68607333D01*
X148291390Y-68607333D02*
X148434247Y-68607333D01*
X148434247Y-68607333D02*
X148624723Y-68654952D01*
X148624723Y-68654952D02*
X148719961Y-68702571D01*
X148719961Y-68702571D02*
X148815200Y-68797809D01*
X148815200Y-68797809D02*
X148862819Y-68940666D01*
X148862819Y-68940666D02*
X148862819Y-69178761D01*
D12*
X145049950Y-72326381D02*
X145011855Y-72402571D01*
X145011855Y-72402571D02*
X145011855Y-72516857D01*
X145011855Y-72516857D02*
X145049950Y-72631143D01*
X145049950Y-72631143D02*
X145126140Y-72707333D01*
X145126140Y-72707333D02*
X145202331Y-72745428D01*
X145202331Y-72745428D02*
X145354712Y-72783524D01*
X145354712Y-72783524D02*
X145468998Y-72783524D01*
X145468998Y-72783524D02*
X145621379Y-72745428D01*
X145621379Y-72745428D02*
X145697569Y-72707333D01*
X145697569Y-72707333D02*
X145773760Y-72631143D01*
X145773760Y-72631143D02*
X145811855Y-72516857D01*
X145811855Y-72516857D02*
X145811855Y-72440666D01*
X145811855Y-72440666D02*
X145773760Y-72326381D01*
X145773760Y-72326381D02*
X145735664Y-72288285D01*
X145735664Y-72288285D02*
X145468998Y-72288285D01*
X145468998Y-72288285D02*
X145468998Y-72440666D01*
X145811855Y-71945428D02*
X145278521Y-71945428D01*
X145430902Y-71945428D02*
X145354712Y-71907333D01*
X145354712Y-71907333D02*
X145316617Y-71869238D01*
X145316617Y-71869238D02*
X145278521Y-71793047D01*
X145278521Y-71793047D02*
X145278521Y-71716857D01*
X145773760Y-71145428D02*
X145811855Y-71221619D01*
X145811855Y-71221619D02*
X145811855Y-71374000D01*
X145811855Y-71374000D02*
X145773760Y-71450190D01*
X145773760Y-71450190D02*
X145697569Y-71488286D01*
X145697569Y-71488286D02*
X145392807Y-71488286D01*
X145392807Y-71488286D02*
X145316617Y-71450190D01*
X145316617Y-71450190D02*
X145278521Y-71374000D01*
X145278521Y-71374000D02*
X145278521Y-71221619D01*
X145278521Y-71221619D02*
X145316617Y-71145428D01*
X145316617Y-71145428D02*
X145392807Y-71107333D01*
X145392807Y-71107333D02*
X145468998Y-71107333D01*
X145468998Y-71107333D02*
X145545188Y-71488286D01*
X145773760Y-70459714D02*
X145811855Y-70535905D01*
X145811855Y-70535905D02*
X145811855Y-70688286D01*
X145811855Y-70688286D02*
X145773760Y-70764476D01*
X145773760Y-70764476D02*
X145697569Y-70802572D01*
X145697569Y-70802572D02*
X145392807Y-70802572D01*
X145392807Y-70802572D02*
X145316617Y-70764476D01*
X145316617Y-70764476D02*
X145278521Y-70688286D01*
X145278521Y-70688286D02*
X145278521Y-70535905D01*
X145278521Y-70535905D02*
X145316617Y-70459714D01*
X145316617Y-70459714D02*
X145392807Y-70421619D01*
X145392807Y-70421619D02*
X145468998Y-70421619D01*
X145468998Y-70421619D02*
X145545188Y-70802572D01*
X145278521Y-70078762D02*
X145811855Y-70078762D01*
X145354712Y-70078762D02*
X145316617Y-70040667D01*
X145316617Y-70040667D02*
X145278521Y-69964477D01*
X145278521Y-69964477D02*
X145278521Y-69850191D01*
X145278521Y-69850191D02*
X145316617Y-69774000D01*
X145316617Y-69774000D02*
X145392807Y-69735905D01*
X145392807Y-69735905D02*
X145811855Y-69735905D01*
X145811855Y-68974000D02*
X145811855Y-69354952D01*
X145811855Y-69354952D02*
X145011855Y-69354952D01*
X145392807Y-68707333D02*
X145392807Y-68440667D01*
X145811855Y-68326381D02*
X145811855Y-68707333D01*
X145811855Y-68707333D02*
X145011855Y-68707333D01*
X145011855Y-68707333D02*
X145011855Y-68326381D01*
X145811855Y-67983523D02*
X145011855Y-67983523D01*
X145011855Y-67983523D02*
X145011855Y-67793047D01*
X145011855Y-67793047D02*
X145049950Y-67678761D01*
X145049950Y-67678761D02*
X145126140Y-67602571D01*
X145126140Y-67602571D02*
X145202331Y-67564476D01*
X145202331Y-67564476D02*
X145354712Y-67526380D01*
X145354712Y-67526380D02*
X145468998Y-67526380D01*
X145468998Y-67526380D02*
X145621379Y-67564476D01*
X145621379Y-67564476D02*
X145697569Y-67602571D01*
X145697569Y-67602571D02*
X145773760Y-67678761D01*
X145773760Y-67678761D02*
X145811855Y-67793047D01*
X145811855Y-67793047D02*
X145811855Y-67983523D01*
X145811855Y-66764476D02*
X145811855Y-67221619D01*
X145811855Y-66993047D02*
X145011855Y-66993047D01*
X145011855Y-66993047D02*
X145126140Y-67069238D01*
X145126140Y-67069238D02*
X145202331Y-67145428D01*
X145202331Y-67145428D02*
X145240426Y-67221619D01*
D10*
X153574819Y-62241238D02*
X153574819Y-62812666D01*
X153574819Y-62526952D02*
X152574819Y-62526952D01*
X152574819Y-62526952D02*
X152717676Y-62622190D01*
X152717676Y-62622190D02*
X152812914Y-62717428D01*
X152812914Y-62717428D02*
X152860533Y-62812666D01*
X152574819Y-61622190D02*
X152574819Y-61526952D01*
X152574819Y-61526952D02*
X152622438Y-61431714D01*
X152622438Y-61431714D02*
X152670057Y-61384095D01*
X152670057Y-61384095D02*
X152765295Y-61336476D01*
X152765295Y-61336476D02*
X152955771Y-61288857D01*
X152955771Y-61288857D02*
X153193866Y-61288857D01*
X153193866Y-61288857D02*
X153384342Y-61336476D01*
X153384342Y-61336476D02*
X153479580Y-61384095D01*
X153479580Y-61384095D02*
X153527200Y-61431714D01*
X153527200Y-61431714D02*
X153574819Y-61526952D01*
X153574819Y-61526952D02*
X153574819Y-61622190D01*
X153574819Y-61622190D02*
X153527200Y-61717428D01*
X153527200Y-61717428D02*
X153479580Y-61765047D01*
X153479580Y-61765047D02*
X153384342Y-61812666D01*
X153384342Y-61812666D02*
X153193866Y-61860285D01*
X153193866Y-61860285D02*
X152955771Y-61860285D01*
X152955771Y-61860285D02*
X152765295Y-61812666D01*
X152765295Y-61812666D02*
X152670057Y-61765047D01*
X152670057Y-61765047D02*
X152622438Y-61717428D01*
X152622438Y-61717428D02*
X152574819Y-61622190D01*
X153574819Y-60860285D02*
X152574819Y-60860285D01*
X153193866Y-60765047D02*
X153574819Y-60479333D01*
X152908152Y-60479333D02*
X153289104Y-60860285D01*
X155944819Y-61812666D02*
X155468628Y-62145999D01*
X155944819Y-62384094D02*
X154944819Y-62384094D01*
X154944819Y-62384094D02*
X154944819Y-62003142D01*
X154944819Y-62003142D02*
X154992438Y-61907904D01*
X154992438Y-61907904D02*
X155040057Y-61860285D01*
X155040057Y-61860285D02*
X155135295Y-61812666D01*
X155135295Y-61812666D02*
X155278152Y-61812666D01*
X155278152Y-61812666D02*
X155373390Y-61860285D01*
X155373390Y-61860285D02*
X155421009Y-61907904D01*
X155421009Y-61907904D02*
X155468628Y-62003142D01*
X155468628Y-62003142D02*
X155468628Y-62384094D01*
X154944819Y-60907904D02*
X154944819Y-61384094D01*
X154944819Y-61384094D02*
X155421009Y-61431713D01*
X155421009Y-61431713D02*
X155373390Y-61384094D01*
X155373390Y-61384094D02*
X155325771Y-61288856D01*
X155325771Y-61288856D02*
X155325771Y-61050761D01*
X155325771Y-61050761D02*
X155373390Y-60955523D01*
X155373390Y-60955523D02*
X155421009Y-60907904D01*
X155421009Y-60907904D02*
X155516247Y-60860285D01*
X155516247Y-60860285D02*
X155754342Y-60860285D01*
X155754342Y-60860285D02*
X155849580Y-60907904D01*
X155849580Y-60907904D02*
X155897200Y-60955523D01*
X155897200Y-60955523D02*
X155944819Y-61050761D01*
X155944819Y-61050761D02*
X155944819Y-61288856D01*
X155944819Y-61288856D02*
X155897200Y-61384094D01*
X155897200Y-61384094D02*
X155849580Y-61431713D01*
X153242819Y-62729713D02*
X153242819Y-62110666D01*
X153242819Y-62110666D02*
X153623771Y-62443999D01*
X153623771Y-62443999D02*
X153623771Y-62301142D01*
X153623771Y-62301142D02*
X153671390Y-62205904D01*
X153671390Y-62205904D02*
X153719009Y-62158285D01*
X153719009Y-62158285D02*
X153814247Y-62110666D01*
X153814247Y-62110666D02*
X154052342Y-62110666D01*
X154052342Y-62110666D02*
X154147580Y-62158285D01*
X154147580Y-62158285D02*
X154195200Y-62205904D01*
X154195200Y-62205904D02*
X154242819Y-62301142D01*
X154242819Y-62301142D02*
X154242819Y-62586856D01*
X154242819Y-62586856D02*
X154195200Y-62682094D01*
X154195200Y-62682094D02*
X154147580Y-62729713D01*
X153242819Y-61777332D02*
X153242819Y-61158285D01*
X153242819Y-61158285D02*
X153623771Y-61491618D01*
X153623771Y-61491618D02*
X153623771Y-61348761D01*
X153623771Y-61348761D02*
X153671390Y-61253523D01*
X153671390Y-61253523D02*
X153719009Y-61205904D01*
X153719009Y-61205904D02*
X153814247Y-61158285D01*
X153814247Y-61158285D02*
X154052342Y-61158285D01*
X154052342Y-61158285D02*
X154147580Y-61205904D01*
X154147580Y-61205904D02*
X154195200Y-61253523D01*
X154195200Y-61253523D02*
X154242819Y-61348761D01*
X154242819Y-61348761D02*
X154242819Y-61634475D01*
X154242819Y-61634475D02*
X154195200Y-61729713D01*
X154195200Y-61729713D02*
X154147580Y-61777332D01*
X153242819Y-60539237D02*
X153242819Y-60443999D01*
X153242819Y-60443999D02*
X153290438Y-60348761D01*
X153290438Y-60348761D02*
X153338057Y-60301142D01*
X153338057Y-60301142D02*
X153433295Y-60253523D01*
X153433295Y-60253523D02*
X153623771Y-60205904D01*
X153623771Y-60205904D02*
X153861866Y-60205904D01*
X153861866Y-60205904D02*
X154052342Y-60253523D01*
X154052342Y-60253523D02*
X154147580Y-60301142D01*
X154147580Y-60301142D02*
X154195200Y-60348761D01*
X154195200Y-60348761D02*
X154242819Y-60443999D01*
X154242819Y-60443999D02*
X154242819Y-60539237D01*
X154242819Y-60539237D02*
X154195200Y-60634475D01*
X154195200Y-60634475D02*
X154147580Y-60682094D01*
X154147580Y-60682094D02*
X154052342Y-60729713D01*
X154052342Y-60729713D02*
X153861866Y-60777332D01*
X153861866Y-60777332D02*
X153623771Y-60777332D01*
X153623771Y-60777332D02*
X153433295Y-60729713D01*
X153433295Y-60729713D02*
X153338057Y-60682094D01*
X153338057Y-60682094D02*
X153290438Y-60634475D01*
X153290438Y-60634475D02*
X153242819Y-60539237D01*
X151872819Y-61610666D02*
X151396628Y-61943999D01*
X151872819Y-62182094D02*
X150872819Y-62182094D01*
X150872819Y-62182094D02*
X150872819Y-61801142D01*
X150872819Y-61801142D02*
X150920438Y-61705904D01*
X150920438Y-61705904D02*
X150968057Y-61658285D01*
X150968057Y-61658285D02*
X151063295Y-61610666D01*
X151063295Y-61610666D02*
X151206152Y-61610666D01*
X151206152Y-61610666D02*
X151301390Y-61658285D01*
X151301390Y-61658285D02*
X151349009Y-61705904D01*
X151349009Y-61705904D02*
X151396628Y-61801142D01*
X151396628Y-61801142D02*
X151396628Y-62182094D01*
X151206152Y-60753523D02*
X151872819Y-60753523D01*
X150825200Y-60991618D02*
X151539485Y-61229713D01*
X151539485Y-61229713D02*
X151539485Y-60610666D01*
X149192819Y-62729713D02*
X149192819Y-62110666D01*
X149192819Y-62110666D02*
X149573771Y-62443999D01*
X149573771Y-62443999D02*
X149573771Y-62301142D01*
X149573771Y-62301142D02*
X149621390Y-62205904D01*
X149621390Y-62205904D02*
X149669009Y-62158285D01*
X149669009Y-62158285D02*
X149764247Y-62110666D01*
X149764247Y-62110666D02*
X150002342Y-62110666D01*
X150002342Y-62110666D02*
X150097580Y-62158285D01*
X150097580Y-62158285D02*
X150145200Y-62205904D01*
X150145200Y-62205904D02*
X150192819Y-62301142D01*
X150192819Y-62301142D02*
X150192819Y-62586856D01*
X150192819Y-62586856D02*
X150145200Y-62682094D01*
X150145200Y-62682094D02*
X150097580Y-62729713D01*
X149192819Y-61777332D02*
X149192819Y-61158285D01*
X149192819Y-61158285D02*
X149573771Y-61491618D01*
X149573771Y-61491618D02*
X149573771Y-61348761D01*
X149573771Y-61348761D02*
X149621390Y-61253523D01*
X149621390Y-61253523D02*
X149669009Y-61205904D01*
X149669009Y-61205904D02*
X149764247Y-61158285D01*
X149764247Y-61158285D02*
X150002342Y-61158285D01*
X150002342Y-61158285D02*
X150097580Y-61205904D01*
X150097580Y-61205904D02*
X150145200Y-61253523D01*
X150145200Y-61253523D02*
X150192819Y-61348761D01*
X150192819Y-61348761D02*
X150192819Y-61634475D01*
X150192819Y-61634475D02*
X150145200Y-61729713D01*
X150145200Y-61729713D02*
X150097580Y-61777332D01*
X149192819Y-60539237D02*
X149192819Y-60443999D01*
X149192819Y-60443999D02*
X149240438Y-60348761D01*
X149240438Y-60348761D02*
X149288057Y-60301142D01*
X149288057Y-60301142D02*
X149383295Y-60253523D01*
X149383295Y-60253523D02*
X149573771Y-60205904D01*
X149573771Y-60205904D02*
X149811866Y-60205904D01*
X149811866Y-60205904D02*
X150002342Y-60253523D01*
X150002342Y-60253523D02*
X150097580Y-60301142D01*
X150097580Y-60301142D02*
X150145200Y-60348761D01*
X150145200Y-60348761D02*
X150192819Y-60443999D01*
X150192819Y-60443999D02*
X150192819Y-60539237D01*
X150192819Y-60539237D02*
X150145200Y-60634475D01*
X150145200Y-60634475D02*
X150097580Y-60682094D01*
X150097580Y-60682094D02*
X150002342Y-60729713D01*
X150002342Y-60729713D02*
X149811866Y-60777332D01*
X149811866Y-60777332D02*
X149573771Y-60777332D01*
X149573771Y-60777332D02*
X149383295Y-60729713D01*
X149383295Y-60729713D02*
X149288057Y-60682094D01*
X149288057Y-60682094D02*
X149240438Y-60634475D01*
X149240438Y-60634475D02*
X149192819Y-60539237D01*
X147822819Y-61610666D02*
X147346628Y-61943999D01*
X147822819Y-62182094D02*
X146822819Y-62182094D01*
X146822819Y-62182094D02*
X146822819Y-61801142D01*
X146822819Y-61801142D02*
X146870438Y-61705904D01*
X146870438Y-61705904D02*
X146918057Y-61658285D01*
X146918057Y-61658285D02*
X147013295Y-61610666D01*
X147013295Y-61610666D02*
X147156152Y-61610666D01*
X147156152Y-61610666D02*
X147251390Y-61658285D01*
X147251390Y-61658285D02*
X147299009Y-61705904D01*
X147299009Y-61705904D02*
X147346628Y-61801142D01*
X147346628Y-61801142D02*
X147346628Y-62182094D01*
X146822819Y-61277332D02*
X146822819Y-60658285D01*
X146822819Y-60658285D02*
X147203771Y-60991618D01*
X147203771Y-60991618D02*
X147203771Y-60848761D01*
X147203771Y-60848761D02*
X147251390Y-60753523D01*
X147251390Y-60753523D02*
X147299009Y-60705904D01*
X147299009Y-60705904D02*
X147394247Y-60658285D01*
X147394247Y-60658285D02*
X147632342Y-60658285D01*
X147632342Y-60658285D02*
X147727580Y-60705904D01*
X147727580Y-60705904D02*
X147775200Y-60753523D01*
X147775200Y-60753523D02*
X147822819Y-60848761D01*
X147822819Y-60848761D02*
X147822819Y-61134475D01*
X147822819Y-61134475D02*
X147775200Y-61229713D01*
X147775200Y-61229713D02*
X147727580Y-61277332D01*
X143392819Y-70416857D02*
X143392819Y-70893047D01*
X143392819Y-70893047D02*
X142392819Y-70893047D01*
X142869009Y-70083523D02*
X142869009Y-69750190D01*
X143392819Y-69607333D02*
X143392819Y-70083523D01*
X143392819Y-70083523D02*
X142392819Y-70083523D01*
X142392819Y-70083523D02*
X142392819Y-69607333D01*
X143392819Y-69178761D02*
X142392819Y-69178761D01*
X142392819Y-69178761D02*
X142392819Y-68940666D01*
X142392819Y-68940666D02*
X142440438Y-68797809D01*
X142440438Y-68797809D02*
X142535676Y-68702571D01*
X142535676Y-68702571D02*
X142630914Y-68654952D01*
X142630914Y-68654952D02*
X142821390Y-68607333D01*
X142821390Y-68607333D02*
X142964247Y-68607333D01*
X142964247Y-68607333D02*
X143154723Y-68654952D01*
X143154723Y-68654952D02*
X143249961Y-68702571D01*
X143249961Y-68702571D02*
X143345200Y-68797809D01*
X143345200Y-68797809D02*
X143392819Y-68940666D01*
X143392819Y-68940666D02*
X143392819Y-69178761D01*
D12*
X139922807Y-72097810D02*
X139960902Y-71983524D01*
X139960902Y-71983524D02*
X139998998Y-71945429D01*
X139998998Y-71945429D02*
X140075188Y-71907333D01*
X140075188Y-71907333D02*
X140189474Y-71907333D01*
X140189474Y-71907333D02*
X140265664Y-71945429D01*
X140265664Y-71945429D02*
X140303760Y-71983524D01*
X140303760Y-71983524D02*
X140341855Y-72059714D01*
X140341855Y-72059714D02*
X140341855Y-72364476D01*
X140341855Y-72364476D02*
X139541855Y-72364476D01*
X139541855Y-72364476D02*
X139541855Y-72097810D01*
X139541855Y-72097810D02*
X139579950Y-72021619D01*
X139579950Y-72021619D02*
X139618045Y-71983524D01*
X139618045Y-71983524D02*
X139694236Y-71945429D01*
X139694236Y-71945429D02*
X139770426Y-71945429D01*
X139770426Y-71945429D02*
X139846617Y-71983524D01*
X139846617Y-71983524D02*
X139884712Y-72021619D01*
X139884712Y-72021619D02*
X139922807Y-72097810D01*
X139922807Y-72097810D02*
X139922807Y-72364476D01*
X140341855Y-71450191D02*
X140303760Y-71526381D01*
X140303760Y-71526381D02*
X140227569Y-71564476D01*
X140227569Y-71564476D02*
X139541855Y-71564476D01*
X139808521Y-70802571D02*
X140341855Y-70802571D01*
X139808521Y-71145428D02*
X140227569Y-71145428D01*
X140227569Y-71145428D02*
X140303760Y-71107333D01*
X140303760Y-71107333D02*
X140341855Y-71031143D01*
X140341855Y-71031143D02*
X140341855Y-70916857D01*
X140341855Y-70916857D02*
X140303760Y-70840666D01*
X140303760Y-70840666D02*
X140265664Y-70802571D01*
X140303760Y-70116856D02*
X140341855Y-70193047D01*
X140341855Y-70193047D02*
X140341855Y-70345428D01*
X140341855Y-70345428D02*
X140303760Y-70421618D01*
X140303760Y-70421618D02*
X140227569Y-70459714D01*
X140227569Y-70459714D02*
X139922807Y-70459714D01*
X139922807Y-70459714D02*
X139846617Y-70421618D01*
X139846617Y-70421618D02*
X139808521Y-70345428D01*
X139808521Y-70345428D02*
X139808521Y-70193047D01*
X139808521Y-70193047D02*
X139846617Y-70116856D01*
X139846617Y-70116856D02*
X139922807Y-70078761D01*
X139922807Y-70078761D02*
X139998998Y-70078761D01*
X139998998Y-70078761D02*
X140075188Y-70459714D01*
X140341855Y-69354952D02*
X140341855Y-69735904D01*
X140341855Y-69735904D02*
X139541855Y-69735904D01*
X139922807Y-69088285D02*
X139922807Y-68821619D01*
X140341855Y-68707333D02*
X140341855Y-69088285D01*
X140341855Y-69088285D02*
X139541855Y-69088285D01*
X139541855Y-69088285D02*
X139541855Y-68707333D01*
X140341855Y-68364475D02*
X139541855Y-68364475D01*
X139541855Y-68364475D02*
X139541855Y-68173999D01*
X139541855Y-68173999D02*
X139579950Y-68059713D01*
X139579950Y-68059713D02*
X139656140Y-67983523D01*
X139656140Y-67983523D02*
X139732331Y-67945428D01*
X139732331Y-67945428D02*
X139884712Y-67907332D01*
X139884712Y-67907332D02*
X139998998Y-67907332D01*
X139998998Y-67907332D02*
X140151379Y-67945428D01*
X140151379Y-67945428D02*
X140227569Y-67983523D01*
X140227569Y-67983523D02*
X140303760Y-68059713D01*
X140303760Y-68059713D02*
X140341855Y-68173999D01*
X140341855Y-68173999D02*
X140341855Y-68364475D01*
X140341855Y-67145428D02*
X140341855Y-67602571D01*
X140341855Y-67373999D02*
X139541855Y-67373999D01*
X139541855Y-67373999D02*
X139656140Y-67450190D01*
X139656140Y-67450190D02*
X139732331Y-67526380D01*
X139732331Y-67526380D02*
X139770426Y-67602571D01*
D10*
X148546189Y-65648819D02*
X149117617Y-65648819D01*
X148831903Y-66648819D02*
X148831903Y-65648819D01*
X149831903Y-66601200D02*
X149736665Y-66648819D01*
X149736665Y-66648819D02*
X149546189Y-66648819D01*
X149546189Y-66648819D02*
X149450951Y-66601200D01*
X149450951Y-66601200D02*
X149403332Y-66505961D01*
X149403332Y-66505961D02*
X149403332Y-66125009D01*
X149403332Y-66125009D02*
X149450951Y-66029771D01*
X149450951Y-66029771D02*
X149546189Y-65982152D01*
X149546189Y-65982152D02*
X149736665Y-65982152D01*
X149736665Y-65982152D02*
X149831903Y-66029771D01*
X149831903Y-66029771D02*
X149879522Y-66125009D01*
X149879522Y-66125009D02*
X149879522Y-66220247D01*
X149879522Y-66220247D02*
X149403332Y-66315485D01*
X150308094Y-66648819D02*
X150308094Y-65982152D01*
X150308094Y-66077390D02*
X150355713Y-66029771D01*
X150355713Y-66029771D02*
X150450951Y-65982152D01*
X150450951Y-65982152D02*
X150593808Y-65982152D01*
X150593808Y-65982152D02*
X150689046Y-66029771D01*
X150689046Y-66029771D02*
X150736665Y-66125009D01*
X150736665Y-66125009D02*
X150736665Y-66648819D01*
X150736665Y-66125009D02*
X150784284Y-66029771D01*
X150784284Y-66029771D02*
X150879522Y-65982152D01*
X150879522Y-65982152D02*
X151022379Y-65982152D01*
X151022379Y-65982152D02*
X151117618Y-66029771D01*
X151117618Y-66029771D02*
X151165237Y-66125009D01*
X151165237Y-66125009D02*
X151165237Y-66648819D01*
X151641427Y-65982152D02*
X151641427Y-66982152D01*
X151641427Y-66029771D02*
X151736665Y-65982152D01*
X151736665Y-65982152D02*
X151927141Y-65982152D01*
X151927141Y-65982152D02*
X152022379Y-66029771D01*
X152022379Y-66029771D02*
X152069998Y-66077390D01*
X152069998Y-66077390D02*
X152117617Y-66172628D01*
X152117617Y-66172628D02*
X152117617Y-66458342D01*
X152117617Y-66458342D02*
X152069998Y-66553580D01*
X152069998Y-66553580D02*
X152022379Y-66601200D01*
X152022379Y-66601200D02*
X151927141Y-66648819D01*
X151927141Y-66648819D02*
X151736665Y-66648819D01*
X151736665Y-66648819D02*
X151641427Y-66601200D01*
X152927141Y-66601200D02*
X152831903Y-66648819D01*
X152831903Y-66648819D02*
X152641427Y-66648819D01*
X152641427Y-66648819D02*
X152546189Y-66601200D01*
X152546189Y-66601200D02*
X152498570Y-66505961D01*
X152498570Y-66505961D02*
X152498570Y-66125009D01*
X152498570Y-66125009D02*
X152546189Y-66029771D01*
X152546189Y-66029771D02*
X152641427Y-65982152D01*
X152641427Y-65982152D02*
X152831903Y-65982152D01*
X152831903Y-65982152D02*
X152927141Y-66029771D01*
X152927141Y-66029771D02*
X152974760Y-66125009D01*
X152974760Y-66125009D02*
X152974760Y-66220247D01*
X152974760Y-66220247D02*
X152498570Y-66315485D01*
X153403332Y-66648819D02*
X153403332Y-65982152D01*
X153403332Y-66172628D02*
X153450951Y-66077390D01*
X153450951Y-66077390D02*
X153498570Y-66029771D01*
X153498570Y-66029771D02*
X153593808Y-65982152D01*
X153593808Y-65982152D02*
X153689046Y-65982152D01*
X154450951Y-66648819D02*
X154450951Y-66125009D01*
X154450951Y-66125009D02*
X154403332Y-66029771D01*
X154403332Y-66029771D02*
X154308094Y-65982152D01*
X154308094Y-65982152D02*
X154117618Y-65982152D01*
X154117618Y-65982152D02*
X154022380Y-66029771D01*
X154450951Y-66601200D02*
X154355713Y-66648819D01*
X154355713Y-66648819D02*
X154117618Y-66648819D01*
X154117618Y-66648819D02*
X154022380Y-66601200D01*
X154022380Y-66601200D02*
X153974761Y-66505961D01*
X153974761Y-66505961D02*
X153974761Y-66410723D01*
X153974761Y-66410723D02*
X154022380Y-66315485D01*
X154022380Y-66315485D02*
X154117618Y-66267866D01*
X154117618Y-66267866D02*
X154355713Y-66267866D01*
X154355713Y-66267866D02*
X154450951Y-66220247D01*
X154784285Y-65982152D02*
X155165237Y-65982152D01*
X154927142Y-65648819D02*
X154927142Y-66505961D01*
X154927142Y-66505961D02*
X154974761Y-66601200D01*
X154974761Y-66601200D02*
X155069999Y-66648819D01*
X155069999Y-66648819D02*
X155165237Y-66648819D01*
X155927142Y-65982152D02*
X155927142Y-66648819D01*
X155498571Y-65982152D02*
X155498571Y-66505961D01*
X155498571Y-66505961D02*
X155546190Y-66601200D01*
X155546190Y-66601200D02*
X155641428Y-66648819D01*
X155641428Y-66648819D02*
X155784285Y-66648819D01*
X155784285Y-66648819D02*
X155879523Y-66601200D01*
X155879523Y-66601200D02*
X155927142Y-66553580D01*
X156403333Y-66648819D02*
X156403333Y-65982152D01*
X156403333Y-66172628D02*
X156450952Y-66077390D01*
X156450952Y-66077390D02*
X156498571Y-66029771D01*
X156498571Y-66029771D02*
X156593809Y-65982152D01*
X156593809Y-65982152D02*
X156689047Y-65982152D01*
X157403333Y-66601200D02*
X157308095Y-66648819D01*
X157308095Y-66648819D02*
X157117619Y-66648819D01*
X157117619Y-66648819D02*
X157022381Y-66601200D01*
X157022381Y-66601200D02*
X156974762Y-66505961D01*
X156974762Y-66505961D02*
X156974762Y-66125009D01*
X156974762Y-66125009D02*
X157022381Y-66029771D01*
X157022381Y-66029771D02*
X157117619Y-65982152D01*
X157117619Y-65982152D02*
X157308095Y-65982152D01*
X157308095Y-65982152D02*
X157403333Y-66029771D01*
X157403333Y-66029771D02*
X157450952Y-66125009D01*
X157450952Y-66125009D02*
X157450952Y-66220247D01*
X157450952Y-66220247D02*
X156974762Y-66315485D01*
X158641429Y-66267866D02*
X159403334Y-66267866D01*
X159022381Y-66648819D02*
X159022381Y-65886914D01*
X160641429Y-66648819D02*
X160641429Y-65648819D01*
X160641429Y-66125009D02*
X161212857Y-66125009D01*
X161212857Y-66648819D02*
X161212857Y-65648819D01*
X162117619Y-65982152D02*
X162117619Y-66648819D01*
X161689048Y-65982152D02*
X161689048Y-66505961D01*
X161689048Y-66505961D02*
X161736667Y-66601200D01*
X161736667Y-66601200D02*
X161831905Y-66648819D01*
X161831905Y-66648819D02*
X161974762Y-66648819D01*
X161974762Y-66648819D02*
X162070000Y-66601200D01*
X162070000Y-66601200D02*
X162117619Y-66553580D01*
X162593810Y-66648819D02*
X162593810Y-65982152D01*
X162593810Y-66077390D02*
X162641429Y-66029771D01*
X162641429Y-66029771D02*
X162736667Y-65982152D01*
X162736667Y-65982152D02*
X162879524Y-65982152D01*
X162879524Y-65982152D02*
X162974762Y-66029771D01*
X162974762Y-66029771D02*
X163022381Y-66125009D01*
X163022381Y-66125009D02*
X163022381Y-66648819D01*
X163022381Y-66125009D02*
X163070000Y-66029771D01*
X163070000Y-66029771D02*
X163165238Y-65982152D01*
X163165238Y-65982152D02*
X163308095Y-65982152D01*
X163308095Y-65982152D02*
X163403334Y-66029771D01*
X163403334Y-66029771D02*
X163450953Y-66125009D01*
X163450953Y-66125009D02*
X163450953Y-66648819D01*
X163927143Y-66648819D02*
X163927143Y-65982152D01*
X163927143Y-65648819D02*
X163879524Y-65696438D01*
X163879524Y-65696438D02*
X163927143Y-65744057D01*
X163927143Y-65744057D02*
X163974762Y-65696438D01*
X163974762Y-65696438D02*
X163927143Y-65648819D01*
X163927143Y-65648819D02*
X163927143Y-65744057D01*
X164831904Y-66648819D02*
X164831904Y-65648819D01*
X164831904Y-66601200D02*
X164736666Y-66648819D01*
X164736666Y-66648819D02*
X164546190Y-66648819D01*
X164546190Y-66648819D02*
X164450952Y-66601200D01*
X164450952Y-66601200D02*
X164403333Y-66553580D01*
X164403333Y-66553580D02*
X164355714Y-66458342D01*
X164355714Y-66458342D02*
X164355714Y-66172628D01*
X164355714Y-66172628D02*
X164403333Y-66077390D01*
X164403333Y-66077390D02*
X164450952Y-66029771D01*
X164450952Y-66029771D02*
X164546190Y-65982152D01*
X164546190Y-65982152D02*
X164736666Y-65982152D01*
X164736666Y-65982152D02*
X164831904Y-66029771D01*
X165308095Y-66648819D02*
X165308095Y-65982152D01*
X165308095Y-65648819D02*
X165260476Y-65696438D01*
X165260476Y-65696438D02*
X165308095Y-65744057D01*
X165308095Y-65744057D02*
X165355714Y-65696438D01*
X165355714Y-65696438D02*
X165308095Y-65648819D01*
X165308095Y-65648819D02*
X165308095Y-65744057D01*
X165641428Y-65982152D02*
X166022380Y-65982152D01*
X165784285Y-65648819D02*
X165784285Y-66505961D01*
X165784285Y-66505961D02*
X165831904Y-66601200D01*
X165831904Y-66601200D02*
X165927142Y-66648819D01*
X165927142Y-66648819D02*
X166022380Y-66648819D01*
X166260476Y-65982152D02*
X166498571Y-66648819D01*
X166736666Y-65982152D02*
X166498571Y-66648819D01*
X166498571Y-66648819D02*
X166403333Y-66886914D01*
X166403333Y-66886914D02*
X166355714Y-66934533D01*
X166355714Y-66934533D02*
X166260476Y-66982152D01*
X167831905Y-66601200D02*
X167974762Y-66648819D01*
X167974762Y-66648819D02*
X168212857Y-66648819D01*
X168212857Y-66648819D02*
X168308095Y-66601200D01*
X168308095Y-66601200D02*
X168355714Y-66553580D01*
X168355714Y-66553580D02*
X168403333Y-66458342D01*
X168403333Y-66458342D02*
X168403333Y-66363104D01*
X168403333Y-66363104D02*
X168355714Y-66267866D01*
X168355714Y-66267866D02*
X168308095Y-66220247D01*
X168308095Y-66220247D02*
X168212857Y-66172628D01*
X168212857Y-66172628D02*
X168022381Y-66125009D01*
X168022381Y-66125009D02*
X167927143Y-66077390D01*
X167927143Y-66077390D02*
X167879524Y-66029771D01*
X167879524Y-66029771D02*
X167831905Y-65934533D01*
X167831905Y-65934533D02*
X167831905Y-65839295D01*
X167831905Y-65839295D02*
X167879524Y-65744057D01*
X167879524Y-65744057D02*
X167927143Y-65696438D01*
X167927143Y-65696438D02*
X168022381Y-65648819D01*
X168022381Y-65648819D02*
X168260476Y-65648819D01*
X168260476Y-65648819D02*
X168403333Y-65696438D01*
X169212857Y-66601200D02*
X169117619Y-66648819D01*
X169117619Y-66648819D02*
X168927143Y-66648819D01*
X168927143Y-66648819D02*
X168831905Y-66601200D01*
X168831905Y-66601200D02*
X168784286Y-66505961D01*
X168784286Y-66505961D02*
X168784286Y-66125009D01*
X168784286Y-66125009D02*
X168831905Y-66029771D01*
X168831905Y-66029771D02*
X168927143Y-65982152D01*
X168927143Y-65982152D02*
X169117619Y-65982152D01*
X169117619Y-65982152D02*
X169212857Y-66029771D01*
X169212857Y-66029771D02*
X169260476Y-66125009D01*
X169260476Y-66125009D02*
X169260476Y-66220247D01*
X169260476Y-66220247D02*
X168784286Y-66315485D01*
X169689048Y-65982152D02*
X169689048Y-66648819D01*
X169689048Y-66077390D02*
X169736667Y-66029771D01*
X169736667Y-66029771D02*
X169831905Y-65982152D01*
X169831905Y-65982152D02*
X169974762Y-65982152D01*
X169974762Y-65982152D02*
X170070000Y-66029771D01*
X170070000Y-66029771D02*
X170117619Y-66125009D01*
X170117619Y-66125009D02*
X170117619Y-66648819D01*
X170546191Y-66601200D02*
X170641429Y-66648819D01*
X170641429Y-66648819D02*
X170831905Y-66648819D01*
X170831905Y-66648819D02*
X170927143Y-66601200D01*
X170927143Y-66601200D02*
X170974762Y-66505961D01*
X170974762Y-66505961D02*
X170974762Y-66458342D01*
X170974762Y-66458342D02*
X170927143Y-66363104D01*
X170927143Y-66363104D02*
X170831905Y-66315485D01*
X170831905Y-66315485D02*
X170689048Y-66315485D01*
X170689048Y-66315485D02*
X170593810Y-66267866D01*
X170593810Y-66267866D02*
X170546191Y-66172628D01*
X170546191Y-66172628D02*
X170546191Y-66125009D01*
X170546191Y-66125009D02*
X170593810Y-66029771D01*
X170593810Y-66029771D02*
X170689048Y-65982152D01*
X170689048Y-65982152D02*
X170831905Y-65982152D01*
X170831905Y-65982152D02*
X170927143Y-66029771D01*
X171546191Y-66648819D02*
X171450953Y-66601200D01*
X171450953Y-66601200D02*
X171403334Y-66553580D01*
X171403334Y-66553580D02*
X171355715Y-66458342D01*
X171355715Y-66458342D02*
X171355715Y-66172628D01*
X171355715Y-66172628D02*
X171403334Y-66077390D01*
X171403334Y-66077390D02*
X171450953Y-66029771D01*
X171450953Y-66029771D02*
X171546191Y-65982152D01*
X171546191Y-65982152D02*
X171689048Y-65982152D01*
X171689048Y-65982152D02*
X171784286Y-66029771D01*
X171784286Y-66029771D02*
X171831905Y-66077390D01*
X171831905Y-66077390D02*
X171879524Y-66172628D01*
X171879524Y-66172628D02*
X171879524Y-66458342D01*
X171879524Y-66458342D02*
X171831905Y-66553580D01*
X171831905Y-66553580D02*
X171784286Y-66601200D01*
X171784286Y-66601200D02*
X171689048Y-66648819D01*
X171689048Y-66648819D02*
X171546191Y-66648819D01*
X172308096Y-66648819D02*
X172308096Y-65982152D01*
X172308096Y-66172628D02*
X172355715Y-66077390D01*
X172355715Y-66077390D02*
X172403334Y-66029771D01*
X172403334Y-66029771D02*
X172498572Y-65982152D01*
X172498572Y-65982152D02*
X172593810Y-65982152D01*
X160024819Y-59947333D02*
X160739104Y-59947333D01*
X160739104Y-59947333D02*
X160881961Y-59994952D01*
X160881961Y-59994952D02*
X160977200Y-60090190D01*
X160977200Y-60090190D02*
X161024819Y-60233047D01*
X161024819Y-60233047D02*
X161024819Y-60328285D01*
X160024819Y-58994952D02*
X160024819Y-59471142D01*
X160024819Y-59471142D02*
X160501009Y-59518761D01*
X160501009Y-59518761D02*
X160453390Y-59471142D01*
X160453390Y-59471142D02*
X160405771Y-59375904D01*
X160405771Y-59375904D02*
X160405771Y-59137809D01*
X160405771Y-59137809D02*
X160453390Y-59042571D01*
X160453390Y-59042571D02*
X160501009Y-58994952D01*
X160501009Y-58994952D02*
X160596247Y-58947333D01*
X160596247Y-58947333D02*
X160834342Y-58947333D01*
X160834342Y-58947333D02*
X160929580Y-58994952D01*
X160929580Y-58994952D02*
X160977200Y-59042571D01*
X160977200Y-59042571D02*
X161024819Y-59137809D01*
X161024819Y-59137809D02*
X161024819Y-59375904D01*
X161024819Y-59375904D02*
X160977200Y-59471142D01*
X160977200Y-59471142D02*
X160929580Y-59518761D01*
X159802819Y-70416857D02*
X159802819Y-70893047D01*
X159802819Y-70893047D02*
X158802819Y-70893047D01*
X159279009Y-70083523D02*
X159279009Y-69750190D01*
X159802819Y-69607333D02*
X159802819Y-70083523D01*
X159802819Y-70083523D02*
X158802819Y-70083523D01*
X158802819Y-70083523D02*
X158802819Y-69607333D01*
X159802819Y-69178761D02*
X158802819Y-69178761D01*
X158802819Y-69178761D02*
X158802819Y-68940666D01*
X158802819Y-68940666D02*
X158850438Y-68797809D01*
X158850438Y-68797809D02*
X158945676Y-68702571D01*
X158945676Y-68702571D02*
X159040914Y-68654952D01*
X159040914Y-68654952D02*
X159231390Y-68607333D01*
X159231390Y-68607333D02*
X159374247Y-68607333D01*
X159374247Y-68607333D02*
X159564723Y-68654952D01*
X159564723Y-68654952D02*
X159659961Y-68702571D01*
X159659961Y-68702571D02*
X159755200Y-68797809D01*
X159755200Y-68797809D02*
X159802819Y-68940666D01*
X159802819Y-68940666D02*
X159802819Y-69178761D01*
D12*
X156370902Y-72783523D02*
X156751855Y-72783523D01*
X155951855Y-73050190D02*
X156370902Y-72783523D01*
X156370902Y-72783523D02*
X155951855Y-72516857D01*
X156713760Y-71945428D02*
X156751855Y-72021619D01*
X156751855Y-72021619D02*
X156751855Y-72174000D01*
X156751855Y-72174000D02*
X156713760Y-72250190D01*
X156713760Y-72250190D02*
X156637569Y-72288286D01*
X156637569Y-72288286D02*
X156332807Y-72288286D01*
X156332807Y-72288286D02*
X156256617Y-72250190D01*
X156256617Y-72250190D02*
X156218521Y-72174000D01*
X156218521Y-72174000D02*
X156218521Y-72021619D01*
X156218521Y-72021619D02*
X156256617Y-71945428D01*
X156256617Y-71945428D02*
X156332807Y-71907333D01*
X156332807Y-71907333D02*
X156408998Y-71907333D01*
X156408998Y-71907333D02*
X156485188Y-72288286D01*
X156751855Y-71450191D02*
X156713760Y-71526381D01*
X156713760Y-71526381D02*
X156637569Y-71564476D01*
X156637569Y-71564476D02*
X155951855Y-71564476D01*
X156751855Y-71031143D02*
X156713760Y-71107333D01*
X156713760Y-71107333D02*
X156637569Y-71145428D01*
X156637569Y-71145428D02*
X155951855Y-71145428D01*
X156751855Y-70612095D02*
X156713760Y-70688285D01*
X156713760Y-70688285D02*
X156675664Y-70726380D01*
X156675664Y-70726380D02*
X156599474Y-70764476D01*
X156599474Y-70764476D02*
X156370902Y-70764476D01*
X156370902Y-70764476D02*
X156294712Y-70726380D01*
X156294712Y-70726380D02*
X156256617Y-70688285D01*
X156256617Y-70688285D02*
X156218521Y-70612095D01*
X156218521Y-70612095D02*
X156218521Y-70497809D01*
X156218521Y-70497809D02*
X156256617Y-70421618D01*
X156256617Y-70421618D02*
X156294712Y-70383523D01*
X156294712Y-70383523D02*
X156370902Y-70345428D01*
X156370902Y-70345428D02*
X156599474Y-70345428D01*
X156599474Y-70345428D02*
X156675664Y-70383523D01*
X156675664Y-70383523D02*
X156713760Y-70421618D01*
X156713760Y-70421618D02*
X156751855Y-70497809D01*
X156751855Y-70497809D02*
X156751855Y-70612095D01*
X156218521Y-70078761D02*
X156751855Y-69926380D01*
X156751855Y-69926380D02*
X156370902Y-69773999D01*
X156370902Y-69773999D02*
X156751855Y-69621618D01*
X156751855Y-69621618D02*
X156218521Y-69469237D01*
X156751855Y-68783523D02*
X156751855Y-69164475D01*
X156751855Y-69164475D02*
X155951855Y-69164475D01*
X156332807Y-68516856D02*
X156332807Y-68250190D01*
X156751855Y-68135904D02*
X156751855Y-68516856D01*
X156751855Y-68516856D02*
X155951855Y-68516856D01*
X155951855Y-68516856D02*
X155951855Y-68135904D01*
X156751855Y-67793046D02*
X155951855Y-67793046D01*
X155951855Y-67793046D02*
X155951855Y-67602570D01*
X155951855Y-67602570D02*
X155989950Y-67488284D01*
X155989950Y-67488284D02*
X156066140Y-67412094D01*
X156066140Y-67412094D02*
X156142331Y-67373999D01*
X156142331Y-67373999D02*
X156294712Y-67335903D01*
X156294712Y-67335903D02*
X156408998Y-67335903D01*
X156408998Y-67335903D02*
X156561379Y-67373999D01*
X156561379Y-67373999D02*
X156637569Y-67412094D01*
X156637569Y-67412094D02*
X156713760Y-67488284D01*
X156713760Y-67488284D02*
X156751855Y-67602570D01*
X156751855Y-67602570D02*
X156751855Y-67793046D01*
X156751855Y-66573999D02*
X156751855Y-67031142D01*
X156751855Y-66802570D02*
X155951855Y-66802570D01*
X155951855Y-66802570D02*
X156066140Y-66878761D01*
X156066140Y-66878761D02*
X156142331Y-66954951D01*
X156142331Y-66954951D02*
X156180426Y-67031142D01*
D13*
%TO.C,J11*%
X144475000Y-78689000D02*
X146380000Y-78689000D01*
X144475000Y-93929000D02*
X144475000Y-78689000D01*
X146380000Y-78689000D02*
X147015000Y-79324000D01*
X147015000Y-79324000D02*
X147015000Y-93929000D01*
X147015000Y-93929000D02*
X144475000Y-93929000D01*
%TO.C,J10*%
X129126000Y-86474000D02*
X129126000Y-92224000D01*
X129126000Y-92224000D02*
X139026000Y-92224000D01*
X130951000Y-86474000D02*
X131576000Y-87474000D01*
X131576000Y-87474000D02*
X132201000Y-86474000D01*
X139026000Y-86474000D02*
X129126000Y-86474000D01*
X139026000Y-92224000D02*
X139026000Y-86474000D01*
%TO.C,R9*%
X116764000Y-64934000D02*
X117424000Y-64934000D01*
X117424000Y-63684000D02*
X117424000Y-66184000D01*
X117424000Y-66184000D02*
X123724000Y-66184000D01*
X123724000Y-63684000D02*
X117424000Y-63684000D01*
X123724000Y-66184000D02*
X123724000Y-63684000D01*
X124384000Y-64934000D02*
X123724000Y-64934000D01*
%TO.C,R8*%
X116764000Y-60884000D02*
X117424000Y-60884000D01*
X117424000Y-59634000D02*
X117424000Y-62134000D01*
X117424000Y-62134000D02*
X123724000Y-62134000D01*
X123724000Y-59634000D02*
X117424000Y-59634000D01*
X123724000Y-62134000D02*
X123724000Y-59634000D01*
X124384000Y-60884000D02*
X123724000Y-60884000D01*
%TO.C,J9*%
X119579000Y-68301500D02*
X119896500Y-67984000D01*
X119579000Y-69984000D02*
X119579000Y-68301500D01*
X119896500Y-67984000D02*
X120849000Y-67984000D01*
X120849000Y-67984000D02*
X120849000Y-69984000D01*
X120849000Y-69984000D02*
X119579000Y-69984000D01*
%TO.C,J8*%
X116229000Y-68301500D02*
X116546500Y-67984000D01*
X116229000Y-69984000D02*
X116229000Y-68301500D01*
X116546500Y-67984000D02*
X117499000Y-67984000D01*
X117499000Y-67984000D02*
X117499000Y-69984000D01*
X117499000Y-69984000D02*
X116229000Y-69984000D01*
%TO.C,J6*%
X107874000Y-65202000D02*
X103794000Y-65202000D01*
X107874000Y-57582000D02*
X107874000Y-65202000D01*
X103794000Y-65202000D02*
X102794000Y-64202000D01*
X102794000Y-64202000D02*
X102794000Y-57582000D01*
X102794000Y-57582000D02*
X107874000Y-57582000D01*
%TO.C,J7*%
X101830000Y-70790000D02*
X103735000Y-70790000D01*
X101830000Y-88570000D02*
X101830000Y-70790000D01*
X103735000Y-70790000D02*
X104370000Y-71425000D01*
X104370000Y-71425000D02*
X104370000Y-88570000D01*
X104370000Y-88570000D02*
X101830000Y-88570000D01*
%TO.C,R7*%
X113970000Y-80696000D02*
X113310000Y-80696000D01*
X113310000Y-81946000D02*
X113310000Y-79446000D01*
X113310000Y-79446000D02*
X107010000Y-79446000D01*
X107010000Y-81946000D02*
X113310000Y-81946000D01*
X107010000Y-79446000D02*
X107010000Y-81946000D01*
X106350000Y-80696000D02*
X107010000Y-80696000D01*
%TO.C,R6*%
X113970000Y-76646000D02*
X113310000Y-76646000D01*
X113310000Y-77896000D02*
X113310000Y-75396000D01*
X113310000Y-75396000D02*
X107010000Y-75396000D01*
X107010000Y-77896000D02*
X113310000Y-77896000D01*
X107010000Y-75396000D02*
X107010000Y-77896000D01*
X106350000Y-76646000D02*
X107010000Y-76646000D01*
%TO.C,J1*%
X126670000Y-96825000D02*
X127305000Y-96190000D01*
X126670000Y-98730000D02*
X126670000Y-96825000D01*
X127305000Y-96190000D02*
X146990000Y-96190000D01*
X146990000Y-96190000D02*
X146990000Y-98730000D01*
X146990000Y-98730000D02*
X126670000Y-98730000D01*
%TO.C,J3*%
X149530000Y-96825000D02*
X150165000Y-96190000D01*
X149530000Y-98730000D02*
X149530000Y-96825000D01*
X150165000Y-96190000D02*
X164770000Y-96190000D01*
X164770000Y-96190000D02*
X164770000Y-98730000D01*
X164770000Y-98730000D02*
X149530000Y-98730000D01*
%TO.C,J2*%
X117526000Y-48565000D02*
X118161000Y-47930000D01*
X117526000Y-50470000D02*
X117526000Y-48565000D01*
X118161000Y-47930000D02*
X142926000Y-47930000D01*
X142926000Y-47930000D02*
X142926000Y-50470000D01*
X142926000Y-50470000D02*
X117526000Y-50470000D01*
%TO.C,J4*%
X144450000Y-48565000D02*
X145085000Y-47930000D01*
X144450000Y-50470000D02*
X144450000Y-48565000D01*
X145085000Y-47930000D02*
X164770000Y-47930000D01*
X164770000Y-47930000D02*
X164770000Y-50470000D01*
X164770000Y-50470000D02*
X144450000Y-50470000D01*
%TO.C,R2*%
X143298000Y-57582000D02*
X143298000Y-58242000D01*
X144548000Y-58242000D02*
X142048000Y-58242000D01*
X142048000Y-58242000D02*
X142048000Y-64542000D01*
X144548000Y-64542000D02*
X144548000Y-58242000D01*
X142048000Y-64542000D02*
X144548000Y-64542000D01*
X143298000Y-65202000D02*
X143298000Y-64542000D01*
%TO.C,RedLED1*%
X149751810Y-71274000D02*
X152084190Y-71274000D01*
X149751810Y-71274000D02*
G75*
G02*
X152084249Y-71273954I1166190J1500000D01*
G01*
X152418000Y-69774000D02*
G75*
G02*
X149418000Y-69774000I-1500000J0D01*
G01*
X149418000Y-69774000D02*
G75*
G02*
X152418000Y-69774000I1500000J0D01*
G01*
%TO.C,R1*%
X139268000Y-57634000D02*
X139268000Y-58294000D01*
X140518000Y-58294000D02*
X138018000Y-58294000D01*
X138018000Y-58294000D02*
X138018000Y-64594000D01*
X140518000Y-64594000D02*
X140518000Y-58294000D01*
X138018000Y-64594000D02*
X140518000Y-64594000D01*
X139268000Y-65254000D02*
X139268000Y-64594000D01*
%TO.C,GreenLED1*%
X144281810Y-71274000D02*
X146614190Y-71274000D01*
X144281810Y-71274000D02*
G75*
G02*
X146614249Y-71273954I1166190J1500000D01*
G01*
X146948000Y-69774000D02*
G75*
G02*
X143948000Y-69774000I-1500000J0D01*
G01*
X143948000Y-69774000D02*
G75*
G02*
X146948000Y-69774000I1500000J0D01*
G01*
%TO.C,R5*%
X155490000Y-57836000D02*
X155490000Y-58496000D01*
X156740000Y-58496000D02*
X154240000Y-58496000D01*
X154240000Y-58496000D02*
X154240000Y-64796000D01*
X156740000Y-64796000D02*
X156740000Y-58496000D01*
X154240000Y-64796000D02*
X156740000Y-64796000D01*
X155490000Y-65456000D02*
X155490000Y-64796000D01*
%TO.C,R4*%
X151418000Y-57634000D02*
X151418000Y-58294000D01*
X152668000Y-58294000D02*
X150168000Y-58294000D01*
X150168000Y-58294000D02*
X150168000Y-64594000D01*
X152668000Y-64594000D02*
X152668000Y-58294000D01*
X150168000Y-64594000D02*
X152668000Y-64594000D01*
X151418000Y-65254000D02*
X151418000Y-64594000D01*
%TO.C,R3*%
X147368000Y-57634000D02*
X147368000Y-58294000D01*
X148618000Y-58294000D02*
X146118000Y-58294000D01*
X146118000Y-58294000D02*
X146118000Y-64594000D01*
X148618000Y-64594000D02*
X148618000Y-58294000D01*
X146118000Y-64594000D02*
X148618000Y-64594000D01*
X147368000Y-65254000D02*
X147368000Y-64594000D01*
%TO.C,BlueLED1*%
X138811810Y-71274000D02*
X141144190Y-71274000D01*
X138811810Y-71274000D02*
G75*
G02*
X141144249Y-71273954I1166190J1500000D01*
G01*
X141478000Y-69774000D02*
G75*
G02*
X138478000Y-69774000I-1500000J0D01*
G01*
X138478000Y-69774000D02*
G75*
G02*
X141478000Y-69774000I1500000J0D01*
G01*
%TO.C,J5*%
X161205000Y-54534000D02*
X161840000Y-55169000D01*
X159300000Y-54534000D02*
X161205000Y-54534000D01*
X161840000Y-55169000D02*
X161840000Y-64694000D01*
X161840000Y-64694000D02*
X159300000Y-64694000D01*
X159300000Y-64694000D02*
X159300000Y-54534000D01*
%TO.C,YellowLED1*%
X155221810Y-71274000D02*
X157554190Y-71274000D01*
X155221810Y-71274000D02*
G75*
G02*
X157554249Y-71273954I1166190J1500000D01*
G01*
X157888000Y-69774000D02*
G75*
G02*
X154888000Y-69774000I-1500000J0D01*
G01*
X154888000Y-69774000D02*
G75*
G02*
X157888000Y-69774000I1500000J0D01*
G01*
%TD*%
M02*
