%TF.GenerationSoftware,KiCad,Pcbnew,8.0.8*%
%TF.CreationDate,2025-03-13T23:48:43-06:00*%
%TF.ProjectId,2fib2foib2f,32666962-3266-46f6-9962-32662e6b6963,rev?*%
%TF.SameCoordinates,Original*%
%TF.FileFunction,Copper,L2,Bot*%
%TF.FilePolarity,Positive*%
%FSLAX46Y46*%
G04 Gerber Fmt 4.6, Leading zero omitted, Abs format (unit mm)*
G04 Created by KiCad (PCBNEW 8.0.8) date 2025-03-13 23:48:43*
%MOMM*%
%LPD*%
G01*
G04 APERTURE LIST*
G04 Aperture macros list*
%AMRoundRect*
0 Rectangle with rounded corners*
0 $1 Rounding radius*
0 $2 $3 $4 $5 $6 $7 $8 $9 X,Y pos of 4 corners*
0 Add a 4 corners polygon primitive as box body*
4,1,4,$2,$3,$4,$5,$6,$7,$8,$9,$2,$3,0*
0 Add four circle primitives for the rounded corners*
1,1,$1+$1,$2,$3*
1,1,$1+$1,$4,$5*
1,1,$1+$1,$6,$7*
1,1,$1+$1,$8,$9*
0 Add four rect primitives between the rounded corners*
20,1,$1+$1,$2,$3,$4,$5,0*
20,1,$1+$1,$4,$5,$6,$7,0*
20,1,$1+$1,$6,$7,$8,$9,0*
20,1,$1+$1,$8,$9,$2,$3,0*%
G04 Aperture macros list end*
%TA.AperFunction,ComponentPad*%
%ADD10R,1.700000X1.700000*%
%TD*%
%TA.AperFunction,ComponentPad*%
%ADD11O,1.700000X1.700000*%
%TD*%
%TA.AperFunction,ComponentPad*%
%ADD12RoundRect,0.250000X-0.600000X-0.725000X0.600000X-0.725000X0.600000X0.725000X-0.600000X0.725000X0*%
%TD*%
%TA.AperFunction,ComponentPad*%
%ADD13O,1.700000X1.950000*%
%TD*%
%TA.AperFunction,ComponentPad*%
%ADD14C,1.600000*%
%TD*%
%TA.AperFunction,ComponentPad*%
%ADD15O,1.600000X1.600000*%
%TD*%
%TA.AperFunction,ComponentPad*%
%ADD16R,0.850000X0.850000*%
%TD*%
%TA.AperFunction,ComponentPad*%
%ADD17O,0.850000X0.850000*%
%TD*%
%TA.AperFunction,ComponentPad*%
%ADD18R,1.800000X1.800000*%
%TD*%
%TA.AperFunction,ComponentPad*%
%ADD19C,1.800000*%
%TD*%
%TA.AperFunction,Conductor*%
%ADD20C,0.250000*%
%TD*%
G04 APERTURE END LIST*
D10*
%TO.P,J11,1,Pin_1*%
%TO.N,GND*%
X145745000Y-79959000D03*
D11*
%TO.P,J11,2,Pin_2*%
%TO.N,/TX*%
X145745000Y-82499000D03*
%TO.P,J11,3,Pin_3*%
%TO.N,/RX*%
X145745000Y-85039000D03*
%TO.P,J11,4,Pin_4*%
%TO.N,+5V*%
X145745000Y-87579000D03*
%TO.P,J11,5,Pin_5*%
%TO.N,GND*%
X145745000Y-90119000D03*
%TO.P,J11,6,Pin_6*%
%TO.N,unconnected-(J11-Pin_6-Pad6)*%
X145745000Y-92659000D03*
%TD*%
D12*
%TO.P,J10,1,Pin_1*%
%TO.N,GND*%
X131576000Y-88824000D03*
D13*
%TO.P,J10,2,Pin_2*%
%TO.N,/A1*%
X134076000Y-88824000D03*
%TO.P,J10,3,Pin_3*%
%TO.N,+5V*%
X136576000Y-88824000D03*
%TD*%
D14*
%TO.P,R9,1*%
%TO.N,Net-(J9-Pin_1)*%
X116764000Y-64934000D03*
D15*
%TO.P,R9,2*%
%TO.N,/\u002A3*%
X124384000Y-64934000D03*
%TD*%
D14*
%TO.P,R8,1*%
%TO.N,Net-(J8-Pin_1)*%
X116764000Y-60884000D03*
D15*
%TO.P,R8,2*%
%TO.N,/4*%
X124384000Y-60884000D03*
%TD*%
D16*
%TO.P,J9,1,Pin_1*%
%TO.N,Net-(J9-Pin_1)*%
X120214000Y-68484000D03*
D17*
%TO.P,J9,2,Pin_2*%
%TO.N,GND*%
X120214000Y-69484000D03*
%TD*%
D16*
%TO.P,J8,1,Pin_1*%
%TO.N,Net-(J8-Pin_1)*%
X116864000Y-68484000D03*
D17*
%TO.P,J8,2,Pin_2*%
%TO.N,GND*%
X116864000Y-69484000D03*
%TD*%
D10*
%TO.P,J6,1,Pin_1*%
%TO.N,+3V3*%
X104064000Y-63932000D03*
D11*
%TO.P,J6,2,Pin_2*%
%TO.N,/A3*%
X106604000Y-63932000D03*
%TO.P,J6,3,Pin_3*%
%TO.N,unconnected-(J6-Pin_3-Pad3)*%
X104064000Y-61392000D03*
%TO.P,J6,4,Pin_4*%
%TO.N,GND*%
X106604000Y-61392000D03*
%TO.P,J6,5,Pin_5*%
%TO.N,unconnected-(J6-Pin_5-Pad5)*%
X104064000Y-58852000D03*
%TO.P,J6,6,Pin_6*%
%TO.N,unconnected-(J6-Pin_6-Pad6)*%
X106604000Y-58852000D03*
%TD*%
D10*
%TO.P,J7,1,Pin_1*%
%TO.N,GND*%
X103100000Y-72060000D03*
D11*
%TO.P,J7,2,Pin_2*%
%TO.N,+3V3*%
X103100000Y-74600000D03*
%TO.P,J7,3,Pin_3*%
%TO.N,/SCL*%
X103100000Y-77140000D03*
%TO.P,J7,4,Pin_4*%
%TO.N,/SDA*%
X103100000Y-79680000D03*
%TO.P,J7,5,Pin_5*%
%TO.N,unconnected-(J7-Pin_5-Pad5)*%
X103100000Y-82220000D03*
%TO.P,J7,6,Pin_6*%
%TO.N,unconnected-(J7-Pin_6-Pad6)*%
X103100000Y-84760000D03*
%TO.P,J7,7,Pin_7*%
%TO.N,unconnected-(J7-Pin_7-Pad7)*%
X103100000Y-87300000D03*
%TD*%
D15*
%TO.P,R7,2*%
%TO.N,/SCL*%
X113970000Y-80696000D03*
D14*
%TO.P,R7,1*%
%TO.N,+3V3*%
X106350000Y-80696000D03*
%TD*%
D15*
%TO.P,R6,2*%
%TO.N,/SDA*%
X113970000Y-76646000D03*
D14*
%TO.P,R6,1*%
%TO.N,+3V3*%
X106350000Y-76646000D03*
%TD*%
D10*
%TO.P,J1,1,Pin_1*%
%TO.N,unconnected-(J1-Pin_1-Pad1)*%
X127940000Y-97460000D03*
D11*
%TO.P,J1,2,Pin_2*%
%TO.N,/IOREF*%
X130480000Y-97460000D03*
%TO.P,J1,3,Pin_3*%
%TO.N,/~{RESET}*%
X133020000Y-97460000D03*
%TO.P,J1,4,Pin_4*%
%TO.N,+3V3*%
X135560000Y-97460000D03*
%TO.P,J1,5,Pin_5*%
%TO.N,+5V*%
X138100000Y-97460000D03*
%TO.P,J1,6,Pin_6*%
%TO.N,GND*%
X140640000Y-97460000D03*
%TO.P,J1,7,Pin_7*%
X143180000Y-97460000D03*
%TO.P,J1,8,Pin_8*%
%TO.N,VCC*%
X145720000Y-97460000D03*
%TD*%
D10*
%TO.P,J3,1,Pin_1*%
%TO.N,/A0*%
X150800000Y-97460000D03*
D11*
%TO.P,J3,2,Pin_2*%
%TO.N,/A1*%
X153340000Y-97460000D03*
%TO.P,J3,3,Pin_3*%
%TO.N,/A2*%
X155880000Y-97460000D03*
%TO.P,J3,4,Pin_4*%
%TO.N,/A3*%
X158420000Y-97460000D03*
%TO.P,J3,5,Pin_5*%
%TO.N,/SDA*%
X160960000Y-97460000D03*
%TO.P,J3,6,Pin_6*%
%TO.N,/SCL*%
X163500000Y-97460000D03*
%TD*%
D10*
%TO.P,J2,1,Pin_1*%
%TO.N,/SCL*%
X118796000Y-49200000D03*
D11*
%TO.P,J2,2,Pin_2*%
%TO.N,/SDA*%
X121336000Y-49200000D03*
%TO.P,J2,3,Pin_3*%
%TO.N,/AREF*%
X123876000Y-49200000D03*
%TO.P,J2,4,Pin_4*%
%TO.N,GND*%
X126416000Y-49200000D03*
%TO.P,J2,5,Pin_5*%
%TO.N,/13*%
X128956000Y-49200000D03*
%TO.P,J2,6,Pin_6*%
%TO.N,/12*%
X131496000Y-49200000D03*
%TO.P,J2,7,Pin_7*%
%TO.N,/\u002A11*%
X134036000Y-49200000D03*
%TO.P,J2,8,Pin_8*%
%TO.N,/\u002A10*%
X136576000Y-49200000D03*
%TO.P,J2,9,Pin_9*%
%TO.N,/\u002A9*%
X139116000Y-49200000D03*
%TO.P,J2,10,Pin_10*%
%TO.N,/8*%
X141656000Y-49200000D03*
%TD*%
D10*
%TO.P,J4,1,Pin_1*%
%TO.N,/7*%
X145720000Y-49200000D03*
D11*
%TO.P,J4,2,Pin_2*%
%TO.N,/\u002A6*%
X148260000Y-49200000D03*
%TO.P,J4,3,Pin_3*%
%TO.N,/\u002A5*%
X150800000Y-49200000D03*
%TO.P,J4,4,Pin_4*%
%TO.N,/4*%
X153340000Y-49200000D03*
%TO.P,J4,5,Pin_5*%
%TO.N,/\u002A3*%
X155880000Y-49200000D03*
%TO.P,J4,6,Pin_6*%
%TO.N,/2*%
X158420000Y-49200000D03*
%TO.P,J4,7,Pin_7*%
%TO.N,/TX*%
X160960000Y-49200000D03*
%TO.P,J4,8,Pin_8*%
%TO.N,/RX*%
X163500000Y-49200000D03*
%TD*%
D14*
%TO.P,R2,1*%
%TO.N,Net-(RedLED1-A)*%
X143298000Y-65202000D03*
D15*
%TO.P,R2,2*%
%TO.N,/7*%
X143298000Y-57582000D03*
%TD*%
D18*
%TO.P,RedLED1,1,K*%
%TO.N,GND*%
X150918000Y-71044000D03*
D19*
%TO.P,RedLED1,2,A*%
%TO.N,Net-(RedLED1-A)*%
X150918000Y-68504000D03*
%TD*%
D14*
%TO.P,R1,1*%
%TO.N,Net-(YellowLED1-A)*%
X139268000Y-65254000D03*
D15*
%TO.P,R1,2*%
%TO.N,/\u002A9*%
X139268000Y-57634000D03*
%TD*%
D18*
%TO.P,GreenLED1,1,K*%
%TO.N,GND*%
X145448000Y-71044000D03*
D19*
%TO.P,GreenLED1,2,A*%
%TO.N,Net-(GreenLED1-A)*%
X145448000Y-68504000D03*
%TD*%
D14*
%TO.P,R5,1*%
%TO.N,+5V*%
X155490000Y-57836000D03*
D15*
%TO.P,R5,2*%
%TO.N,/A0*%
X155490000Y-65456000D03*
%TD*%
D14*
%TO.P,R4,1*%
%TO.N,Net-(GreenLED1-A)*%
X151418000Y-65254000D03*
D15*
%TO.P,R4,2*%
%TO.N,/\u002A5*%
X151418000Y-57634000D03*
%TD*%
D14*
%TO.P,R3,1*%
%TO.N,Net-(BlueLED1-A)*%
X147368000Y-65254000D03*
D15*
%TO.P,R3,2*%
%TO.N,/\u002A6*%
X147368000Y-57634000D03*
%TD*%
D18*
%TO.P,BlueLED1,1,K*%
%TO.N,GND*%
X139978000Y-71044000D03*
D19*
%TO.P,BlueLED1,2,A*%
%TO.N,Net-(BlueLED1-A)*%
X139978000Y-68504000D03*
%TD*%
D10*
%TO.P,J5,1,Pin_1*%
%TO.N,+5V*%
X160570000Y-55804000D03*
D11*
%TO.P,J5,2,Pin_2*%
%TO.N,/A0*%
X160570000Y-58344000D03*
%TO.P,J5,3,Pin_3*%
%TO.N,unconnected-(J5-Pin_3-Pad3)*%
X160570000Y-60884000D03*
%TO.P,J5,4,Pin_4*%
%TO.N,GND*%
X160570000Y-63424000D03*
%TD*%
D18*
%TO.P,YellowLED1,1,K*%
%TO.N,GND*%
X156388000Y-71044000D03*
D19*
%TO.P,YellowLED1,2,A*%
%TO.N,Net-(YellowLED1-A)*%
X156388000Y-68504000D03*
%TD*%
D20*
%TO.N,/A1*%
X155256000Y-95544000D02*
X153340000Y-97460000D01*
X158355701Y-95544000D02*
X155256000Y-95544000D01*
X159785000Y-96973299D02*
X158355701Y-95544000D01*
X159785000Y-97946701D02*
X159785000Y-96973299D01*
X161272299Y-99434000D02*
X159785000Y-97946701D01*
X166998000Y-96630396D02*
X164194396Y-99434000D01*
X166998000Y-93717604D02*
X166998000Y-96630396D01*
X164764396Y-91484000D02*
X166998000Y-93717604D01*
X164194396Y-99434000D02*
X161272299Y-99434000D01*
X134076000Y-88824000D02*
X136736000Y-91484000D01*
X136736000Y-91484000D02*
X164764396Y-91484000D01*
%TO.N,/RX*%
X163500000Y-69012000D02*
X163500000Y-49200000D01*
X164516000Y-70028000D02*
X163500000Y-69012000D01*
X149505000Y-85039000D02*
X164516000Y-70028000D01*
X145745000Y-85039000D02*
X149505000Y-85039000D01*
%TO.N,/TX*%
X151029000Y-82499000D02*
X145745000Y-82499000D01*
X162992000Y-70536000D02*
X151029000Y-82499000D01*
%TO.N,/SDA*%
X122860000Y-69012000D02*
X115226000Y-76646000D01*
X115226000Y-76646000D02*
X113970000Y-76646000D01*
X122860000Y-62916000D02*
X122860000Y-69012000D01*
X121336000Y-60884000D02*
X121336000Y-61392000D01*
X127591000Y-48713299D02*
X127591000Y-54629000D01*
X121336000Y-61392000D02*
X122860000Y-62916000D01*
X126902701Y-48025000D02*
X127591000Y-48713299D01*
X127591000Y-54629000D02*
X121336000Y-60884000D01*
X122511000Y-48025000D02*
X126902701Y-48025000D01*
X121336000Y-49200000D02*
X122511000Y-48025000D01*
X166548000Y-93904000D02*
X166490000Y-93962000D01*
X166490000Y-93962000D02*
X129972000Y-93962000D01*
X166548000Y-96444000D02*
X166548000Y-93904000D01*
X113970000Y-77960000D02*
X113970000Y-76646000D01*
X162484000Y-98984000D02*
X164008000Y-98984000D01*
X160960000Y-97460000D02*
X162484000Y-98984000D01*
X164008000Y-98984000D02*
X166548000Y-96444000D01*
X129972000Y-93962000D02*
X113970000Y-77960000D01*
%TO.N,GND*%
X143688000Y-89840000D02*
X143967000Y-90119000D01*
X143688000Y-82016000D02*
X143688000Y-89840000D01*
X145745000Y-79959000D02*
X143688000Y-82016000D01*
X143967000Y-90119000D02*
X145745000Y-90119000D01*
%TO.N,/TX*%
X162992000Y-51232000D02*
X162992000Y-70536000D01*
X160960000Y-49200000D02*
X162992000Y-51232000D01*
%TO.N,/SDA*%
X108809009Y-76646000D02*
X113970000Y-76646000D01*
X105775009Y-79680000D02*
X108809009Y-76646000D01*
X103100000Y-79680000D02*
X105775009Y-79680000D01*
%TO.N,/SCL*%
X127686000Y-94412000D02*
X113970000Y-80696000D01*
X160452000Y-94412000D02*
X127686000Y-94412000D01*
X163500000Y-97460000D02*
X160452000Y-94412000D01*
%TO.N,/A3*%
X122860000Y-99492000D02*
X156388000Y-99492000D01*
X116256000Y-92888000D02*
X122860000Y-99492000D01*
X101524000Y-69012000D02*
X101524000Y-92888000D01*
X101524000Y-92888000D02*
X116256000Y-92888000D01*
X106604000Y-63932000D02*
X101524000Y-69012000D01*
X156388000Y-99492000D02*
X158420000Y-97460000D01*
%TO.N,GND*%
X116864000Y-69484000D02*
X112664000Y-69484000D01*
X112664000Y-69484000D02*
X108636000Y-65456000D01*
X108636000Y-63424000D02*
X106604000Y-61392000D01*
X108636000Y-65456000D02*
X108636000Y-63424000D01*
X107779000Y-66313000D02*
X108636000Y-65456000D01*
X107779000Y-67381000D02*
X107779000Y-66313000D01*
X103100000Y-72060000D02*
X107779000Y-67381000D01*
X120214000Y-69484000D02*
X116864000Y-69484000D01*
X114224000Y-61392000D02*
X106604000Y-61392000D01*
X126416000Y-49200000D02*
X114224000Y-61392000D01*
%TO.N,/4*%
X137084000Y-55804000D02*
X148260000Y-55804000D01*
X148768000Y-55296000D02*
X149147604Y-55296000D01*
X153340000Y-51103604D02*
X153340000Y-49200000D01*
X132004000Y-60884000D02*
X137084000Y-55804000D01*
X148260000Y-55804000D02*
X148768000Y-55296000D01*
X124384000Y-60884000D02*
X132004000Y-60884000D01*
X149147604Y-55296000D02*
X153340000Y-51103604D01*
%TO.N,/\u002A3*%
X148768000Y-56312000D02*
X155880000Y-49200000D01*
X137592000Y-56312000D02*
X148768000Y-56312000D01*
X128970000Y-64934000D02*
X137592000Y-56312000D01*
X124384000Y-64934000D02*
X128970000Y-64934000D01*
%TO.N,GND*%
X131576000Y-88824000D02*
X140441000Y-79959000D01*
X140441000Y-79959000D02*
X145745000Y-79959000D01*
X145745000Y-71341000D02*
X145448000Y-71044000D01*
X145745000Y-79959000D02*
X145745000Y-71341000D01*
X160570000Y-66862000D02*
X160570000Y-63424000D01*
X156388000Y-71044000D02*
X160570000Y-66862000D01*
X156388000Y-71044000D02*
X150918000Y-71044000D01*
X145448000Y-71044000D02*
X150918000Y-71044000D01*
X139978000Y-71044000D02*
X145448000Y-71044000D01*
%TD*%
M02*
